<svg width="149" height="34" viewBox="0 0 149 34" fill="none" xmlns="http://www.w3.org/2000/svg">
<path opacity="0.56" d="M21.068 31.691C21.068 31.9363 21.0067 32.1663 20.884 32.381C20.6693 32.7797 20.286 32.979 19.734 32.979L17.986 33.117L15.962 33.163C11.086 33.163 7.28333 31.7677 4.554 28.977C2.13133 26.493 0.92 23.365 0.92 19.593C0.92 16.833 1.59467 14.579 2.944 12.831C4.692 10.5923 7.406 9.473 11.086 9.473H18.768C19.6267 9.473 20.056 9.887 20.056 10.715C20.056 11.543 19.6267 11.957 18.768 11.957H12.282C10.0433 11.957 8.29533 12.3097 7.038 13.015C4.922 14.211 3.864 16.4037 3.864 19.593C3.864 22.6597 4.968 25.2203 7.176 27.275C9.53733 29.483 12.6653 30.587 16.56 30.587L18.308 30.541L19.596 30.495C20.148 30.495 20.5313 30.6177 20.746 30.863C20.9607 31.1083 21.068 31.3843 21.068 31.691ZM33.9484 10.761C33.9484 11.2517 33.7797 11.6043 33.4424 11.819C33.2277 11.9417 32.967 12.003 32.6604 12.003C30.667 12.003 29.1797 12.3097 28.1984 12.923C26.5117 13.9657 25.6684 15.913 25.6684 18.765V31.507C25.6684 32.4883 25.2084 32.979 24.2884 32.979C23.3684 32.979 22.9084 32.4883 22.9084 31.507V10.945C22.9084 9.96367 23.3684 9.473 24.2884 9.473C25.2084 9.473 25.6684 9.96367 25.6684 10.945V12.371C26.251 11.451 26.9717 10.761 27.8304 10.301C28.8424 9.749 30.161 9.473 31.7864 9.473C32.461 9.473 32.9824 9.54967 33.3504 9.703C33.749 9.85634 33.9484 10.209 33.9484 10.761ZM54.6484 19.179C54.6484 19.7617 54.587 20.1757 54.4644 20.421C54.219 20.9117 53.7744 21.157 53.1304 21.157H36.4324C36.4324 24.2543 37.3217 26.6003 39.1004 28.195C40.9097 29.7897 43.4397 30.587 46.6904 30.587C47.3344 30.587 47.9937 30.587 48.6684 30.587C49.2204 30.495 49.6344 30.4337 49.9104 30.403L51.5664 30.219C51.965 30.1577 52.2717 30.127 52.4864 30.127C52.701 30.0963 52.9157 30.081 53.1304 30.081C53.5597 30.081 53.8817 30.173 54.0964 30.357C54.3417 30.5103 54.4644 30.817 54.4644 31.277C54.4644 31.7677 54.2344 32.1357 53.7744 32.381C53.4984 32.5343 53.0844 32.6417 52.5324 32.703L49.7264 32.979C48.6224 33.1017 47.3957 33.163 46.0464 33.163C41.9984 33.163 38.8857 32.1203 36.7084 30.035C34.5617 27.919 33.4884 25.0363 33.4884 21.387C33.4884 17.7683 34.531 14.855 36.6164 12.647C38.7324 10.4083 41.4617 9.289 44.8044 9.289C47.9017 9.289 50.355 10.3163 52.1644 12.371C53.8204 14.2417 54.6484 16.511 54.6484 19.179ZM51.7044 18.673C51.7044 16.6183 51.0144 14.9777 49.6344 13.751C48.285 12.4937 46.629 11.865 44.6664 11.865C42.6424 11.865 40.9097 12.4937 39.4684 13.751C38.0577 14.9777 37.1377 16.603 36.7084 18.627L51.7044 18.673ZM77.4622 31.507C77.4622 32.4883 77.0022 32.979 76.0822 32.979H67.4342C63.6622 32.979 60.8255 31.9517 58.9242 29.897C57.2989 28.149 56.4862 25.8643 56.4862 23.043C56.4862 19.0257 58.0809 15.7597 61.2702 13.245C64.4595 10.7303 68.7069 9.473 74.0122 9.473H74.7022V2.251C74.7022 1.26967 75.1622 0.779002 76.0822 0.779002C77.0022 0.779002 77.4622 1.26967 77.4622 2.251V31.507ZM74.7022 30.495V11.957H73.9662C69.5809 11.957 66.0542 12.9843 63.3862 15.039C60.7489 17.063 59.4302 19.8077 59.4302 23.273C59.4302 26.2783 60.5342 28.3483 62.7422 29.483C64.0609 30.1577 65.8242 30.495 68.0322 30.495H74.7022ZM84.2551 4.873C84.2551 5.517 84.1784 6.00767 84.0251 6.345C83.7491 6.92767 83.2891 7.219 82.6451 7.219C82.1238 7.219 81.7404 7.00434 81.4951 6.575C81.2498 6.115 81.1271 5.54767 81.1271 4.873C81.1271 4.19834 81.2498 3.64634 81.4951 3.217C81.7404 2.757 82.1238 2.527 82.6451 2.527C83.1971 2.527 83.5958 2.74167 83.8411 3.171C84.1171 3.56967 84.2551 4.137 84.2551 4.873ZM84.0711 31.507C84.0711 32.4883 83.6111 32.979 82.6911 32.979C81.7711 32.979 81.3111 32.4883 81.3111 31.507V10.945C81.3111 9.96367 81.7711 9.473 82.6911 9.473C83.6111 9.473 84.0711 9.96367 84.0711 10.945V31.507ZM99.2252 31.737C99.2252 32.2277 99.0106 32.5803 98.5812 32.795C98.3052 32.9177 98.0446 32.979 97.7992 32.979H94.5332C92.1106 32.979 90.5006 32.3657 89.7032 31.139C89.0286 30.127 88.6912 28.5323 88.6912 26.355V11.957H86.8512C86.4526 11.957 86.1152 11.8497 85.8392 11.635C85.5632 11.4203 85.4252 11.1137 85.4252 10.715C85.4252 10.1937 85.6092 9.85634 85.9772 9.703C86.3146 9.54967 86.6519 9.473 86.9892 9.473H88.6912V4.735C88.6912 3.75367 89.1512 3.263 90.0712 3.263C90.9912 3.263 91.4512 3.75367 91.4512 4.735V9.473H96.8792C97.2472 9.473 97.5386 9.519 97.7532 9.611C98.2132 9.82567 98.4432 10.1937 98.4432 10.715C98.4432 11.2057 98.2286 11.5583 97.7992 11.773C97.5232 11.8957 97.2626 11.957 97.0172 11.957H91.4512V25.849C91.4512 27.4743 91.6352 28.655 92.0032 29.391C92.4019 30.127 93.1072 30.495 94.1192 30.495H97.6612C98.0292 30.495 98.3206 30.541 98.5352 30.633C98.9952 30.8477 99.2252 31.2157 99.2252 31.737ZM120.645 21.249C120.645 24.5303 119.832 27.2443 118.207 29.391C116.306 31.9057 113.546 33.163 109.927 33.163C106.37 33.163 103.625 31.9057 101.693 29.391C100.037 27.2137 99.2091 24.4997 99.2091 21.249C99.2091 17.845 100.175 15.0083 102.107 12.739C104.07 10.439 106.676 9.289 109.927 9.289C113.147 9.289 115.738 10.439 117.701 12.739C119.664 15.0083 120.645 17.845 120.645 21.249ZM117.701 21.203C117.701 18.627 117.072 16.4803 115.815 14.763C114.404 12.831 112.442 11.865 109.927 11.865C107.443 11.865 105.496 12.831 104.085 14.763C102.797 16.511 102.153 18.6577 102.153 21.203C102.153 24.055 102.828 26.3397 104.177 28.057C105.526 29.7437 107.443 30.587 109.927 30.587C112.38 30.587 114.282 29.7437 115.631 28.057C117.011 26.3397 117.701 24.055 117.701 21.203ZM142.811 24.699C142.811 27.1523 142.029 29.1457 140.465 30.679C138.901 32.2123 136.923 32.979 134.531 32.979H123.445C123.046 32.979 122.709 32.8717 122.433 32.657C122.157 32.4423 122.019 32.1357 122.019 31.737C122.019 31.2157 122.187 30.8783 122.525 30.725C122.893 30.5717 123.245 30.495 123.583 30.495H134.669C136.263 30.495 137.521 30.035 138.441 29.115C139.391 28.1643 139.867 26.815 139.867 25.067C139.867 23.319 139.33 22.0463 138.257 21.249C137.582 20.7583 136.647 20.421 135.451 20.237L127.309 19.087C125.745 18.8417 124.549 18.3203 123.721 17.523C122.923 16.695 122.525 15.637 122.525 14.349C122.525 12.7237 123.015 11.5123 123.997 10.715C125.009 9.887 126.435 9.473 128.275 9.473H139.131C139.529 9.473 139.867 9.58034 140.143 9.795C140.419 10.0097 140.557 10.3163 140.557 10.715C140.557 11.2363 140.373 11.5737 140.005 11.727C139.667 11.8803 139.33 11.957 138.993 11.957H128.275C127.416 11.957 126.818 12.0337 126.481 12.187C125.806 12.4937 125.469 13.061 125.469 13.889C125.469 14.533 125.653 15.085 126.021 15.545C126.419 15.9743 127.14 16.2657 128.183 16.419L136.417 17.615C138.502 17.891 140.081 18.6577 141.155 19.915C142.259 21.1417 142.811 22.7363 142.811 24.699ZM148.224 4.873C148.224 5.517 148.147 6.00767 147.994 6.345C147.718 6.92767 147.258 7.219 146.614 7.219C146.093 7.219 145.709 7.00434 145.464 6.575C145.219 6.115 145.096 5.54767 145.096 4.873C145.096 4.19834 145.219 3.64634 145.464 3.217C145.709 2.757 146.093 2.527 146.614 2.527C147.166 2.527 147.565 2.74167 147.81 3.171C148.086 3.56967 148.224 4.137 148.224 4.873ZM148.04 31.507C148.04 32.4883 147.58 32.979 146.66 32.979C145.74 32.979 145.28 32.4883 145.28 31.507V10.945C145.28 9.96367 145.74 9.473 146.66 9.473C147.58 9.473 148.04 9.96367 148.04 10.945V31.507Z" fill="white"/>
</svg>
