<svg width="90" height="21" viewBox="0 0 90 21" fill="none" xmlns="http://www.w3.org/2000/svg">
<path opacity="0.7" d="M12.324 19.3859C12.324 19.5353 12.2867 19.6753 12.212 19.8059C12.0813 20.0486 11.848 20.1699 11.512 20.1699L10.448 20.2539L9.216 20.2819C6.248 20.2819 3.93333 19.4326 2.272 17.7339C0.797333 16.2219 0.06 14.3179 0.06 12.0219C0.06 10.3419 0.470667 8.96992 1.292 7.90592C2.356 6.54325 4.008 5.86192 6.248 5.86192H10.924C11.4467 5.86192 11.708 6.11392 11.708 6.61792C11.708 7.12192 11.4467 7.37392 10.924 7.37392H6.976C5.61333 7.37392 4.54933 7.58859 3.784 8.01792C2.496 8.74592 1.852 10.0806 1.852 12.0219C1.852 13.8886 2.524 15.4473 3.868 16.6979C5.30533 18.0419 7.20933 18.7139 9.58 18.7139L10.644 18.6859L11.428 18.6579C11.764 18.6579 11.9973 18.7326 12.128 18.8819C12.2587 19.0313 12.324 19.1993 12.324 19.3859ZM20.1642 6.64592C20.1642 6.94459 20.0616 7.15925 19.8562 7.28992C19.7256 7.36459 19.5669 7.40192 19.3802 7.40192C18.1669 7.40192 17.2616 7.58859 16.6642 7.96192C15.6376 8.59659 15.1242 9.78192 15.1242 11.5179V19.2739C15.1242 19.8713 14.8442 20.1699 14.2842 20.1699C13.7242 20.1699 13.4442 19.8713 13.4442 19.2739V6.75792C13.4442 6.16059 13.7242 5.86192 14.2842 5.86192C14.8442 5.86192 15.1242 6.16059 15.1242 6.75792V7.62592C15.4789 7.06592 15.9176 6.64592 16.4402 6.36592C17.0562 6.02992 17.8589 5.86192 18.8482 5.86192C19.2589 5.86192 19.5762 5.90859 19.8002 6.00192C20.0429 6.09525 20.1642 6.30992 20.1642 6.64592ZM32.7642 11.7699C32.7642 12.1246 32.7269 12.3766 32.6522 12.5259C32.5029 12.8246 32.2322 12.9739 31.8402 12.9739H21.6762C21.6762 14.8593 22.2176 16.2873 23.3002 17.2579C24.4016 18.2286 25.9416 18.7139 27.9202 18.7139C28.3122 18.7139 28.7136 18.7139 29.1242 18.7139C29.4602 18.6579 29.7122 18.6206 29.8802 18.6019L30.8882 18.4899C31.1309 18.4526 31.3176 18.4339 31.4482 18.4339C31.5789 18.4153 31.7096 18.4059 31.8402 18.4059C32.1016 18.4059 32.2976 18.4619 32.4282 18.5739C32.5776 18.6673 32.6522 18.8539 32.6522 19.1339C32.6522 19.4326 32.5122 19.6566 32.2322 19.8059C32.0642 19.8993 31.8122 19.9646 31.4762 20.0019L29.7682 20.1699C29.0962 20.2446 28.3496 20.2819 27.5282 20.2819C25.0642 20.2819 23.1696 19.6473 21.8442 18.3779C20.5376 17.0899 19.8842 15.3353 19.8842 13.1139C19.8842 10.9113 20.5189 9.13792 21.7882 7.79392C23.0762 6.43125 24.7376 5.74992 26.7722 5.74992C28.6576 5.74992 30.1509 6.37525 31.2522 7.62592C32.2602 8.76459 32.7642 10.1459 32.7642 11.7699ZM30.9722 11.4619C30.9722 10.2113 30.5522 9.21259 29.7122 8.46592C28.8909 7.70059 27.8829 7.31792 26.6882 7.31792C25.4562 7.31792 24.4016 7.70059 23.5242 8.46592C22.6656 9.21259 22.1056 10.2019 21.8442 11.4339L30.9722 11.4619ZM46.6509 19.2739C46.6509 19.8713 46.3709 20.1699 45.8109 20.1699H40.5469C38.2509 20.1699 36.5242 19.5446 35.3669 18.2939C34.3776 17.2299 33.8829 15.8393 33.8829 14.1219C33.8829 11.6766 34.8536 9.68859 36.7949 8.15792C38.7362 6.62725 41.3216 5.86192 44.5509 5.86192H44.9709V1.46592C44.9709 0.868587 45.2509 0.569921 45.8109 0.569921C46.3709 0.569921 46.6509 0.868587 46.6509 1.46592V19.2739ZM44.9709 18.6579V7.37392H44.5229C41.8536 7.37392 39.7069 7.99925 38.0829 9.24992C36.4776 10.4819 35.6749 12.1526 35.6749 14.2619C35.6749 16.0913 36.3469 17.3513 37.6909 18.0419C38.4936 18.4526 39.5669 18.6579 40.9109 18.6579H44.9709ZM50.7857 3.06192C50.7857 3.45392 50.7391 3.75259 50.6457 3.95792C50.4777 4.31259 50.1977 4.48992 49.8057 4.48992C49.4884 4.48992 49.2551 4.35926 49.1057 4.09792C48.9564 3.81792 48.8817 3.47259 48.8817 3.06192C48.8817 2.65125 48.9564 2.31525 49.1057 2.05392C49.2551 1.77392 49.4884 1.63392 49.8057 1.63392C50.1417 1.63392 50.3844 1.76459 50.5337 2.02592C50.7017 2.26859 50.7857 2.61392 50.7857 3.06192ZM50.6737 19.2739C50.6737 19.8713 50.3937 20.1699 49.8337 20.1699C49.2737 20.1699 48.9937 19.8713 48.9937 19.2739V6.75792C48.9937 6.16059 49.2737 5.86192 49.8337 5.86192C50.3937 5.86192 50.6737 6.16059 50.6737 6.75792V19.2739ZM59.898 19.4139C59.898 19.7126 59.7673 19.9273 59.506 20.0579C59.338 20.1326 59.1793 20.1699 59.03 20.1699H57.042C55.5673 20.1699 54.5873 19.7966 54.102 19.0499C53.6913 18.4339 53.486 17.4633 53.486 16.1379V7.37392H52.366C52.1233 7.37392 51.918 7.30859 51.75 7.17792C51.582 7.04725 51.498 6.86059 51.498 6.61792C51.498 6.30059 51.61 6.09525 51.834 6.00192C52.0393 5.90859 52.2446 5.86192 52.45 5.86192H53.486V2.97792C53.486 2.38059 53.766 2.08192 54.326 2.08192C54.886 2.08192 55.166 2.38059 55.166 2.97792V5.86192H58.47C58.694 5.86192 58.8713 5.88992 59.002 5.94592C59.282 6.07659 59.422 6.30059 59.422 6.61792C59.422 6.91659 59.2913 7.13125 59.03 7.26192C58.862 7.33659 58.7033 7.37392 58.554 7.37392H55.166V15.8299C55.166 16.8193 55.278 17.5379 55.502 17.9859C55.7446 18.4339 56.174 18.6579 56.79 18.6579H58.946C59.17 18.6579 59.3473 18.6859 59.478 18.7419C59.758 18.8726 59.898 19.0966 59.898 19.4139ZM72.9361 13.0299C72.9361 15.0273 72.4415 16.6793 71.4521 17.9859C70.2948 19.5166 68.6148 20.2819 66.4121 20.2819C64.2468 20.2819 62.5761 19.5166 61.4001 17.9859C60.3921 16.6606 59.8881 15.0086 59.8881 13.0299C59.8881 10.9579 60.4761 9.23125 61.6521 7.84992C62.8468 6.44992 64.4335 5.74992 66.4121 5.74992C68.3721 5.74992 69.9495 6.44992 71.1441 7.84992C72.3388 9.23125 72.9361 10.9579 72.9361 13.0299ZM71.1441 13.0019C71.1441 11.4339 70.7615 10.1273 69.9961 9.08192C69.1375 7.90592 67.9428 7.31792 66.4121 7.31792C64.9001 7.31792 63.7148 7.90592 62.8561 9.08192C62.0721 10.1459 61.6801 11.4526 61.6801 13.0019C61.6801 14.7379 62.0908 16.1286 62.9121 17.1739C63.7335 18.2006 64.9001 18.7139 66.4121 18.7139C67.9055 18.7139 69.0628 18.2006 69.8841 17.1739C70.7241 16.1286 71.1441 14.7379 71.1441 13.0019ZM86.4282 15.1299C86.4282 16.6233 85.9522 17.8366 85.0002 18.7699C84.0482 19.7033 82.8442 20.1699 81.3882 20.1699H74.6402C74.3975 20.1699 74.1922 20.1046 74.0242 19.9739C73.8562 19.8433 73.7722 19.6566 73.7722 19.4139C73.7722 19.0966 73.8749 18.8913 74.0802 18.7979C74.3042 18.7046 74.5189 18.6579 74.7242 18.6579H81.4722C82.4429 18.6579 83.2082 18.3779 83.7682 17.8179C84.3469 17.2393 84.6362 16.4179 84.6362 15.3539C84.6362 14.2899 84.3095 13.5153 83.6562 13.0299C83.2455 12.7313 82.6762 12.5259 81.9482 12.4139L76.9922 11.7139C76.0402 11.5646 75.3122 11.2473 74.8082 10.7619C74.3229 10.2579 74.0802 9.61392 74.0802 8.82992C74.0802 7.84059 74.3789 7.10325 74.9762 6.61792C75.5922 6.11392 76.4602 5.86192 77.5802 5.86192H84.1882C84.4309 5.86192 84.6362 5.92725 84.8042 6.05792C84.9722 6.18859 85.0562 6.37525 85.0562 6.61792C85.0562 6.93525 84.9442 7.14059 84.7202 7.23392C84.5149 7.32725 84.3095 7.37392 84.1042 7.37392H77.5802C77.0575 7.37392 76.6935 7.42059 76.4882 7.51392C76.0775 7.70059 75.8722 8.04592 75.8722 8.54992C75.8722 8.94192 75.9842 9.27792 76.2082 9.55792C76.4509 9.81925 76.8895 9.99659 77.5242 10.0899L82.5362 10.8179C83.8055 10.9859 84.7669 11.4526 85.4202 12.2179C86.0922 12.9646 86.4282 13.9353 86.4282 15.1299ZM89.7232 3.06192C89.7232 3.45392 89.6766 3.75259 89.5832 3.95792C89.4152 4.31259 89.1352 4.48992 88.7432 4.48992C88.4259 4.48992 88.1926 4.35926 88.0432 4.09792C87.8939 3.81792 87.8192 3.47259 87.8192 3.06192C87.8192 2.65125 87.8939 2.31525 88.0432 2.05392C88.1926 1.77392 88.4259 1.63392 88.7432 1.63392C89.0792 1.63392 89.3219 1.76459 89.4712 2.02592C89.6392 2.26859 89.7232 2.61392 89.7232 3.06192ZM89.6112 19.2739C89.6112 19.8713 89.3312 20.1699 88.7712 20.1699C88.2112 20.1699 87.9312 19.8713 87.9312 19.2739V6.75792C87.9312 6.16059 88.2112 5.86192 88.7712 5.86192C89.3312 5.86192 89.6112 6.16059 89.6112 6.75792V19.2739Z" fill="white"/>
</svg>
