<svg width="222" height="223" viewBox="0 0 222 223" fill="none" xmlns="http://www.w3.org/2000/svg">
<path d="M82.6869 133.335H73.9193V120.984H49.5227V114.504L70.1074 79.9673H80.171L60.8824 112.217H73.9193V99.0272H82.6869V112.217H89.5484V120.984H82.6869V133.335ZM113.673 101.543H115.121C117.053 101.543 118.679 100.882 120.001 99.5609C121.322 98.1886 121.983 96.5621 121.983 94.6816C121.983 92.5468 121.271 90.895 119.848 89.726C118.425 88.5062 116.545 87.8962 114.207 87.8962C111.919 87.8962 110.09 88.5316 108.717 89.8022C107.345 91.0729 106.659 92.6993 106.659 94.6816C106.659 96.5621 107.32 98.1886 108.641 99.5609C110.013 100.882 111.691 101.543 113.673 101.543ZM115.121 110.311H113.825C111.437 110.311 109.403 111.022 107.726 112.445C106.049 113.818 105.21 115.622 105.21 117.858C105.21 120.044 106.024 121.848 107.65 123.271C109.327 124.694 111.538 125.406 114.283 125.406C117.282 125.406 119.569 124.72 121.144 123.348C122.771 121.975 123.559 120.146 123.508 117.858C123.457 115.52 122.669 113.691 121.144 112.369C119.62 110.997 117.612 110.311 115.121 110.311ZM95.8328 119.536C95.8328 116.283 96.6715 113.462 98.3487 111.073C100.026 108.633 102.237 106.956 104.982 106.041V105.813C102.745 104.847 100.915 103.246 99.4923 101.009C98.0692 98.7222 97.3576 96.1047 97.3576 93.1568C97.3576 89.0398 98.9841 85.6853 102.237 83.0932C105.49 80.4502 109.505 79.1287 114.283 79.1287C119.111 79.1287 123.152 80.4502 126.405 83.0932C129.709 85.6853 131.36 89.0398 131.36 93.1568C131.36 95.8506 130.598 98.3665 129.073 100.704C127.599 102.992 125.617 104.669 123.127 105.736V105.965C125.922 106.575 128.235 108.049 130.064 110.387C131.894 112.674 132.809 115.47 132.809 118.773C132.809 123.551 131.055 127.312 127.548 130.057C124.143 132.801 119.747 134.174 114.359 134.174C108.971 134.174 104.55 132.852 101.093 130.209C97.5863 127.515 95.8328 123.958 95.8328 119.536ZM162.131 88.7349H139.107V79.9673H172.652V85.8378L153.745 133.335H144.139L162.131 88.7349Z" fill="#311571"/>
<path d="M91.701 150.809L92.6927 152.362C92.4283 152.693 92.0977 152.935 91.701 153.09C91.3483 153.211 90.9076 153.332 90.3786 153.453C89.8607 153.552 89.4309 153.69 89.0893 153.867C88.1747 154.296 87.6402 155.222 87.486 156.643H87.519C87.7504 156.236 88.1086 155.905 88.5934 155.652C89.0783 155.387 89.5907 155.255 90.1307 155.255C91.1555 155.255 91.9765 155.586 92.5936 156.247C93.2107 156.919 93.5192 157.806 93.5192 158.908C93.5192 159.977 93.1556 160.886 92.4283 161.635C91.701 162.374 90.7643 162.743 89.6183 162.743C88.373 162.743 87.3868 162.319 86.6595 161.47C85.9432 160.622 85.5851 159.476 85.5851 158.032C85.5851 154.858 86.5217 152.864 88.3951 152.048C88.8028 151.872 89.2546 151.74 89.7505 151.652C90.3125 151.541 90.7257 151.437 90.9902 151.338C91.2547 151.227 91.4916 151.051 91.701 150.809ZM87.6182 158.429C87.6292 159.178 87.811 159.79 88.1637 160.263C88.5163 160.737 88.9846 160.974 89.5687 160.974C90.1417 160.974 90.6045 160.787 90.9571 160.412C91.3098 160.038 91.4861 159.564 91.4861 158.991C91.4861 158.407 91.3208 157.933 90.9902 157.569C90.6706 157.205 90.2243 157.024 89.6513 157.024C89.1554 157.024 88.7257 157.156 88.362 157.42C87.9984 157.674 87.7504 158.01 87.6182 158.429ZM95.7482 157.04L95.2689 155.652C96.0733 155.178 96.9494 154.941 97.8971 154.941C98.9329 154.941 99.6877 155.194 100.162 155.701C100.635 156.208 100.872 156.985 100.872 158.032V162.561H99.2194V161.702C98.7786 162.341 98.0458 162.66 97.021 162.66C96.3157 162.66 95.7482 162.456 95.3185 162.049C94.8997 161.63 94.6903 161.073 94.6903 160.379C94.6903 159.608 94.9383 159.013 95.4342 158.594C95.9301 158.175 96.5857 157.966 97.4012 157.966C98.0734 157.966 98.6354 158.126 99.0872 158.445C99.1092 157.784 99.01 157.299 98.7896 156.991C98.5803 156.682 98.2166 156.528 97.6987 156.528C97.1257 156.528 96.4755 156.699 95.7482 157.04ZM97.6491 161.057C98.2883 161.057 98.7676 160.831 99.0872 160.379V159.619C98.7786 159.376 98.3434 159.255 97.7814 159.255C97.4287 159.255 97.1422 159.338 96.9218 159.503C96.7014 159.668 96.5912 159.894 96.5912 160.181C96.5912 160.445 96.6904 160.66 96.8888 160.825C97.0871 160.98 97.3406 161.057 97.6491 161.057ZM109.615 162.561H107.714V157.024H105.747L105.697 157.817C105.554 159.161 105.345 160.186 105.069 160.892C104.805 161.597 104.463 162.076 104.044 162.33C103.636 162.572 103.069 162.699 102.342 162.71L102.176 160.859C102.419 160.87 102.645 160.803 102.854 160.66C103.097 160.484 103.311 160.115 103.499 159.553C103.686 158.991 103.807 158.285 103.862 157.437L103.978 155.123H109.615V162.561ZM118.525 162.561H116.624V157.024H114.657L114.608 157.817C114.464 159.161 114.255 160.186 113.979 160.892C113.715 161.597 113.373 162.076 112.955 162.33C112.547 162.572 111.979 162.699 111.252 162.71L111.087 160.859C111.329 160.87 111.555 160.803 111.764 160.66C112.007 160.484 112.222 160.115 112.409 159.553C112.596 158.991 112.718 158.285 112.773 157.437L112.888 155.123H118.525V162.561ZM121.286 161.652C120.548 160.914 120.179 159.977 120.179 158.842C120.179 157.707 120.548 156.776 121.286 156.048C122.025 155.31 123.006 154.941 124.229 154.941C125.441 154.941 126.416 155.31 127.154 156.048C127.904 156.776 128.278 157.707 128.278 158.842C128.278 159.966 127.904 160.903 127.154 161.652C126.405 162.379 125.43 162.743 124.229 162.743C123.006 162.743 122.025 162.379 121.286 161.652ZM122.791 157.321C122.405 157.718 122.212 158.225 122.212 158.842C122.212 159.459 122.399 159.971 122.774 160.379C123.16 160.776 123.645 160.974 124.229 160.974C124.824 160.974 125.309 160.776 125.683 160.379C126.069 159.982 126.262 159.47 126.262 158.842C126.262 158.225 126.069 157.718 125.683 157.321C125.298 156.924 124.813 156.726 124.229 156.726C123.656 156.726 123.176 156.924 122.791 157.321ZM129.923 162.561V155.123C130.023 155.123 130.441 155.112 131.18 155.09C131.929 155.057 132.486 155.04 132.849 155.04C135.097 155.04 136.221 155.69 136.221 156.991C136.221 157.409 136.089 157.779 135.825 158.098C135.56 158.407 135.229 158.588 134.833 158.644V158.677C135.891 158.93 136.42 159.503 136.42 160.396C136.42 161.894 135.24 162.644 132.882 162.644C132.541 162.644 132.017 162.627 131.312 162.594C131.136 162.594 130.932 162.589 130.7 162.578C130.48 162.578 130.309 162.572 130.188 162.561C130.078 162.561 129.99 162.561 129.923 162.561ZM133.014 159.404H131.824V161.057C132.486 161.101 132.904 161.123 133.081 161.123C133.499 161.123 133.824 161.046 134.056 160.892C134.298 160.737 134.42 160.528 134.42 160.263C134.42 159.69 133.951 159.404 133.014 159.404ZM133.014 156.577C132.574 156.577 132.177 156.588 131.824 156.61V158.247H133.064C133.406 158.247 133.681 158.17 133.891 158.015C134.1 157.861 134.205 157.652 134.205 157.387C134.205 156.847 133.808 156.577 133.014 156.577Z" fill="#311571"/>
<path d="M221.987 111.811C221.987 173.107 172.296 222.798 110.999 222.798C49.7025 222.798 0.0117188 173.107 0.0117188 111.811C0.0117188 50.514 49.7025 0.823242 110.999 0.823242C172.296 0.823242 221.987 50.514 221.987 111.811ZM13.7022 111.811C13.7022 165.546 57.2636 209.108 110.999 209.108C164.735 209.108 208.296 165.546 208.296 111.811C208.296 58.0751 164.735 14.5138 110.999 14.5138C57.2636 14.5138 13.7022 58.0751 13.7022 111.811Z" fill="#F3F3F3"/>
<path d="M110.999 0.823242C135.431 0.823242 159.181 8.88509 178.564 23.7584C197.947 38.6318 211.881 59.4854 218.205 83.0851C224.528 106.685 222.888 131.711 213.538 154.284C204.189 176.856 187.652 195.713 166.493 207.929L159.648 196.072C178.197 185.363 192.693 168.833 200.89 149.045C209.086 129.257 210.524 107.317 204.981 86.6284C199.437 65.9399 187.222 47.6586 170.23 34.6199C153.238 21.5812 132.418 14.5138 110.999 14.5138V0.823242Z" fill="#311571"/>
</svg>
