<svg width="321" height="1183" viewBox="0 0 321 1183" fill="none" xmlns="http://www.w3.org/2000/svg">
<path fill-rule="evenodd" clip-rule="evenodd" d="M-82.101 -226.028C-18.2407 -257.689 53.5454 -245.79 118.458 -236.708C177.12 -228.5 223.94 -202.589 271.912 -176.497C324.653 -147.811 406.003 -133.519 412.679 -76.6812C419.51 -18.5302 383.852 55.4802 358.431 114.891C333.921 172.174 327.676 222.895 268.686 259.846C205.797 299.239 139.776 223.292 67.9682 235.619C3.55423 246.678 -48.0773 336.969 -107.17 324.373C-164.35 312.183 -146.974 233.377 -165.915 185.763C-180.646 148.734 -199.268 115.435 -206.12 75.6342C-214.587 26.4525 -231.56 -22.5098 -210.563 -73.5833C-186.523 -132.058 -145.822 -194.436 -82.101 -226.028Z" stroke="url(#paint0_linear_18_7)"/>
<path fill-rule="evenodd" clip-rule="evenodd" d="M-147.358 -176.881C-93.029 -223.021 -20.4935 -228.802 44.6923 -235.657C103.601 -241.853 155.29 -228.009 208.142 -214.268C266.248 -199.161 348.642 -204.929 368.841 -151.384C389.506 -96.6008 372.768 -16.1717 362.44 47.6184C352.481 109.124 358.665 159.853 310.338 209.951C258.818 263.359 176.417 205.594 109.708 234.89C49.8681 261.17 21.5584 361.255 -38.8276 363.295C-97.2593 365.269 -99.4194 284.598 -129.294 242.964C-152.527 210.586 -178.637 182.767 -194.893 145.797C-214.982 100.113 -243.272 56.6959 -235.224 2.06429C-226.01 -60.4839 -201.57 -130.842 -147.358 -176.881Z" stroke="url(#paint1_linear_18_7)"/>
<path fill-rule="evenodd" clip-rule="evenodd" d="M574.036 945.707C518.45 990.325 445.782 994.096 380.432 999.145C321.374 1003.71 270.088 988.438 217.636 973.24C159.971 956.53 77.449 960.015 58.74 905.931C39.5989 850.597 58.5573 770.662 70.6471 707.182C82.304 645.976 77.5269 595.095 127.222 546.355C180.201 494.393 260.971 554.417 328.466 526.978C389.01 502.364 420.079 403.102 480.499 402.734C538.962 402.378 538.889 483.077 567.6 525.523C589.928 558.532 615.257 587.063 630.484 624.468C649.3 670.691 676.378 714.874 666.821 769.262C655.879 831.532 629.501 901.186 574.036 945.707Z" stroke="url(#paint2_linear_18_7)"/>
<path fill-rule="evenodd" clip-rule="evenodd" d="M617.906 841.201C574.734 897.917 505.125 919.117 442.926 939.791C386.716 958.474 333.261 956.036 278.692 953.948C218.698 951.653 139.457 974.954 108.247 926.985C76.3147 877.908 75.4174 795.761 71.8266 731.24C68.3644 669.029 51.4468 620.807 87.9068 561.511C126.776 498.298 219.647 537.05 278.522 494.13C331.335 455.63 337.525 351.803 396.069 336.862C452.718 322.404 472.126 400.735 510.234 434.995C539.87 461.638 571.337 483.211 595.143 515.835C624.56 556.149 661.502 592.49 665.356 647.576C669.768 710.646 660.984 784.607 617.906 841.201Z" stroke="url(#paint3_linear_18_7)"/>
<g filter="url(#filter0_f_18_7)">
<path fill-rule="evenodd" clip-rule="evenodd" d="M27.1834 -284.238C85.5454 -298.648 143.912 -269.235 196.946 -244.249C244.873 -221.67 280.174 -185.053 316.413 -147.975C356.256 -107.21 422.275 -73.1037 419.208 -16.8411C416.071 40.7211 374.897 102.871 344.53 153.563C315.251 202.44 302.285 249.59 247.199 270.301C188.473 292.38 144.702 202.896 82.6242 196.746C26.9384 191.23 -30.1086 265.014 -77.7277 238.111C-123.806 212.079 -97.2265 140.743 -105.848 90.2665C-112.553 51.0118 -123.089 14.3651 -122.766 -25.5782C-122.368 -74.9358 -129.134 -126.214 -103.746 -170.007C-74.68 -220.145 -31.0516 -269.859 27.1834 -284.238Z" fill="url(#paint4_linear_18_7)"/>
</g>
<defs>
<filter id="filter0_f_18_7" x="-153.301" y="-318.042" width="602.613" height="621.838" filterUnits="userSpaceOnUse" color-interpolation-filters="sRGB">
<feFlood flood-opacity="0" result="BackgroundImageFix"/>
<feBlend mode="normal" in="SourceGraphic" in2="BackgroundImageFix" result="shape"/>
<feGaussianBlur stdDeviation="15" result="effect1_foregroundBlur_18_7"/>
</filter>
<linearGradient id="paint0_linear_18_7" x1="604.268" y1="-114.228" x2="42.5006" y2="319.812" gradientUnits="userSpaceOnUse">
<stop stop-color="#270F69"/>
<stop offset="1" stop-color="#270F69" stop-opacity="0"/>
</linearGradient>
<linearGradient id="paint1_linear_18_7" x1="545.701" y1="-234.067" x2="105.316" y2="322.741" gradientUnits="userSpaceOnUse">
<stop stop-color="#270F69"/>
<stop offset="1" stop-color="#270F69" stop-opacity="0"/>
</linearGradient>
<linearGradient id="paint2_linear_18_7" x1="451.536" y1="339.748" x2="27.0203" y2="543.779" gradientUnits="userSpaceOnUse">
<stop stop-color="#270F69"/>
<stop offset="1" stop-color="#270F69" stop-opacity="0"/>
</linearGradient>
<linearGradient id="paint3_linear_18_7" x1="397.237" y1="300.259" x2="45.1198" y2="632.632" gradientUnits="userSpaceOnUse">
<stop stop-color="#270F69"/>
<stop offset="1" stop-color="#270F69" stop-opacity="0"/>
</linearGradient>
<linearGradient id="paint4_linear_18_7" x1="-231.758" y1="-129.376" x2="85.8644" y2="220.423" gradientUnits="userSpaceOnUse">
<stop stop-color="#EE86FF"/>
<stop offset="1" stop-color="#270F69"/>
</linearGradient>
</defs>
</svg>
