<svg width="45" height="45" viewBox="0 0 45 45" fill="none" xmlns="http://www.w3.org/2000/svg">
<path fill-rule="evenodd" clip-rule="evenodd" d="M18.0904 15.6812C16.0545 15.6812 14.102 16.4899 12.6624 17.9295C11.2228 19.3691 10.4141 21.3216 10.4141 23.3575C10.4141 25.3934 11.2228 27.3459 12.6624 28.7855C14.102 30.2251 16.0545 31.0339 18.0904 31.0339C20.1263 31.0339 22.0789 30.2251 23.5185 28.7855C24.9581 27.3459 25.7668 25.3934 25.7668 23.3575C25.7668 21.3216 24.9581 19.3691 23.5185 17.9295C22.0789 16.4899 20.1263 15.6812 18.0904 15.6812ZM13.4846 23.3575C13.4846 22.136 13.9699 20.9645 14.8336 20.1007C15.6974 19.237 16.8689 18.7517 18.0904 18.7517C19.312 18.7517 20.4835 19.237 21.3472 20.1007C22.211 20.9645 22.6963 22.136 22.6963 23.3575C22.6963 24.5791 22.211 25.7506 21.3472 26.6143C20.4835 27.4781 19.312 27.9634 18.0904 27.9634C16.8689 27.9634 15.6974 27.4781 14.8336 26.6143C13.9699 25.7506 13.4846 24.5791 13.4846 23.3575Z" fill="white"/>
<path d="M13.9962 34.1038C13.589 34.1038 13.1985 34.2655 12.9106 34.5534C12.6227 34.8414 12.4609 35.2319 12.4609 35.639C12.4609 36.0462 12.6227 36.4367 12.9106 36.7246C13.1985 37.0126 13.589 37.1743 13.9962 37.1743H22.1843C22.5915 37.1743 22.982 37.0126 23.2699 36.7246C23.5579 36.4367 23.7196 36.0462 23.7196 35.639C23.7196 35.2319 23.5579 34.8414 23.2699 34.5534C22.982 34.2655 22.5915 34.1038 22.1843 34.1038H13.9962Z" fill="white"/>
<path fill-rule="evenodd" clip-rule="evenodd" d="M29.3034 1.0566C30.1018 0.942524 30.9153 1.00132 31.689 1.22901C32.4627 1.45671 33.1784 1.84798 33.7877 2.37634C34.397 2.9047 34.8857 3.55781 35.2206 4.29146C35.5555 5.0251 35.7289 5.82215 35.729 6.62863V9.4474C36.9648 10.0994 37.9991 11.0764 38.7206 12.2729C39.442 13.4694 39.8232 14.8402 39.8231 16.2374V36.7077C39.8231 38.7436 39.0143 40.6962 37.5747 42.1358C36.1351 43.5754 34.1826 44.3841 32.1467 44.3841H11.6764C9.64047 44.3841 7.68796 43.5754 6.24836 42.1358C4.80876 40.6962 4 38.7436 4 36.7077V8.04927V7.90393C4 6.04932 5.36332 4.47515 7.20156 4.21313L29.3013 1.0566H29.3034ZM7.72765 11.6316H7.07055V36.7077C7.07055 37.9293 7.55581 39.1008 8.41957 39.9646C9.28333 40.8283 10.4548 41.3136 11.6764 41.3136H32.1467C33.3683 41.3136 34.5398 40.8283 35.4035 39.9646C36.2673 39.1008 36.7525 37.9293 36.7525 36.7077V16.2374C36.7526 15.0194 36.2701 13.851 35.4108 12.9878C34.5514 12.1246 33.3852 11.637 32.1672 11.6316H7.72765ZM32.6585 8.56103H7.71946C7.55343 8.55963 7.39409 8.49544 7.27346 8.38134C7.15283 8.26725 7.07987 8.11172 7.06924 7.94603C7.05861 7.78034 7.1111 7.61676 7.21615 7.48819C7.32121 7.35962 7.47104 7.27558 7.63553 7.25298L29.7374 4.0985C30.1002 4.04659 30.47 4.07326 30.8217 4.1767C31.1734 4.28013 31.4987 4.45792 31.7757 4.69803C32.0527 4.93814 32.2749 5.23496 32.4272 5.5684C32.5795 5.90184 32.6584 6.2641 32.6585 6.63068V8.56103Z" fill="white"/>
</svg>
