<svg width="45" height="45" viewBox="0 0 45 45" fill="none" xmlns="http://www.w3.org/2000/svg">
<path d="M42.7062 15.166C45.3543 12.5179 44.1467 9.4249 42.7062 7.92078L36.3507 1.56535C33.6814 -1.08275 30.6097 0.124786 29.1055 1.56535L25.5041 5.18794H20.0173C15.9922 5.18794 13.6618 7.30642 12.4755 9.74267L3.06947 19.1487V27.6226L1.56535 29.1055C-1.08275 31.7748 0.124786 34.8466 1.56535 36.3507L7.92078 42.7062C9.06476 43.8501 10.2935 44.2738 11.4586 44.2738C12.9628 44.2738 14.3398 43.5324 15.166 42.7062L20.8859 36.9651H28.4912C32.0926 36.9651 33.9145 34.7195 34.5712 32.5163C36.9651 31.8807 38.2785 30.0589 38.8082 28.2793C42.0918 27.4319 43.3205 24.3178 43.3205 22.1358V15.7803H42.0706L42.7062 15.166ZM39.0836 22.1358C39.0836 23.0891 38.6811 24.2542 36.9651 24.2542H34.8466V26.3727C34.8466 27.326 34.4441 28.4912 32.7281 28.4912H30.6097V30.6097C30.6097 31.563 30.2071 32.7281 28.4912 32.7281H19.1487L12.2001 39.6767C11.5434 40.2911 11.162 39.931 10.929 39.6979L4.59477 33.3849C3.98041 32.7281 4.34055 32.3468 4.57359 32.1138L7.30642 29.3598V20.8859L11.5434 16.6489V20.0173C11.5434 22.5806 13.2382 26.3727 17.8988 26.3727C22.5595 26.3727 24.2542 22.5806 24.2542 20.0173H39.0836V22.1358ZM39.6979 12.1577L36.0965 15.7803H20.0173V20.0173C20.0173 20.9706 19.6148 22.1358 17.8988 22.1358C16.1828 22.1358 15.7803 20.9706 15.7803 20.0173V13.6618C15.7803 12.6874 16.1405 9.4249 20.0173 9.4249H27.2413L32.0714 4.59477C32.7281 3.98041 33.1095 4.34055 33.3425 4.57359L39.6767 10.8866C40.2911 11.5434 39.931 11.9247 39.6979 12.1577Z" fill="white"/>
</svg>
