<svg width="45" height="45" viewBox="0 0 45 45" fill="none" xmlns="http://www.w3.org/2000/svg">
<path d="M5 38.8486L38.8486 5M10.3236 25.988C7.17094 21.4597 5.3288 16.1493 5 10.6414C5 9.64397 5.39624 8.68736 6.10156 7.98204C6.80688 7.27672 7.76349 6.88048 8.76096 6.88048H16.2829L20.0438 16.2829L15.3426 19.1036C15.5457 19.5173 15.762 19.9216 15.9914 20.3165M19.2841 24.5984C20.8801 26.1889 22.7246 27.5087 24.745 28.506L27.5658 23.8048L36.9682 27.5658V35.0877C36.9682 36.0851 36.5719 37.0418 35.8666 37.7471C35.1613 38.4524 34.2047 38.8486 33.2072 38.8486C25.8698 38.4095 18.9485 35.2935 13.7555 30.0912" stroke="white" stroke-width="3.58309" stroke-linecap="round" stroke-linejoin="round"/>
</svg>
