<svg width="36" height="35" viewBox="0 0 36 35" fill="none" xmlns="http://www.w3.org/2000/svg">
<rect x="0.726562" y="0.144531" width="34.6172" height="34.6172" rx="9" fill="#E6E6E6"/>
<path d="M29.3665 10.7031C28.5323 11.0969 27.6331 11.3556 26.7015 11.4794C27.6548 10.8831 28.3915 9.93813 28.7381 8.80187C27.839 9.36438 26.8423 9.75813 25.7915 9.98313C24.9356 9.01563 23.7331 8.45312 22.3681 8.45312C19.8223 8.45312 17.7423 10.6131 17.7423 13.2794C17.7423 13.6619 17.7856 14.0331 17.8615 14.3819C14.0048 14.1794 10.5706 12.2556 8.28479 9.34188C7.88396 10.0506 7.65646 10.8831 7.65646 11.7606C7.65646 13.4369 8.46896 14.9219 9.72562 15.7656C8.95646 15.7656 8.24146 15.5406 7.61313 15.2031V15.2369C7.61313 17.5769 9.21646 19.5344 11.3398 19.9731C10.6581 20.1669 9.94239 20.1938 9.24896 20.0519C9.5432 21.0109 10.1195 21.8501 10.8967 22.4514C11.674 23.0528 12.6132 23.386 13.5823 23.4044C11.9396 24.7549 9.90329 25.4849 7.80812 25.4744C7.43979 25.4744 7.07146 25.4519 6.70312 25.4069C8.76146 26.7794 11.2098 27.5781 13.8315 27.5781C22.3681 27.5781 27.059 20.2206 27.059 13.8419C27.059 13.6281 27.059 13.4256 27.0481 13.2119C27.9581 12.5369 28.7381 11.6819 29.3665 10.7031Z" fill="#3C1C79"/>
</svg>
