<svg width="36" height="36" viewBox="0 0 36 36" fill="none" xmlns="http://www.w3.org/2000/svg">
<rect x="0.726562" y="0.761719" width="34.6172" height="34.6172" rx="9" fill="#E6E6E6"/>
<path d="M27.5382 24.4513H25.2572C24.3942 24.4513 24.1342 23.7523 22.5872 22.2043C21.2352 20.9013 20.6642 20.7393 20.3222 20.7393C19.8492 20.7393 19.7202 20.8693 19.7202 21.5203V23.5723C19.7202 24.1273 19.5402 24.4523 18.0902 24.4523C16.6834 24.3578 15.3193 23.9304 14.1101 23.2054C12.9009 22.4804 11.8813 21.4785 11.1352 20.2823C9.36354 18.0773 8.13086 15.4894 7.53516 12.7243C7.53516 12.3823 7.66516 12.0723 8.31716 12.0723H10.5972C11.1832 12.0723 11.3942 12.3333 11.6242 12.9363C12.7312 16.1943 14.6202 19.0283 15.3872 19.0283C15.6812 19.0283 15.8092 18.8983 15.8092 18.1653V14.8093C15.7122 13.2783 14.8992 13.1493 14.8992 12.5953C14.9094 12.4491 14.9763 12.3127 15.0855 12.2151C15.1948 12.1174 15.3378 12.0662 15.4842 12.0723H19.0682C19.5582 12.0723 19.7202 12.3163 19.7202 12.9023V17.4323C19.7202 17.9213 19.9302 18.0833 20.0782 18.0833C20.3722 18.0833 20.5982 17.9213 21.1372 17.3833C22.2925 15.9743 23.2364 14.4044 23.9392 12.7233C24.0111 12.5214 24.1471 12.3487 24.3264 12.2313C24.5056 12.1139 24.7184 12.0584 24.9322 12.0733H27.2132C27.8972 12.0733 28.0422 12.4153 27.8972 12.9033C27.0675 14.7617 26.041 16.5258 24.8352 18.1653C24.5892 18.5403 24.4912 18.7353 24.8352 19.1753C25.0612 19.5173 25.8612 20.1853 26.3982 20.8203C27.1802 21.6003 27.8292 22.5023 28.3202 23.4903C28.5162 24.1263 28.1892 24.4513 27.5382 24.4513Z" fill="#3C1C79"/>
</svg>
