<svg width="36" height="35" viewBox="0 0 36 35" fill="none" xmlns="http://www.w3.org/2000/svg">
<rect x="0.625" y="0.144531" width="34.6172" height="34.6172" rx="9" fill="#E6E6E6"/>
<path d="M17.9336 7.49316C12.4336 7.49316 7.93359 11.9832 7.93359 17.5132C7.93359 22.5132 11.5936 26.6632 16.3736 27.4132V20.4132H13.8336V17.5132H16.3736V15.3032C16.3736 12.7932 17.8636 11.4132 20.1536 11.4132C21.2436 11.4132 22.3836 11.6032 22.3836 11.6032V14.0732H21.1236C19.8836 14.0732 19.4936 14.8432 19.4936 15.6332V17.5132H22.2736L21.8236 20.4132H19.4936V27.4132C21.85 27.041 23.9958 25.8387 25.5435 24.0232C27.0912 22.2078 27.9389 19.8988 27.9336 17.5132C27.9336 11.9832 23.4336 7.49316 17.9336 7.49316Z" fill="#3C1C79"/>
</svg>
