<svg width="36" height="36" viewBox="0 0 36 36" fill="none" xmlns="http://www.w3.org/2000/svg">
<rect x="0.625" y="0.761719" width="34.6172" height="34.6172" rx="9" fill="#E6E6E6"/>
<path d="M13.2956 11.4052C13.2953 11.8693 13.1019 12.3143 12.758 12.6424C12.414 12.9704 11.9476 13.1545 11.4613 13.1543C10.9751 13.1541 10.5089 12.9695 10.1652 12.6411C9.82158 12.3128 9.62866 11.8676 9.62891 11.4034C9.62915 10.9393 9.82254 10.4943 10.1665 10.1662C10.5105 9.83822 10.9769 9.65407 11.4632 9.6543C11.9494 9.65453 12.4156 9.83913 12.7593 10.1675C13.1029 10.4958 13.2958 10.941 13.2956 11.4052ZM13.3506 14.4502H9.68391V25.4052H13.3506V14.4502ZM19.1439 14.4502H15.4956V25.4052H19.1072V19.6564C19.1072 16.4539 23.4797 16.1564 23.4797 19.6564V25.4052H27.1006V18.4664C27.1006 13.0677 20.6289 13.2689 19.1072 15.9202L19.1439 14.4502Z" fill="#3C1C79"/>
</svg>
