<svg width="586" height="12" viewBox="0 0 586 12" fill="none" xmlns="http://www.w3.org/2000/svg">
<path d="M574.899 5.99995C574.899 8.81728 577.183 11.1012 580 11.1012C582.817 11.1012 585.101 8.81728 585.101 5.99995C585.101 3.18262 582.817 0.898728 580 0.898729C577.183 0.898729 574.899 3.18262 574.899 5.99995ZM8.3618e-08 6.95648L4.83333 6.95648L4.83333 5.04352L-8.3618e-08 5.04352L8.3618e-08 6.95648ZM14.5 6.95648L24.1667 6.95648L24.1667 5.04352L14.5 5.04352L14.5 6.95648ZM33.8333 6.95648L43.5 6.95648L43.5 5.04352L33.8333 5.04352L33.8333 6.95648ZM53.1667 6.95647L62.8333 6.95647L62.8333 5.04352L53.1667 5.04352L53.1667 6.95647ZM72.5 6.95647L82.1667 6.95647L82.1667 5.04351L72.5 5.04351L72.5 6.95647ZM91.8333 6.95647L101.5 6.95647L101.5 5.04351L91.8333 5.04351L91.8333 6.95647ZM111.167 6.95647L120.833 6.95647L120.833 5.04351L111.167 5.04351L111.167 6.95647ZM130.5 6.95647L140.167 6.95647L140.167 5.04351L130.5 5.04351L130.5 6.95647ZM149.833 6.95647L159.5 6.95646L159.5 5.04351L149.833 5.04351L149.833 6.95647ZM169.167 6.95646L178.833 6.95646L178.833 5.04351L169.167 5.04351L169.167 6.95646ZM188.5 6.95646L198.167 6.95646L198.167 5.0435L188.5 5.0435L188.5 6.95646ZM207.833 6.95646L217.5 6.95646L217.5 5.0435L207.833 5.0435L207.833 6.95646ZM227.167 6.95646L236.833 6.95646L236.833 5.0435L227.167 5.0435L227.167 6.95646ZM246.5 6.95646L256.167 6.95646L256.167 5.0435L246.5 5.0435L246.5 6.95646ZM265.833 6.95646L275.5 6.95645L275.5 5.0435L265.833 5.0435L265.833 6.95646ZM285.167 6.95645L294.833 6.95645L294.833 5.0435L285.167 5.0435L285.167 6.95645ZM304.5 6.95645L314.167 6.95645L314.167 5.04349L304.5 5.04349L304.5 6.95645ZM323.833 6.95645L333.5 6.95645L333.5 5.04349L323.833 5.04349L323.833 6.95645ZM343.167 6.95645L352.833 6.95645L352.833 5.04349L343.167 5.04349L343.167 6.95645ZM362.5 6.95645L372.167 6.95645L372.167 5.04349L362.5 5.04349L362.5 6.95645ZM381.833 6.95645L391.5 6.95644L391.5 5.04349L381.833 5.04349L381.833 6.95645ZM401.167 6.95644L410.833 6.95644L410.833 5.04349L401.167 5.04349L401.167 6.95644ZM420.5 6.95644L430.167 6.95644L430.167 5.04348L420.5 5.04348L420.5 6.95644ZM439.833 6.95644L449.5 6.95644L449.5 5.04348L439.833 5.04348L439.833 6.95644ZM459.167 6.95644L468.833 6.95644L468.833 5.04348L459.167 5.04348L459.167 6.95644ZM478.5 6.95644L488.166 6.95644L488.166 5.04348L478.5 5.04348L478.5 6.95644ZM497.833 6.95644L507.5 6.95643L507.5 5.04348L497.833 5.04348L497.833 6.95644ZM517.166 6.95643L526.833 6.95643L526.833 5.04348L517.166 5.04348L517.166 6.95643ZM536.5 6.95643L546.167 6.95643L546.167 5.04347L536.5 5.04347L536.5 6.95643ZM555.833 6.95643L565.5 6.95643L565.5 5.04347L555.833 5.04347L555.833 6.95643ZM575.167 6.95643L580 6.95643L580 5.04347L575.167 5.04347L575.167 6.95643Z" fill="#8A4195"/>
</svg>
