<svg width="1400" height="1218" viewBox="0 0 1400 1218" fill="none" xmlns="http://www.w3.org/2000/svg">
<g clip-path="url(#clip0_33_167)">
<path fill-rule="evenodd" clip-rule="evenodd" d="M1088.46 -109.391C1048.52 -71.0051 1038.35 -15.3745 1027.94 34.489C1018.52 79.5506 1025.17 120.603 1031.64 162.547C1038.76 208.661 1027.84 271.915 1067.65 291.735C1108.39 312.014 1171.89 305.385 1222.02 302.407C1270.36 299.535 1309.1 308.298 1351.63 274.864C1396.97 239.221 1358.77 170.974 1386.66 121.695C1411.68 77.4895 1491.28 63.4565 1497.6 16.9263C1503.71 -28.0981 1441.51 -36.1005 1411.66 -62.4679C1388.45 -82.9732 1368.99 -105.344 1341.68 -120.816C1307.94 -139.934 1276.59 -165.216 1233.71 -163.282C1184.63 -161.067 1128.31 -147.693 1088.46 -109.391Z" stroke="url(#paint0_linear_33_167)"/>
<path fill-rule="evenodd" clip-rule="evenodd" d="M1173.39 -132.766C1125.36 -105.156 1102.07 -53.6242 1079.92 -7.74982C1059.91 33.7069 1056.45 75.1501 1052.61 117.417C1048.39 163.885 1022.52 222.631 1056.37 251.477C1091.01 280.989 1154.23 289.884 1203.6 299.095C1251.2 307.976 1286.68 325.831 1336.02 303.652C1388.62 280.007 1368.03 204.558 1406.99 163.468C1441.94 126.608 1522.58 132.206 1539.94 88.577C1556.74 46.3596 1498.31 23.5785 1475.71 -9.21367C1458.13 -34.7155 1444.65 -61.1226 1421.88 -82.7287C1393.75 -109.427 1369.43 -141.529 1327.36 -150.001C1279.19 -159.7 1221.31 -160.316 1173.39 -132.766Z" stroke="url(#paint1_linear_33_167)"/>
<path fill-rule="evenodd" clip-rule="evenodd" d="M301.224 -176.847C260.79 -214.712 204.702 -221.934 154.359 -229.714C108.865 -236.744 68.2187 -227.947 26.6737 -219.273C-19.0012 -209.738 -82.7425 -217.322 -100.441 -176.518C-118.548 -134.772 -108.588 -71.7068 -102.976 -21.7998C-97.5648 26.32 -104.278 65.4654 -68.6527 106.176C-30.6734 149.578 35.4691 107.844 86.1479 133.101C131.608 155.758 149.81 234.517 196.608 238.377C241.892 242.112 246.61 179.573 271.371 148.38C290.627 124.122 311.943 103.512 325.956 75.4271C343.273 40.7222 366.87 8.0859 362.683 -34.6258C357.889 -83.5268 341.57 -139.064 301.224 -176.847Z" stroke="url(#paint2_linear_33_167)"/>
<path fill-rule="evenodd" clip-rule="evenodd" d="M329.035 -93.2657C298.937 -139.771 246.251 -160.319 199.275 -180.02C156.823 -197.825 115.255 -199.099 72.8446 -200.71C26.2185 -202.482 -33.8072 -225.228 -60.8318 -189.903C-88.4807 -153.762 -94.0374 -90.1574 -100.638 -40.3715C-107.003 7.63143 -122.966 43.9989 -98.2217 92.1055C-71.842 143.391 2.41868 118.857 45.5021 155.601C84.1491 188.56 82.8015 269.384 127.284 284.427C170.327 298.982 190.002 239.431 221.56 215.138C246.102 196.245 271.763 181.39 292.141 157.518C317.322 128.019 348.1 102.044 354.347 59.5849C361.498 10.9727 359.068 -46.8615 329.035 -93.2657Z" stroke="url(#paint3_linear_33_167)"/>
<g opacity="0.6" filter="url(#filter0_f_33_167)">
<path fill-rule="evenodd" clip-rule="evenodd" d="M1685.76 797.693C1672.35 829.633 1608.37 832.079 1552.25 835.473C1501.53 838.539 1441.11 827.347 1379.68 816.201C1312.14 803.947 1238.81 806.15 1175.47 767.112C1110.67 727.173 1060.16 669.651 1017.3 623.959C975.975 579.903 928.247 543.226 932.703 508.293C937.455 471.052 1063.23 514.601 1102.27 495.083C1137.3 477.575 1081.53 406.172 1137.08 406.132C1190.83 406.094 1259.46 464.237 1322.13 494.927C1370.88 518.793 1418.58 539.443 1464.5 566.451C1521.24 599.824 1583.89 631.76 1621.35 670.91C1664.24 715.735 1699.14 765.822 1685.76 797.693Z" fill="url(#paint4_linear_33_167)"/>
</g>
<g opacity="0.3" filter="url(#filter1_f_33_167)">
<path fill-rule="evenodd" clip-rule="evenodd" d="M642.69 691.91C637.593 704.047 613.282 704.977 591.956 706.266C572.683 707.432 549.725 703.178 526.381 698.943C500.717 694.287 472.852 695.124 448.785 680.29C424.162 665.113 404.966 643.255 388.681 625.893C372.978 609.152 354.842 595.215 356.535 581.941C358.341 567.79 406.133 584.338 420.971 576.921C434.28 570.269 413.088 543.136 434.197 543.121C454.622 543.107 480.699 565.201 504.515 576.862C523.037 585.931 541.164 593.778 558.613 604.041C580.175 616.722 603.98 628.857 618.215 643.734C634.512 660.767 647.775 679.8 642.69 691.91Z" fill="url(#paint5_linear_33_167)"/>
</g>
<g opacity="0.6" filter="url(#filter2_f_33_167)">
<path fill-rule="evenodd" clip-rule="evenodd" d="M92.0866 717.74C68.7386 727.408 39.967 711.776 14.0394 698.577C-9.39147 686.649 -29.1218 666.326 -49.3137 645.758C-71.513 623.144 -104.16 604.98 -109.801 572.428C-115.571 539.124 -105.53 502.292 -98.7253 472.325C-92.1644 443.431 -92.4144 415.911 -71.2565 402.681C-48.7005 388.577 -18.7824 439.226 8.70937 441.342C33.3702 443.24 48.8065 399.324 72.6397 413.755C95.7015 427.719 93.0817 469.517 103.039 498.459C110.782 520.966 119.853 541.879 124.655 564.946C130.59 593.451 139.847 622.898 134.333 648.767C128.02 678.384 115.384 708.093 92.0866 717.74Z" fill="url(#paint6_linear_33_167)"/>
</g>
</g>
<defs>
<filter id="filter0_f_33_167" x="632.414" y="106.132" width="1356.25" height="1029.85" filterUnits="userSpaceOnUse" color-interpolation-filters="sRGB">
<feFlood flood-opacity="0" result="BackgroundImageFix"/>
<feBlend mode="normal" in="SourceGraphic" in2="BackgroundImageFix" result="shape"/>
<feGaussianBlur stdDeviation="150" result="effect1_foregroundBlur_33_167"/>
</filter>
<filter id="filter1_f_33_167" x="242.429" y="429.124" width="515.359" height="391.334" filterUnits="userSpaceOnUse" color-interpolation-filters="sRGB">
<feFlood flood-opacity="0" result="BackgroundImageFix"/>
<feBlend mode="normal" in="SourceGraphic" in2="BackgroundImageFix" result="shape"/>
<feGaussianBlur stdDeviation="56.9985" result="effect1_foregroundBlur_33_167"/>
</filter>
<filter id="filter2_f_33_167" x="-311.52" y="200.205" width="647.541" height="720.539" filterUnits="userSpaceOnUse" color-interpolation-filters="sRGB">
<feFlood flood-opacity="0" result="BackgroundImageFix"/>
<feBlend mode="normal" in="SourceGraphic" in2="BackgroundImageFix" result="shape"/>
<feGaussianBlur stdDeviation="100" result="effect1_foregroundBlur_33_167"/>
</filter>
<linearGradient id="paint0_linear_33_167" x1="989.84" y1="421.993" x2="1454.93" y2="125.195" gradientUnits="userSpaceOnUse">
<stop stop-color="#270F69"/>
<stop offset="1" stop-color="#270F69" stop-opacity="0"/>
</linearGradient>
<linearGradient id="paint1_linear_33_167" x1="949.415" y1="359.1" x2="1472.4" y2="183.344" gradientUnits="userSpaceOnUse">
<stop stop-color="#270F69"/>
<stop offset="1" stop-color="#270F69" stop-opacity="0"/>
</linearGradient>
<linearGradient id="paint2_linear_33_167" x1="-234.612" y1="-247.37" x2="86.2444" y2="201.461" gradientUnits="userSpaceOnUse">
<stop stop-color="#270F69"/>
<stop offset="1" stop-color="#270F69" stop-opacity="0"/>
</linearGradient>
<linearGradient id="paint3_linear_33_167" x1="-173.933" y1="-291.047" x2="29.0947" y2="221.963" gradientUnits="userSpaceOnUse">
<stop stop-color="#270F69"/>
<stop offset="1" stop-color="#270F69" stop-opacity="0"/>
</linearGradient>
<linearGradient id="paint4_linear_33_167" x1="1249.09" y1="904.452" x2="1142.99" y2="482.284" gradientUnits="userSpaceOnUse">
<stop stop-color="#EE86FF"/>
<stop offset="1" stop-color="#270F69"/>
</linearGradient>
<linearGradient id="paint5_linear_33_167" x1="476.759" y1="732.478" x2="436.442" y2="572.058" gradientUnits="userSpaceOnUse">
<stop stop-color="#EE86FF"/>
<stop offset="1" stop-color="#270F69"/>
</linearGradient>
<linearGradient id="paint6_linear_33_167" x1="-153.917" y1="648.145" x2="-88.9825" y2="412.925" gradientUnits="userSpaceOnUse">
<stop stop-color="#EE86FF"/>
<stop offset="1" stop-color="#270F69"/>
</linearGradient>
<clipPath id="clip0_33_167">
<rect width="1400" height="1218" fill="white"/>
</clipPath>
</defs>
</svg>
