<svg xmlns="http://www.w3.org/2000/svg" width="1065" height="223" fill="none"><rect width="406.657" height="151.928" x=".75" y="32.968" fill="#3C1C79" rx="75.964"/><path fill="#fff" d="M125.464 72.748h18.204c1.591 0 2.138.547 2.138 2.139v4.476c0 1.592-.547 2.09-2.138 2.09h-12.335l-.348 3.481h3.332c8.704 0 13.031 4.825 13.031 11.838 0 3.531-1.193 6.416-3.581 8.654-2.437 2.288-5.72 3.432-9.898 3.432-7.958 0-12.335-2.587-14.473-8.207-.547-1.542-.15-2.139 1.293-2.686l5.322-1.99c1.343-.546 1.989-.298 2.586 1.244.746 1.84 2.388 2.786 4.825 2.786 2.437 0 3.68-1.244 3.68-3.681 0-2.238-1.343-3.382-3.979-3.382h-10.345c-1.791 0-2.338-.696-2.189-2.437l1.542-14.772c.249-2.239.995-2.985 3.333-2.985Zm35.327 28.649-3.68 10.893c-.547 1.392-1.094 1.89-2.636 1.89h-2.786c-1.243 0-1.541-.299-1.392-1.443l1.392-11.34c.199-1.84.796-2.536 2.537-2.536h4.626c1.89 0 2.536.845 1.939 2.536Zm4.27-5.52V84.983c0-7.958 5.222-12.932 14.175-12.932s14.175 4.974 14.175 12.932v10.892c0 8.108-5.222 12.982-14.175 12.982s-14.175-4.874-14.175-12.982Zm18.502.397V84.586c0-2.437-1.591-3.83-4.327-3.83-2.736 0-4.327 1.393-4.327 3.83v11.688c0 2.437 1.591 3.88 4.327 3.88 2.736 0 4.327-1.443 4.327-3.88Zm14.744-.398V84.984c0-7.958 5.223-12.932 14.176-12.932 8.952 0 14.175 4.974 14.175 12.932v10.892c0 8.108-5.223 12.982-14.175 12.982-8.953 0-14.176-4.874-14.176-12.982Zm18.503.398V84.586c0-2.437-1.592-3.83-4.327-3.83-2.736 0-4.328 1.393-4.328 3.83v11.688c0 2.437 1.592 3.88 4.328 3.88 2.735 0 4.327-1.443 4.327-3.88Zm14.744-.398V84.984c0-7.958 5.222-12.932 14.175-12.932s14.175 4.974 14.175 12.932v10.892c0 8.108-5.222 12.982-14.175 12.982s-14.175-4.874-14.175-12.982Zm18.502.398V84.586c0-2.437-1.591-3.83-4.327-3.83-2.736 0-4.327 1.393-4.327 3.83v11.688c0 2.437 1.591 3.88 4.327 3.88 2.736 0 4.327-1.443 4.327-3.88Zm30.611-8.555h6.267c1.591 0 2.089.547 2.089 2.139v3.93c0 1.59-.498 2.138-2.089 2.138h-6.267v6.267c0 1.592-.547 2.089-2.139 2.089h-3.929c-1.592 0-2.139-.497-2.139-2.089v-6.267h-6.217c-1.592 0-2.089-.547-2.089-2.139v-3.929c0-1.592.497-2.139 2.089-2.139h6.217v-6.217c0-1.591.547-2.089 2.139-2.089h3.929c1.592 0 2.139.498 2.139 2.09v6.216Z"/><path fill="#fff" d="M106.631 143.594v-17.28h3.264v7.968l6.576-7.968h3.984l-7.224 8.52 7.68 8.76h-4.128l-6.888-7.872v7.872h-3.264Zm13.8 0v-2.712c.472.088.836.084 1.092-.012.256-.104.448-.304.576-.6.136-.304.252-.716.348-1.236.128-.688.24-1.492.336-2.412.104-.92.192-1.892.264-2.916.072-1.032.136-2.056.192-3.072h9.792v12.96h-3.264v-9.912h-3.672c-.032.416-.076.912-.132 1.488a94.94 94.94 0 0 1-.168 1.8c-.056.616-.12 1.208-.192 1.776-.072.56-.148 1.04-.228 1.44-.192 1.016-.476 1.816-.852 2.4a2.486 2.486 0 0 1-1.548 1.116c-.656.168-1.504.132-2.544-.108Zm27.509-12.96v12.96h-3.12v-7.92l-5.856 7.92h-2.592v-12.96h3.12v7.656l5.88-7.656h2.568Zm9.386 13.32c-1.328 0-2.5-.284-3.516-.852a6.3 6.3 0 0 1-2.376-2.364c-.568-1.008-.852-2.16-.852-3.456 0-1.416.28-2.648.84-3.696.56-1.048 1.332-1.86 2.316-2.436.984-.584 2.116-.876 3.396-.876 1.36 0 2.516.32 3.468.96.952.64 1.656 1.54 2.112 2.7.456 1.16.616 2.524.48 4.092h-3.228v-1.2c0-1.32-.212-2.268-.636-2.844-.416-.584-1.1-.876-2.052-.876-1.112 0-1.932.34-2.46 1.02-.52.672-.78 1.668-.78 2.988 0 1.208.26 2.144.78 2.808.528.656 1.3.984 2.316.984.64 0 1.188-.14 1.644-.42.456-.28.804-.684 1.044-1.212l3.264.936c-.488 1.184-1.26 2.104-2.316 2.76a6.365 6.365 0 0 1-3.444.984Zm-4.296-5.928v-2.424h8.592v2.424h-8.592Zm12.85 5.568v-12.96h3.264v4.944h5.328v-4.944h3.264v12.96h-3.264v-4.968h-5.328v4.968h-3.264Zm18.379 0v-10.08h-4.248v-2.88h11.761v2.88h-4.249v10.08h-3.264Zm15.391.36c-1.304 0-2.448-.292-3.432-.876a6.133 6.133 0 0 1-2.304-2.412c-.544-1.032-.816-2.216-.816-3.552 0-1.352.28-2.54.84-3.564a6.112 6.112 0 0 1 2.316-2.412c.984-.576 2.116-.864 3.396-.864 1.304 0 2.448.292 3.432.876a6.087 6.087 0 0 1 2.316 2.424c.552 1.024.828 2.204.828 3.54 0 1.344-.28 2.532-.84 3.564a6.108 6.108 0 0 1-2.316 2.412c-.984.576-2.124.864-3.42.864Zm0-3.048c1.048 0 1.828-.352 2.34-1.056.52-.712.78-1.624.78-2.736 0-1.152-.264-2.072-.792-2.76-.52-.688-1.296-1.032-2.328-1.032-.712 0-1.296.16-1.752.48-.456.32-.796.764-1.02 1.332-.216.568-.324 1.228-.324 1.98 0 1.16.26 2.084.78 2.772.528.68 1.3 1.02 2.316 1.02Zm9.191 2.688v-12.96h6.072c.48 0 .9.028 1.26.084.36.048.66.108.9.18.592.176 1.132.52 1.62 1.032.488.512.732 1.256.732 2.232 0 .576-.092 1.044-.276 1.404a2.601 2.601 0 0 1-.732.876 3.132 3.132 0 0 1-.432.264 2.406 2.406 0 0 1-.432.168c.336.048.64.136.912.264.432.192.808.496 1.128.912.32.408.48 1.016.48 1.824 0 .864-.212 1.6-.636 2.208-.416.608-1.044 1.032-1.884 1.272-.288.08-.628.14-1.02.18-.384.04-.788.06-1.212.06h-6.48Zm3.312-2.472h2.928c.168 0 .34-.016.516-.048.184-.04.348-.088.492-.144a.875.875 0 0 0 .492-.492c.104-.232.156-.468.156-.708 0-.336-.076-.6-.228-.792a1.237 1.237 0 0 0-.492-.408 1.297 1.297 0 0 0-.504-.12 4.961 4.961 0 0 0-.432-.024h-2.928v2.736Zm0-5.256h1.992c.256 0 .496-.012.72-.036.232-.032.424-.084.576-.156a.96.96 0 0 0 .468-.456c.104-.216.156-.456.156-.72 0-.28-.06-.532-.18-.756a.876.876 0 0 0-.564-.468c-.176-.064-.4-.1-.672-.108a22.698 22.698 0 0 0-.504-.012h-1.992v2.712Zm15.11 7.728v-12.96h6.072c.48 0 .9.028 1.26.084.36.048.66.108.9.18.592.176 1.132.52 1.62 1.032.488.512.732 1.256.732 2.232 0 .576-.092 1.044-.276 1.404a2.601 2.601 0 0 1-.732.876 3.132 3.132 0 0 1-.432.264 2.406 2.406 0 0 1-.432.168c.336.048.64.136.912.264.432.192.808.496 1.128.912.32.408.48 1.016.48 1.824 0 .864-.212 1.6-.636 2.208-.416.608-1.044 1.032-1.884 1.272-.288.08-.628.14-1.02.18-.384.04-.788.06-1.212.06h-6.48Zm3.312-2.472h2.928c.168 0 .34-.016.516-.048.184-.04.348-.088.492-.144a.875.875 0 0 0 .492-.492c.104-.232.156-.468.156-.708 0-.336-.076-.6-.228-.792a1.237 1.237 0 0 0-.492-.408 1.297 1.297 0 0 0-.504-.12 4.961 4.961 0 0 0-.432-.024h-2.928v2.736Zm0-5.256h1.992c.256 0 .496-.012.72-.036.232-.032.424-.084.576-.156a.96.96 0 0 0 .468-.456c.104-.216.156-.456.156-.72 0-.28-.06-.532-.18-.756a.876.876 0 0 0-.564-.468c-.176-.064-.4-.1-.672-.108a22.698 22.698 0 0 0-.504-.012h-1.992v2.712Zm14.174 10.608v-5.4c.688 0 1.176-.24 1.464-.72.296-.48.528-1.336.696-2.568.096-.712.176-1.46.24-2.244a72.46 72.46 0 0 0 .18-2.412c.048-.824.092-1.656.132-2.496h10.008v10.44h1.32v5.4h-3.072v-2.88h-7.896v2.88h-3.072Zm4.176-5.4h5.28v-7.92h-3.912c-.024.44-.052.88-.084 1.32-.024.44-.056.876-.096 1.308l-.096 1.26c-.032.4-.068.784-.108 1.152-.072.704-.172 1.276-.3 1.716-.128.44-.356.828-.684 1.164Zm18.276 2.88c-1.328 0-2.5-.284-3.516-.852a6.3 6.3 0 0 1-2.376-2.364c-.568-1.008-.852-2.16-.852-3.456 0-1.416.28-2.648.84-3.696.56-1.048 1.332-1.86 2.316-2.436.984-.584 2.116-.876 3.396-.876 1.36 0 2.516.32 3.468.96.952.64 1.656 1.54 2.112 2.7.456 1.16.616 2.524.48 4.092h-3.228v-1.2c0-1.32-.212-2.268-.636-2.844-.416-.584-1.1-.876-2.052-.876-1.112 0-1.932.34-2.46 1.02-.52.672-.78 1.668-.78 2.988 0 1.208.26 2.144.78 2.808.528.656 1.3.984 2.316.984.64 0 1.188-.14 1.644-.42.456-.28.804-.684 1.044-1.212l3.264.936c-.488 1.184-1.26 2.104-2.316 2.76a6.365 6.365 0 0 1-3.444.984Zm-4.296-5.928v-2.424h8.592v2.424h-8.592Zm12.85 5.568v-12.96h3.264v4.944h5.328v-4.944h3.264v12.96h-3.264v-4.968h-5.328v4.968h-3.264Zm15.187 0v-12.96h3.264v4.128h2.088c.36 0 .78.008 1.26.024s.876.056 1.188.12c.76.168 1.4.436 1.92.804.52.368.912.844 1.176 1.428.272.576.408 1.264.408 2.064 0 1.152-.3 2.08-.9 2.784-.592.696-1.452 1.176-2.58 1.44a7.03 7.03 0 0 1-1.2.144c-.488.016-.912.024-1.272.024h-5.352Zm3.264-2.52h2.448c.144 0 .304-.008.48-.024s.352-.048.528-.096c.336-.096.632-.308.888-.636s.384-.7.384-1.116c0-.456-.132-.844-.396-1.164-.264-.328-.572-.54-.924-.636a2.797 2.797 0 0 0-.504-.096 4.85 4.85 0 0 0-.456-.024h-2.448v3.792Z" opacity=".7"/><rect width="406.657" height="151.928" x="312.719" y="71.797" fill="#270F69" rx="75.964" transform="rotate(-6.81 312.719 71.797)"/><path fill="#fff" d="M440.779 98.668c2.342 1.574 3.68 3.969 4.051 7.08.372 3.112-.623 5.685-2.99 7.671 3.465 1.339 5.426 3.91 5.88 7.713.826 6.914-3.153 11.346-12.043 12.408-7.605.909-12.787-1.378-15.601-6.902-.653-1.275-.315-2.217 1.015-2.827l4.633-2.306c1.466-.726 2.045-.495 2.826 1.015 1.044 2.029 2.853 2.915 5.372 2.614 2.568-.307 3.734-1.448 3.504-3.374-.23-1.926-1.435-2.784-3.608-2.524l-3.012.36c-1.581.188-2.139-.296-2.322-1.827l-.49-4.099c-.189-1.58.24-2.183 1.821-2.371l2.173-.26c2.222-.265 3.252-1.29 3.034-3.117-.219-1.828-1.461-2.581-3.683-2.315-2.617.312-3.604 1.281-4.259 3.764-.36 1.596-1.01 2.024-2.508 1.652l-5.046-1.15c-1.485-.274-2.024-1.011-1.652-2.508 1.483-6.038 5.981-9.48 13.537-10.383 3.902-.466 7.026.113 9.368 1.686Zm10.396 19.947-1.292-10.815c-.944-7.902 3.652-13.46 12.542-14.522 8.889-1.062 14.665 3.258 15.609 11.16l1.291 10.815c.962 8.05-3.646 13.51-12.535 14.571-8.89 1.062-14.654-3.159-15.615-11.209Zm18.419-1.799-1.386-11.606c-.289-2.42-2.035-3.614-4.751-3.289-2.716.324-4.132 1.896-3.843 4.316l1.387 11.606c.289 2.42 2.04 3.663 4.756 3.339 2.717-.325 4.126-1.946 3.837-4.366Zm14.593-2.143-1.292-10.816c-.944-7.902 3.652-13.46 12.542-14.522 8.889-1.061 14.665 3.258 15.608 11.16l1.292 10.815c.962 8.05-3.646 13.51-12.535 14.571-8.89 1.062-14.654-3.158-15.615-11.208Zm18.419-1.8-1.386-11.605c-.289-2.42-2.035-3.614-4.751-3.29-2.716.324-4.132 1.896-3.843 4.316l1.387 11.606c.289 2.42 2.04 3.663 4.756 3.339 2.717-.325 4.126-1.946 3.837-4.366Zm24.487 2.235-2.362 11.252c-.379 1.448-.863 2.007-2.394 2.19l-2.765.33c-1.235.147-1.567-.113-1.554-1.267l.038-11.425c-.021-1.851.489-2.613 2.218-2.82l4.593-.549c1.876-.224 2.619.539 2.226 2.289Zm3.585-5.988-1.292-10.816c-.944-7.902 3.652-13.46 12.542-14.521 8.889-1.062 14.665 3.257 15.608 11.16l1.292 10.815c.962 8.05-3.646 13.509-12.535 14.571-8.89 1.062-14.654-3.159-15.615-11.209Zm18.419-1.799-1.386-11.606c-.289-2.42-2.035-3.614-4.751-3.29-2.716.325-4.132 1.896-3.843 4.316l1.387 11.606c.289 2.42 2.04 3.664 4.756 3.339 2.717-.324 4.126-1.945 3.837-4.365Zm14.593-2.144-1.292-10.816c-.944-7.901 3.652-13.46 12.542-14.521 8.889-1.062 14.665 3.257 15.608 11.16l1.292 10.815c.962 8.05-3.646 13.509-12.535 14.571-8.89 1.062-14.654-3.159-15.615-11.209Zm18.419-1.799-1.386-11.606c-.289-2.42-2.035-3.614-4.751-3.29-2.716.325-4.132 1.897-3.843 4.316l1.387 11.606c.289 2.42 2.04 3.664 4.756 3.339 2.717-.324 4.126-1.945 3.837-4.365Zm14.593-2.144-1.292-10.815c-.944-7.902 3.652-13.46 12.542-14.522 8.889-1.062 14.665 3.258 15.608 11.16l1.292 10.815c.962 8.05-3.646 13.509-12.536 14.571-8.889 1.062-14.653-3.159-15.614-11.209Zm18.419-1.799-1.386-11.606c-.289-2.42-2.035-3.614-4.751-3.29-2.716.325-4.132 1.897-3.843 4.317l1.386 11.606c.29 2.419 2.041 3.663 4.757 3.339 2.716-.325 4.126-1.946 3.837-4.366Z"/><path fill="#fff" d="M418.699 170.914c-1.215.145-2.305.094-3.269-.153-.956-.249-1.782-.613-2.475-1.094-.695-.49-1.254-1.019-1.677-1.589l2.513-2.234c.238.375.555.736.951 1.083.396.348.899.614 1.51.799.61.185 1.352.225 2.226.121.826-.099 1.475-.297 1.947-.595.48-.299.809-.649.986-1.049a2.23 2.23 0 0 0 .205-1.221c-.065-.548-.278-.949-.639-1.204-.353-.256-.79-.41-1.312-.46a8.078 8.078 0 0 0-1.633-.011c-.55.05-.948.086-1.196.107a24.18 24.18 0 0 0-.49.046l-.226.028-.364-3.051.453-.054.619-.074c.214-.033.387-.062.522-.086.829-.14 1.502-.405 2.019-.797.525-.394.747-.936.664-1.627-.076-.635-.386-1.11-.931-1.423-.537-.315-1.223-.422-2.057-.323-.786.094-1.469.349-2.048.765-.572.406-.976.829-1.214 1.269l-2.501-2.119c.522-.691 1.257-1.318 2.204-1.883.948-.564 2.046-.921 3.293-1.07a8.364 8.364 0 0 1 2.252.034 6.125 6.125 0 0 1 2.06.66c.628.328 1.15.785 1.566 1.372.425.586.689 1.316.793 2.189a5.654 5.654 0 0 1-.142 2.144 4.42 4.42 0 0 1-.936 1.78c.753.232 1.36.627 1.821 1.184.462.557.747 1.289.855 2.194.135 1.136-.065 2.155-.602 3.057-.53.893-1.3 1.626-2.312 2.198-1.003.571-2.148.933-3.435 1.087Zm13.202-1.577c-.921.11-1.725.029-2.41-.244-.678-.281-1.219-.696-1.623-1.244a4.055 4.055 0 0 1-.723-1.908 4.697 4.697 0 0 1 .079-1.665c.124-.514.366-.982.726-1.404.368-.43.882-.814 1.543-1.151a12.082 12.082 0 0 1 1.648-.668c.643-.214 1.375-.43 2.195-.649l2.702-.746-1.091.783c-.091-.762-.34-1.301-.748-1.614-.408-.314-1.041-.42-1.899-.317-.477.057-.96.231-1.448.523-.489.292-.802.744-.938 1.357l-3.042-.58a5 5 0 0 1 1.524-2.816c.818-.775 2.002-1.254 3.551-1.439 1.136-.136 2.165-.082 3.089.162.923.245 1.663.769 2.218 1.572.311.447.519.905.624 1.376.104.471.192 1 .262 1.588l.939 7.864-2.836.339-.316-2.645.471.5c-.524.94-1.129 1.649-1.813 2.126-.677.467-1.572.767-2.684.9Zm.387-2.632c.595-.071 1.083-.234 1.464-.489.387-.264.684-.545.89-.844.214-.299.354-.546.419-.739.126-.369.172-.786.141-1.249a17.805 17.805 0 0 0-.092-1.174l.982.125c-.942.273-1.704.502-2.287.684-.583.174-1.053.327-1.407.458a8.499 8.499 0 0 0-.931.401 3.311 3.311 0 0 0-.725.51 1.505 1.505 0 0 0-.372.528 1.296 1.296 0 0 0-.062.599c.036.294.137.54.306.737.176.189.405.322.688.401.284.079.612.096.986.052Zm17.467.137-.489-4.099-2.074.248c-.27.032-.639.072-1.109.12-.463.04-.901.048-1.315.025-1.046-.061-1.941-.405-2.685-1.033-.736-.629-1.176-1.552-1.321-2.767-.142-1.184.058-2.174.599-2.972.542-.798 1.325-1.359 2.349-1.683a7.364 7.364 0 0 1 1.306-.301c.459-.071.835-.124 1.129-.159l5.314-.634 1.537 12.868-3.241.387Zm-8.293.991 2.338-5.114 3.337-.398-2.291 5.108-3.384.404Zm5.074-7.301 2.431-.291-.45-3.765-2.431.29c-.143.017-.3.044-.473.081a3.319 3.319 0 0 0-.513.158c-.215.09-.407.234-.577.431-.171.19-.301.415-.391.676-.09.252-.119.521-.085.807.054.453.236.822.544 1.108.307.277.633.444.978.499.172.028.343.04.512.036a5.22 5.22 0 0 0 .455-.03Zm9.767 5.528-1.537-12.868 6.029-.72a8.277 8.277 0 0 1 1.261-.066c.363.005.668.029.915.072.609.104 1.186.382 1.731.832.545.451.876 1.161.991 2.13.069.572.033 1.047-.107 1.426a2.599 2.599 0 0 1-.623.957c-.131.12-.263.225-.398.313-.134.089-.27.162-.409.219.34.007.652.059.937.154.452.139.861.396 1.228.771.367.367.597.952.693 1.755.103.857-.02 1.613-.369 2.267-.341.653-.915 1.149-1.72 1.487a6.256 6.256 0 0 1-.992.299c-.376.086-.775.154-1.196.204l-6.434.768Zm2.995-2.847 2.908-.347c.166-.02.335-.056.506-.109.178-.062.335-.129.472-.201a.878.878 0 0 0 .43-.547c.076-.243.099-.484.071-.722-.04-.333-.147-.587-.321-.759a1.231 1.231 0 0 0-.536-.347 1.305 1.305 0 0 0-.515-.059 5.097 5.097 0 0 0-.432.027l-2.907.347.324 2.717Zm-.623-5.219 1.978-.236c.254-.031.491-.071.71-.121.227-.06.412-.134.554-.224a.962.962 0 0 0 .411-.508c.077-.227.1-.471.069-.733a1.587 1.587 0 0 0-.268-.73.876.876 0 0 0-.616-.397 2.18 2.18 0 0 0-.68-.028c-.263.023-.43.039-.502.048l-1.978.236.322 2.693Zm17.006 6.114c-1.295.155-2.465.001-3.511-.462a6.135 6.135 0 0 1-2.574-2.122c-.663-.96-1.073-2.104-1.232-3.43-.16-1.343-.023-2.556.412-3.639a6.106 6.106 0 0 1 2.013-2.669c.909-.689 1.999-1.109 3.27-1.261 1.295-.155 2.465 0 3.512.463a6.09 6.09 0 0 1 2.587 2.132c.669.951 1.083 2.09 1.242 3.417.159 1.334.022 2.547-.412 3.638a6.112 6.112 0 0 1-2.013 2.67c-.909.689-2.007 1.11-3.294 1.263Zm-.361-3.026c1.04-.124 1.773-.566 2.198-1.326.432-.769.582-1.705.45-2.809-.137-1.144-.508-2.026-1.114-2.647-.598-.621-1.409-.871-2.434-.749-.707.085-1.268.313-1.682.685-.415.372-.7.853-.855 1.443-.147.59-.176 1.258-.087 2.005.137 1.152.505 2.038 1.103 2.66.605.612 1.412.858 2.421.738Zm9.445 1.579-1.514-12.871 3.289-.393.74 6.196 3.621-6.717 4.004-.478-3.879 6.989 5.725 5.842-4.218.504-5.196-5.664.74 6.196-3.312.396Zm23.776-2.477c-1.294.154-2.465 0-3.511-.463a6.134 6.134 0 0 1-2.574-2.122c-.663-.96-1.073-2.103-1.232-3.43-.16-1.342-.023-2.555.412-3.638a6.117 6.117 0 0 1 2.013-2.67c.909-.689 1.999-1.109 3.27-1.261 1.295-.154 2.465 0 3.512.463a6.09 6.09 0 0 1 2.587 2.132c.669.952 1.083 2.091 1.242 3.417.159 1.335.022 2.547-.412 3.639a6.096 6.096 0 0 1-2.013 2.669c-.909.689-2.007 1.11-3.294 1.264Zm-.361-3.027c1.041-.124 1.773-.566 2.198-1.326.432-.768.582-1.705.45-2.809-.136-1.144-.508-2.026-1.114-2.647-.597-.621-1.409-.871-2.433-.748-.707.084-1.268.312-1.683.684-.415.372-.7.853-.855 1.444-.147.589-.176 1.257-.087 2.004.138 1.152.505 2.039 1.103 2.66.605.613 1.412.859 2.421.738Zm14.936 1.31c-1.242.132-2.323-.017-3.244-.446-.923-.438-1.687-1.1-2.292-1.986-.598-.896-1.032-1.964-1.301-3.205a17.616 17.616 0 0 1-.32-2.27c-.061-.855-.07-1.7-.024-2.535.045-.835.163-1.562.355-2.181a6.301 6.301 0 0 1 .798-1.618c.35-.51.733-.95 1.147-1.322a6.493 6.493 0 0 1 1.614-1.063 12.402 12.402 0 0 1 1.873-.707 48.224 48.224 0 0 1 2.062-.548c.72-.175 1.445-.378 2.175-.61l.627 2.825a9.868 9.868 0 0 1-1.518.447c-.573.125-1.161.256-1.765.392-.605.129-1.178.29-1.719.484a4.654 4.654 0 0 0-1.374.744 3.382 3.382 0 0 0-1.092 1.58 5.215 5.215 0 0 0-.281 1.895c.407-.774.948-1.338 1.622-1.692a5.965 5.965 0 0 1 2.061-.657c1.136-.136 2.142.022 3.018.473a5.325 5.325 0 0 1 2.144 1.968c.546.861.885 1.848 1.018 2.96.151 1.263.009 2.404-.425 3.423a5.79 5.79 0 0 1-1.974 2.495c-.89.638-1.952 1.023-3.185 1.154Zm-.219-3.043c.922-.11 1.582-.479 1.983-1.107.4-.628.543-1.419.43-2.372-.117-.977-.451-1.715-1.002-2.213-.544-.507-1.265-.707-2.162-.6-.914.109-1.575.474-1.984 1.095-.403.612-.545 1.407-.429 2.384.121 1.009.456 1.758 1.006 2.249.549.482 1.268.67 2.158.564Zm15.492 1.195c-1.279.153-2.383-.018-3.312-.511-.929-.493-1.674-1.226-2.233-2.199-.551-.973-.904-2.103-1.057-3.39-.154-1.287-.078-2.468.229-3.544.306-1.076.841-1.962 1.604-2.657.763-.696 1.756-1.117 2.979-1.263 1.232-.147 2.339.019 3.323.498s1.787 1.2 2.41 2.165c.629.956 1.023 2.09 1.179 3.4.154 1.287.042 2.473-.336 3.557-.37 1.084-.965 1.977-1.783 2.679-.819.702-1.82 1.124-3.003 1.265Zm-5.699 6.119-2.22-18.588 2.86-.342 1.053 8.818.405-.049 1.167 9.771-3.265.39Zm4.83-8.94c.699-.083 1.25-.327 1.653-.729.403-.403.677-.911.821-1.524a5.865 5.865 0 0 0 .086-2.017 5.545 5.545 0 0 0-.567-1.914c-.294-.569-.696-1.001-1.206-1.294-.504-.302-1.117-.411-1.84-.324-.675.08-1.204.309-1.586.685-.374.375-.621.868-.742 1.478-.12.611-.134 1.305-.041 2.084.093.778.27 1.45.531 2.015.261.565.625.985 1.093 1.259.476.274 1.075.367 1.798.281Zm12.999 1.372c-.922.11-1.725.029-2.41-.244-.678-.281-1.219-.696-1.623-1.244a4.055 4.055 0 0 1-.723-1.908 4.671 4.671 0 0 1 .079-1.665c.124-.514.366-.982.726-1.404.368-.431.882-.814 1.543-1.151a12.03 12.03 0 0 1 1.648-.668c.643-.214 1.375-.43 2.195-.649.818-.227 1.719-.475 2.702-.746l-1.091.783c-.091-.763-.34-1.301-.748-1.615-.408-.313-1.041-.419-1.899-.317-.477.057-.96.232-1.449.524-.488.292-.801.744-.937 1.357l-3.042-.58a5 5 0 0 1 1.524-2.816c.818-.775 2.002-1.255 3.551-1.44 1.136-.135 2.165-.081 3.089.163.923.244 1.663.768 2.218 1.572.311.447.519.905.623 1.376.105.471.192 1 .263 1.588l.939 7.864-2.836.339-.316-2.645.471.499c-.524.941-1.129 1.65-1.813 2.126-.677.468-1.572.768-2.684.901Zm.386-2.632c.596-.071 1.084-.235 1.465-.489.387-.264.684-.545.89-.844.214-.299.354-.546.419-.739.125-.369.172-.786.141-1.249a17.805 17.805 0 0 0-.092-1.174l.982.125c-.942.273-1.705.501-2.287.684-.583.174-1.053.327-1.408.458a8.584 8.584 0 0 0-.931.401 3.327 3.327 0 0 0-.724.51 1.493 1.493 0 0 0-.372.527 1.302 1.302 0 0 0-.062.6c.035.294.137.54.306.737.176.188.405.322.688.401.284.079.612.096.985.052Zm15.357.776c-1.241.132-2.322-.017-3.244-.446-.922-.438-1.686-1.1-2.292-1.987-.598-.895-1.032-1.963-1.301-3.204a17.652 17.652 0 0 1-.319-2.27c-.062-.855-.07-1.7-.025-2.535.045-.835.164-1.563.356-2.182a6.301 6.301 0 0 1 .798-1.618c.35-.509.732-.949 1.147-1.321a6.488 6.488 0 0 1 1.613-1.063c.587-.28 1.212-.515 1.874-.707a48.569 48.569 0 0 1 2.061-.548 32.284 32.284 0 0 0 2.175-.611l.628 2.826a9.936 9.936 0 0 1-1.518.447c-.573.125-1.162.256-1.766.392-.605.129-1.178.29-1.719.483a4.672 4.672 0 0 0-1.373.745 3.363 3.363 0 0 0-1.092 1.58 5.238 5.238 0 0 0-.282 1.895c.407-.774.948-1.338 1.623-1.692a5.965 5.965 0 0 1 2.061-.657c1.136-.136 2.141.022 3.017.473a5.315 5.315 0 0 1 2.145 1.968c.546.861.885 1.848 1.018 2.96.151 1.263.009 2.404-.425 3.422a5.802 5.802 0 0 1-1.974 2.496c-.891.638-1.953 1.023-3.186 1.154Zm-.218-3.044c.921-.11 1.582-.479 1.982-1.107.401-.627.544-1.418.43-2.371-.117-.977-.45-1.715-1.001-2.213-.544-.507-1.265-.707-2.163-.6-.913.109-1.575.474-1.984 1.095-.402.612-.545 1.407-.428 2.384.12 1.009.455 1.758 1.005 2.248.55.483 1.269.671 2.159.564Zm14.967 1.258c-1.295.155-2.466.001-3.512-.463a6.138 6.138 0 0 1-2.574-2.121c-.662-.96-1.073-2.104-1.231-3.43-.161-1.343-.023-2.556.411-3.639a6.117 6.117 0 0 1 2.014-2.67c.909-.688 1.998-1.108 3.269-1.26 1.295-.155 2.466-.001 3.512.463a6.085 6.085 0 0 1 2.587 2.132c.67.951 1.084 2.09 1.242 3.417.16 1.334.022 2.547-.411 3.638a6.114 6.114 0 0 1-2.014 2.67c-.909.688-2.006 1.11-3.293 1.263Zm-.362-3.026c1.041-.124 1.774-.567 2.199-1.326.431-.769.581-1.705.45-2.809-.137-1.144-.508-2.027-1.114-2.647-.598-.622-1.409-.871-2.434-.749-.707.085-1.268.313-1.683.685-.415.372-.7.853-.855 1.443-.147.59-.176 1.258-.087 2.005.138 1.152.506 2.038 1.104 2.66.605.612 1.411.858 2.42.738Zm12.382 1.228-1.196-10.009-4.218.504-.341-2.86 11.677-1.394.341 2.859-4.218.504 1.196 10.009-3.241.387Zm13.085-1.2c-.922.11-1.725.029-2.41-.244-.678-.282-1.219-.696-1.623-1.244a4.055 4.055 0 0 1-.723-1.908 4.671 4.671 0 0 1 .079-1.665c.124-.515.366-.983.726-1.404.368-.431.882-.815 1.543-1.151a12.023 12.023 0 0 1 1.648-.669c.643-.213 1.375-.43 2.195-.648.819-.227 1.719-.476 2.702-.746l-1.091.783c-.091-.763-.34-1.301-.748-1.615-.408-.314-1.041-.419-1.899-.317-.477.057-.96.232-1.448.524-.489.292-.802.744-.938 1.356l-3.042-.579a5.007 5.007 0 0 1 1.524-2.817c.818-.774 2.002-1.254 3.551-1.439 1.136-.136 2.165-.081 3.089.163.923.244 1.663.768 2.218 1.572.311.446.519.905.623 1.376.105.471.192 1 .263 1.588l.939 7.864-2.836.339-.316-2.646.471.5c-.524.941-1.129 1.65-1.813 2.126-.677.468-1.572.768-2.684.901Zm.386-2.633c.596-.071 1.084-.234 1.465-.489.387-.263.684-.545.89-.843.214-.3.354-.546.419-.739a3.21 3.21 0 0 0 .141-1.25 17.823 17.823 0 0 0-.092-1.173l.982.124c-.942.274-1.704.502-2.287.684-.583.175-1.053.328-1.408.459a8.39 8.39 0 0 0-.931.401 3.36 3.36 0 0 0-.724.509 1.505 1.505 0 0 0-.372.528 1.299 1.299 0 0 0-.062.6c.036.294.137.539.306.737.176.188.405.322.688.401.284.079.612.096.985.051Zm9.866 1.046-1.537-12.869 3.241-.387.587 4.909 5.29-.632-.586-4.909 3.241-.387 1.537 12.869-3.241.387-.59-4.933-5.29.632.589 4.933-3.241.387Zm20.938-2.138c-1.295.154-2.465 0-3.512-.463a6.14 6.14 0 0 1-2.574-2.122c-.662-.96-1.073-2.103-1.231-3.43-.16-1.343-.023-2.555.411-3.639a6.108 6.108 0 0 1 2.014-2.669c.909-.689 1.999-1.109 3.27-1.261 1.294-.154 2.465 0 3.511.463a6.079 6.079 0 0 1 2.587 2.132c.67.952 1.084 2.09 1.242 3.417.16 1.335.023 2.547-.411 3.639a6.106 6.106 0 0 1-2.014 2.669c-.908.689-2.006 1.11-3.293 1.264Zm-.362-3.027c1.041-.124 1.774-.566 2.199-1.326.432-.769.582-1.705.45-2.809-.137-1.144-.508-2.026-1.114-2.647-.598-.621-1.409-.871-2.434-.748-.707.084-1.268.312-1.683.684-.414.372-.699.853-.854 1.444-.148.589-.177 1.257-.087 2.004.137 1.152.505 2.039 1.103 2.66.605.613 1.412.859 2.42.738Z" opacity=".7"/><rect width="406.657" height="151.928" x="658.461" y=".1" fill="#BB64D0" rx="75.964" transform="rotate(3.75 658.461 .1)"/><path fill="#fff" d="m814.633 50.242 2.978.195c1.588.104 2.049.683 1.948 2.221l-2.035 31.07c-.1 1.538-.632 2.051-2.221 1.947l-5.608-.367c-1.588-.104-2.098-.686-1.998-2.224l1.356-20.697-3.449 1.669c-1.491.7-2.514.334-3.171-1.055l-2.056-4.372c-.551-1.481-.264-2.06 1.181-2.813L811.6 50.89c.979-.484 1.991-.717 3.033-.649Zm9.323 23.738.711-10.869c.52-7.941 6.057-12.563 14.99-11.978 8.934.585 13.82 5.89 13.3 13.83l-.712 10.87c-.529 8.09-6.059 12.612-14.993 12.027-8.933-.585-13.826-5.79-13.296-13.88Zm18.436 1.606.764-11.663c.159-2.432-1.338-3.926-4.067-4.104-2.73-.18-4.409 1.106-4.569 3.538l-.763 11.664c-.16 2.432 1.334 3.975 4.064 4.154 2.73.179 4.412-1.157 4.571-3.589Zm14.739.567.712-10.87c.52-7.94 6.056-12.562 14.99-11.977 8.934.585 13.82 5.889 13.3 13.83l-.712 10.87c-.53 8.09-6.06 12.612-14.993 12.027-8.934-.585-13.827-5.79-13.297-13.88Zm18.437 1.606.764-11.663c.159-2.433-1.338-3.926-4.068-4.105-2.73-.179-4.409 1.107-4.568 3.539l-.764 11.663c-.159 2.432 1.335 3.976 4.065 4.154 2.729.18 4.412-1.156 4.571-3.588Zm31.104-6.537 6.254.41c1.588.104 2.048.682 1.944 2.27l-.256 3.921c-.104 1.589-.636 2.102-2.225 1.998l-6.253-.41-.41 6.254c-.104 1.588-.682 2.049-2.27 1.945l-3.921-.257c-1.588-.104-2.102-.636-1.998-2.224l.41-6.254-6.204-.406c-1.589-.104-2.049-.682-1.945-2.27l.257-3.921c.104-1.589.636-2.102 2.224-1.998l6.204.406.406-6.204c.104-1.588.683-2.048 2.271-1.944l3.921.256c1.588.104 2.101.636 1.997 2.225l-.406 6.203Z"/><path fill="#fff" d="m789.452 119.541 1.129-17.243 14.225.931-1.129 17.243-3.257-.213.93-14.201-7.711-.505-.93 14.201-3.257-.213Zm21.156 1.746c-.926-.061-1.701-.288-2.325-.681-.615-.401-1.071-.908-1.367-1.521a4.06 4.06 0 0 1-.362-2.008 4.71 4.71 0 0 1 .383-1.622c.216-.483.54-.899.972-1.247.44-.356 1.016-.639 1.727-.849.49-.145 1.071-.263 1.743-.355.671-.093 1.43-.171 2.276-.236l2.794-.238-1.216.57c.05-.767-.097-1.341-.44-1.725-.344-.383-.947-.603-1.809-.659-.479-.032-.986.051-1.52.249-.534.197-.924.585-1.17 1.162L807.409 111a5.015 5.015 0 0 1 2.015-2.49c.946-.611 2.198-.866 3.754-.764 1.142.075 2.144.317 3.007.726s1.494 1.06 1.893 1.952c.224.496.344.985.361 1.467.016.482.005 1.018-.034 1.609l-.517 7.903-2.85-.187.174-2.658.371.578c-.688.828-1.411 1.414-2.171 1.757-.752.336-1.686.467-2.804.394Zm.862-2.517c.599.039 1.109-.032 1.529-.213.43-.188.773-.41 1.03-.666.265-.255.448-.471.548-.649.19-.341.313-.741.367-1.203.063-.469.104-.859.125-1.17l.942.302c-.976.096-1.768.181-2.374.253a24.6 24.6 0 0 0-1.467.193 8.405 8.405 0 0 0-.989.224 3.343 3.343 0 0 0-.806.368 1.5 1.5 0 0 0-.462.451c-.1.17-.156.362-.17.578-.02.295.035.555.165.78.138.218.339.391.603.521.264.129.584.206.959.231Zm15.854 3.612c-1.285-.084-2.339-.454-3.162-1.109s-1.42-1.512-1.792-2.571c-.364-1.058-.503-2.234-.418-3.527.084-1.293.376-2.44.875-3.442.498-1.002 1.186-1.774 2.063-2.318.878-.544 1.931-.776 3.161-.695 1.237.081 2.295.447 3.175 1.098.879.651 1.536 1.507 1.972 2.57.444 1.055.623 2.242.536 3.559-.084 1.293-.412 2.438-.982 3.435-.562.997-1.31 1.766-2.244 2.306-.933.54-1.994.772-3.184.694Zm-6.723 4.971 1.223-18.68 2.874.188-.58 8.861.407.027-.643 9.819-3.281-.215Zm6.386-7.904c.703.046 1.289-.092 1.759-.414.47-.322.832-.771 1.086-1.347a5.857 5.857 0 0 0 .454-1.967 5.523 5.523 0 0 0-.207-1.986c-.184-.613-.5-1.111-.948-1.493-.44-.389-1.023-.608-1.749-.656-.679-.044-1.24.084-1.685.383-.436.3-.77.739-1 1.318-.23.578-.371 1.258-.422 2.04-.052.783-.001 1.475.152 2.079.153.603.434 1.082.844 1.438.418.356.99.558 1.716.605Zm12.12 3.344.659-10.059-4.239-.277.188-2.874 11.735.768-.188 2.874-4.239-.278-.659 10.059-3.257-.213Zm9.748.638.847-12.932 3.257.213-.323 4.933 5.317.348.323-4.933 3.257.213-.847 12.933-3.257-.214.325-4.957-5.317-.348-.325 4.957-3.257-.213Zm23.066-13.305.189-2.874 2.874.188-.189 2.874-2.874-.188Zm-5.077-.333.189-2.874 2.873.189-.188 2.873-2.874-.188Zm3.178 15.385c-1.325-.087-2.476-.447-3.453-1.08a6.303 6.303 0 0 1-2.216-2.514c-.501-1.043-.709-2.211-.625-3.505.093-1.413.453-2.624 1.08-3.633s1.451-1.769 2.47-2.279c1.02-.519 2.169-.736 3.446-.653 1.357.089 2.49.484 3.398 1.185.908.701 1.552 1.645 1.931 2.832.379 1.188.45 2.559.212 4.115l-3.221-.211.078-1.197c.086-1.318-.063-2.277-.449-2.88-.377-.61-1.04-.946-1.99-1.008-1.11-.073-1.95.213-2.522.857-.562.636-.887 1.613-.973 2.931-.079 1.205.119 2.156.595 2.852.484.69 1.233 1.067 2.246 1.134.639.042 1.195-.062 1.668-.312.474-.25.847-.63 1.121-1.141l3.196 1.147c-.564 1.15-1.395 2.017-2.491 2.603a6.373 6.373 0 0 1-3.501.757Zm-3.9-6.196.159-2.419 8.573.561-.158 2.419-8.574-.561Zm18.805 7.172c-1.285-.084-2.339-.454-3.162-1.109s-1.42-1.512-1.792-2.571c-.363-1.058-.503-2.233-.418-3.527.085-1.293.376-2.44.875-3.442.498-1.001 1.186-1.774 2.064-2.318.877-.544 1.93-.775 3.16-.695 1.237.081 2.295.447 3.175 1.098.879.651 1.537 1.508 1.972 2.57.444 1.056.623 2.242.537 3.559-.085 1.293-.413 2.438-.983 3.435-.562.997-1.31 1.766-2.243 2.306-.934.541-1.995.772-3.185.694Zm-6.723 4.971 1.224-18.68 2.873.188-.58 8.861.407.027-.643 9.819-3.281-.215Zm6.386-7.903c.703.046 1.289-.092 1.759-.414.47-.322.832-.772 1.087-1.348.254-.585.405-1.24.453-1.967a5.523 5.523 0 0 0-.207-1.986c-.184-.613-.5-1.111-.948-1.493-.44-.389-1.023-.608-1.749-.655-.679-.045-1.24.083-1.685.382-.436.3-.77.74-1 1.318-.23.578-.371 1.258-.422 2.041-.051.782 0 1.475.152 2.078.153.603.435 1.083.844 1.438.418.356.99.558 1.716.606Zm14.755 3.876c-1.301-.085-2.424-.451-3.367-1.098a6.134 6.134 0 0 1-2.142-2.558c-.475-1.065-.669-2.264-.582-3.598.088-1.349.445-2.516 1.071-3.501a6.114 6.114 0 0 1 2.469-2.256c1.019-.51 2.168-.723 3.445-.64 1.301.085 2.424.452 3.367 1.099a6.078 6.078 0 0 1 2.153 2.57c.484 1.058.682 2.253.595 3.586-.088 1.341-.445 2.509-1.071 3.502a6.108 6.108 0 0 1-2.469 2.255c-1.019.511-2.176.724-3.469.639Zm.199-3.041c1.046.068 1.847-.232 2.404-.901.566-.677.885-1.57.957-2.68.076-1.149-.128-2.084-.61-2.805-.473-.721-1.225-1.115-2.255-1.182-.711-.047-1.304.075-1.78.364-.476.29-.844.711-1.105 1.263-.252.552-.403 1.204-.452 1.954-.076 1.158.123 2.097.597 2.817.482.713 1.23 1.103 2.244 1.17Zm8.996 3.282.847-12.932 6.059.397c.479.031.896.087 1.252.166.356.071.651.151.886.238.579.215 1.096.593 1.549 1.136.454.543.648 1.301.585 2.275-.038.575-.16 1.036-.368 1.383a2.593 2.593 0 0 1-.787.826c-.151.095-.3.173-.449.236a2.45 2.45 0 0 1-.442.139c.333.07.63.178.893.323.419.22.774.548 1.066.984.293.428.413 1.045.36 1.851-.056.862-.316 1.583-.779 2.162-.455.579-1.109.962-1.963 1.146a6.18 6.18 0 0 1-1.03.113c-.385.015-.79.008-1.213-.019l-6.466-.424Zm3.466-2.25 2.922.191c.168.011.34.007.518-.014.186-.028.353-.065.5-.111a.878.878 0 0 0 .524-.459c.119-.225.186-.457.202-.696.021-.336-.037-.604-.176-.806a1.288 1.288 0 0 0-.96-.592 5.395 5.395 0 0 0-.429-.052l-2.922-.191-.179 2.73Zm.344-5.245 1.988.13c.255.017.495.021.72.012.234-.017.429-.057.585-.118a.962.962 0 0 0 .497-.425c.118-.209.186-.445.203-.708a1.577 1.577 0 0 0-.13-.766.876.876 0 0 0-.533-.504 2.164 2.164 0 0 0-.663-.152c-.263-.025-.43-.04-.502-.045l-1.988-.13-.177 2.706Z" opacity=".7"/></svg>