<svg xmlns="http://www.w3.org/2000/svg" width="255" height="277" fill="none"><rect width="245.281" height="91.638" x="4.885" y=".926" fill="#3C1C79" rx="45.819"/><path fill="#fff" d="M80.107 25.19h10.98c.96 0 1.29.33 1.29 1.29v2.7c0 .96-.33 1.26-1.29 1.26h-7.44l-.21 2.1h2.01c5.25 0 7.86 2.91 7.86 7.14 0 2.13-.72 3.87-2.16 5.22-1.47 1.38-3.45 2.07-5.97 2.07-4.8 0-7.44-1.56-8.73-4.95-.33-.93-.09-1.29.78-1.62l3.21-1.2c.81-.33 1.2-.18 1.56.75.45 1.11 1.44 1.68 2.91 1.68 1.47 0 2.22-.75 2.22-2.22 0-1.35-.81-2.04-2.4-2.04h-6.24c-1.08 0-1.41-.42-1.32-1.47l.93-8.91c.15-1.35.6-1.8 2.01-1.8Zm21.308 17.28-2.22 6.57c-.33.84-.66 1.14-1.59 1.14h-1.68c-.75 0-.93-.18-.84-.87l.84-6.84c.12-1.11.48-1.53 1.53-1.53h2.79c1.14 0 1.53.51 1.17 1.53Zm2.575-3.33v-6.57c0-4.8 3.15-7.8 8.55-7.8s8.55 3 8.55 7.8v6.57c0 4.89-3.15 7.83-8.55 7.83s-8.55-2.94-8.55-7.83Zm11.16.24v-7.05c0-1.47-.96-2.31-2.61-2.31s-2.61.84-2.61 2.31v7.05c0 1.47.96 2.34 2.61 2.34s2.61-.87 2.61-2.34Zm8.893-.24v-6.57c0-4.8 3.15-7.8 8.55-7.8s8.55 3 8.55 7.8v6.57c0 4.89-3.15 7.83-8.55 7.83s-8.55-2.94-8.55-7.83Zm11.16.24v-7.05c0-1.47-.96-2.31-2.61-2.31s-2.61.84-2.61 2.31v7.05c0 1.47.96 2.34 2.61 2.34s2.61-.87 2.61-2.34Zm8.893-.24v-6.57c0-4.8 3.15-7.8 8.55-7.8s8.55 3 8.55 7.8v6.57c0 4.89-3.15 7.83-8.55 7.83s-8.55-2.94-8.55-7.83Zm11.16.24v-7.05c0-1.47-.96-2.31-2.61-2.31s-2.61.84-2.61 2.31v7.05c0 1.47.96 2.34 2.61 2.34s2.61-.87 2.61-2.34Zm18.463-5.16h3.78c.96 0 1.26.33 1.26 1.29v2.37c0 .96-.3 1.29-1.26 1.29h-3.78v3.78c0 .96-.33 1.26-1.29 1.26h-2.37c-.96 0-1.29-.3-1.29-1.26v-3.78h-3.75c-.96 0-1.26-.33-1.26-1.29v-2.37c0-.96.3-1.29 1.26-1.29h3.75v-3.75c0-.96.33-1.26 1.29-1.26h2.37c.96 0 1.29.3 1.29 1.26v3.75Z"/><path fill="#fff" d="M70.68 66.97V56.89h1.904v4.648l3.836-4.648h2.324l-4.214 4.97 4.48 5.11h-2.408l-4.018-4.593v4.592H70.68Zm8.05 0v-1.582c.276.05.488.048.637-.008a.62.62 0 0 0 .336-.35c.08-.177.147-.417.203-.72.075-.402.14-.87.196-1.407.061-.537.112-1.104.154-1.701.042-.602.08-1.2.112-1.792h5.712v7.56h-1.904v-5.782h-2.142c-.018.242-.044.531-.077.867-.028.337-.06.687-.098 1.05-.032.36-.07.705-.112 1.036-.042.327-.086.607-.133.84-.112.593-.277 1.06-.497 1.4-.219.341-.52.558-.903.651-.382.099-.877.078-1.484-.063Zm16.048-7.56v7.56h-1.82v-4.62l-3.416 4.62H88.03v-7.56h1.82v4.466l3.43-4.466h1.498Zm5.475 7.77c-.775 0-1.458-.166-2.051-.498a3.675 3.675 0 0 1-1.386-1.379c-.331-.587-.497-1.26-.497-2.015 0-.826.163-1.545.49-2.156a3.542 3.542 0 0 1 1.351-1.421c.574-.341 1.234-.511 1.981-.511.793 0 1.468.186 2.023.56.555.373.966.898 1.232 1.575.266.676.359 1.472.28 2.386h-1.883v-.7c0-.77-.124-1.322-.371-1.659-.243-.34-.642-.51-1.197-.51-.649 0-1.127.198-1.435.595-.303.392-.455.972-.455 1.742 0 .705.152 1.251.455 1.639.308.382.758.573 1.351.573.373 0 .693-.081.959-.245.266-.163.469-.399.609-.707l1.904.547a3.346 3.346 0 0 1-1.351 1.61 3.713 3.713 0 0 1-2.009.574Zm-2.506-3.459v-1.413h5.012v1.413h-5.012Zm7.496 3.248v-7.56h1.904v2.885h3.108V59.41h1.904v7.56h-1.904v-2.898h-3.108v2.897h-1.904Zm10.721 0v-5.88h-2.478v-1.68h6.86v1.68h-2.478v5.88h-1.904Zm8.978.21c-.761 0-1.428-.17-2.002-.51a3.578 3.578 0 0 1-1.344-1.407c-.318-.603-.476-1.293-.476-2.072 0-.79.163-1.482.49-2.08a3.56 3.56 0 0 1 1.351-1.407c.574-.336 1.234-.504 1.981-.504.76 0 1.428.17 2.002.512.578.34 1.029.812 1.351 1.413.322.598.483 1.286.483 2.066 0 .784-.164 1.477-.49 2.079a3.568 3.568 0 0 1-1.351 1.406c-.574.337-1.239.505-1.995.505Zm0-1.778c.611 0 1.066-.205 1.365-.615.303-.416.455-.948.455-1.596 0-.672-.154-1.21-.462-1.61-.304-.402-.756-.602-1.358-.602-.416 0-.756.093-1.022.28a1.665 1.665 0 0 0-.595.776 3.24 3.24 0 0 0-.189 1.156c0 .676.151 1.215.455 1.617.308.396.758.594 1.351.594Zm5.361 1.569v-7.56h3.542c.28 0 .525.016.735.049.21.027.385.063.525.104.345.103.66.304.945.602.285.3.427.733.427 1.303 0 .335-.054.608-.161.818-.107.206-.25.376-.427.511-.084.061-.168.113-.252.155a1.409 1.409 0 0 1-.252.098c.196.028.373.079.532.154a1.7 1.7 0 0 1 .658.532c.187.238.28.592.28 1.063 0 .504-.124.934-.371 1.288-.243.355-.609.602-1.099.742a3.627 3.627 0 0 1-.595.106c-.224.023-.46.034-.707.034h-3.78Zm1.932-1.442h1.708c.098 0 .198-.01.301-.029.107-.023.203-.05.287-.084a.512.512 0 0 0 .287-.287.996.996 0 0 0 .091-.412c0-.197-.044-.35-.133-.462a.723.723 0 0 0-.287-.239.758.758 0 0 0-.294-.07 2.88 2.88 0 0 0-.252-.014h-1.708v1.597Zm0-3.067h1.162c.149 0 .289-.006.42-.02.135-.02.247-.05.336-.092a.563.563 0 0 0 .273-.265.95.95 0 0 0 .091-.42.919.919 0 0 0-.105-.442.51.51 0 0 0-.329-.273 1.27 1.27 0 0 0-.392-.063 13.024 13.024 0 0 0-.294-.007h-1.162v1.583Zm8.814 4.508v-7.56h3.542c.28 0 .525.017.735.05.21.027.385.063.525.104.346.103.661.304.945.602.285.3.427.733.427 1.303 0 .335-.053.608-.161.818a1.507 1.507 0 0 1-.931.764c.196.028.374.079.532.154.252.111.472.289.658.532.187.238.28.592.28 1.063 0 .504-.123.934-.371 1.288-.242.355-.609.602-1.099.742a3.627 3.627 0 0 1-.595.106 6.83 6.83 0 0 1-.707.034h-3.78Zm1.932-1.441h1.708c.098 0 .199-.01.301-.029.108-.023.203-.05.287-.084a.509.509 0 0 0 .287-.287.996.996 0 0 0 .091-.412c0-.197-.044-.35-.133-.462a.75.75 0 0 0-.581-.308 2.841 2.841 0 0 0-.252-.014h-1.708v1.596Zm0-3.067h1.162c.15 0 .29-.006.42-.02a1.15 1.15 0 0 0 .336-.092.555.555 0 0 0 .273-.265.95.95 0 0 0 .091-.42.919.919 0 0 0-.105-.442.51.51 0 0 0-.329-.273 1.264 1.264 0 0 0-.392-.063 13.024 13.024 0 0 0-.294-.007h-1.162v1.583Zm8.268 6.189V65.5c.402 0 .686-.14.854-.42.173-.28.308-.78.406-1.498.056-.416.103-.852.14-1.31.042-.457.077-.926.105-1.407.028-.48.054-.965.077-1.456h5.838v6.09h.77v3.15h-1.792v-1.68h-4.606v1.68h-1.792Zm2.436-3.15h3.08v-4.62h-2.282c-.014.256-.03.513-.049.77-.014.256-.032.51-.056.763-.018.252-.037.497-.056.735a19.69 19.69 0 0 1-.063.671c-.042.411-.1.745-.175 1.001a1.586 1.586 0 0 1-.399.68Zm10.662 1.68c-.775 0-1.459-.166-2.051-.498a3.675 3.675 0 0 1-1.386-1.379c-.332-.587-.497-1.26-.497-2.015 0-.826.163-1.545.49-2.156a3.537 3.537 0 0 1 1.351-1.421c.574-.341 1.234-.511 1.981-.511.793 0 1.467.186 2.023.56.555.373.966.898 1.232 1.575.266.676.359 1.472.28 2.386h-1.883v-.7c0-.77-.124-1.322-.371-1.659-.243-.34-.642-.51-1.197-.51-.649 0-1.127.198-1.435.595-.304.392-.455.972-.455 1.742 0 .705.151 1.251.455 1.639.308.382.758.573 1.351.573.373 0 .693-.081.959-.245.266-.163.469-.399.609-.707l1.904.547a3.346 3.346 0 0 1-1.351 1.61 3.715 3.715 0 0 1-2.009.574Zm-2.506-3.459v-1.413h5.012v1.413h-5.012Zm7.495 3.248v-7.56h1.904v2.885h3.108V59.41h1.904v7.56h-1.904v-2.898h-3.108v2.897h-1.904Zm8.86 0v-7.56h1.904v2.409h1.218c.21 0 .455.004.735.014.28.009.511.032.693.07.443.097.816.254 1.12.468.303.215.532.493.686.834.158.335.238.737.238 1.203 0 .672-.175 1.214-.525 1.624-.346.406-.847.686-1.505.84a4.11 4.11 0 0 1-.7.085c-.285.009-.532.013-.742.013h-3.122Zm1.904-1.47h1.428c.084 0 .177-.004.28-.013.102-.01.205-.029.308-.056.196-.056.368-.18.518-.372.149-.19.224-.408.224-.65 0-.267-.077-.493-.231-.68a1.041 1.041 0 0 0-.539-.37 1.629 1.629 0 0 0-.294-.056 2.813 2.813 0 0 0-.266-.014H180.1V65.5Z" opacity=".7"/><rect width="245.281" height="91.638" x=".316" y="99.652" fill="#270F69" rx="45.819" transform="rotate(-6.81 .316 99.652)"/><path fill="#fff" d="M77.59 116.129c1.413.949 2.22 2.393 2.444 4.27.224 1.877-.376 3.429-1.804 4.626 2.09.808 3.273 2.359 3.547 4.653.498 4.17-1.902 6.844-7.264 7.484-4.588.548-7.713-.831-9.41-4.163-.394-.769-.19-1.337.612-1.705l2.795-1.391c.884-.438 1.233-.299 1.704.612.63 1.224 1.72 1.758 3.24 1.577 1.55-.185 2.253-.874 2.114-2.035-.14-1.162-.866-1.68-2.176-1.523l-1.817.217c-.954.114-1.29-.178-1.4-1.102l-.296-2.472c-.114-.953.145-1.317 1.098-1.43l1.31-.157c1.341-.16 1.962-.778 1.83-1.88-.131-1.102-.88-1.557-2.22-1.397-1.58.189-2.174.774-2.57 2.271-.217.963-.61 1.221-1.512.996l-3.044-.694c-.896-.164-1.22-.609-.996-1.512.894-3.642 3.607-5.718 8.165-6.263 2.353-.281 4.238.068 5.65 1.018Zm6.27 12.031-.779-6.524c-.569-4.766 2.203-8.118 7.565-8.759 5.362-.64 8.846 1.965 9.415 6.731l.779 6.524c.58 4.855-2.2 8.148-7.561 8.789-5.362.64-8.838-1.906-9.418-6.761Zm11.11-1.085-.836-7.001c-.174-1.459-1.227-2.179-2.865-1.984-1.639.196-2.492 1.144-2.318 2.603l.836 7.001c.174 1.459 1.23 2.209 2.87 2.014 1.638-.196 2.488-1.174 2.313-2.633Zm8.802-1.293-.779-6.524c-.569-4.766 2.203-8.118 7.565-8.759 5.362-.64 8.845 1.965 9.414 6.731l.78 6.524c.579 4.855-2.2 8.148-7.562 8.788-5.361.641-8.838-1.905-9.418-6.76Zm11.11-1.086-.836-7c-.175-1.459-1.227-2.18-2.866-1.984-1.638.196-2.492 1.144-2.317 2.603l.836 7.001c.174 1.459 1.23 2.209 2.869 2.014 1.638-.196 2.488-1.174 2.314-2.634Zm14.77 1.348-1.425 6.787c-.228.874-.52 1.211-1.444 1.321l-1.668.199c-.745.089-.945-.068-.937-.764l.023-6.892c-.013-1.116.295-1.576 1.337-1.7l2.771-.331c1.132-.135 1.579.325 1.343 1.38Zm2.162-3.612-.779-6.523c-.569-4.766 2.202-8.119 7.564-8.759 5.362-.64 8.846 1.965 9.415 6.731l.779 6.524c.58 4.855-2.199 8.148-7.561 8.788-5.362.641-8.838-1.905-9.418-6.761Zm11.11-1.085-.836-7c-.175-1.46-1.228-2.18-2.866-1.984-1.638.196-2.492 1.143-2.318 2.603l.836 7c.175 1.46 1.231 2.21 2.87 2.014 1.638-.195 2.488-1.173 2.314-2.633Zm8.801-1.293-.779-6.523c-.569-4.766 2.203-8.119 7.565-8.759 5.362-.641 8.845 1.965 9.415 6.731l.779 6.523c.58 4.856-2.199 8.149-7.561 8.789-5.362.641-8.839-1.905-9.419-6.761Zm11.11-1.085-.836-7c-.174-1.46-1.227-2.18-2.865-1.984-1.639.195-2.492 1.143-2.318 2.603l.836 7c.174 1.46 1.231 2.21 2.869 2.014 1.638-.196 2.489-1.173 2.314-2.633Zm8.802-1.293-.779-6.523c-.569-4.767 2.203-8.119 7.565-8.759 5.361-.641 8.845 1.964 9.414 6.731l.779 6.523c.58 4.856-2.199 8.149-7.561 8.789-5.362.64-8.838-1.905-9.418-6.761Zm11.11-1.085-.836-7c-.175-1.46-1.227-2.18-2.866-1.984-1.638.195-2.492 1.143-2.317 2.603l.836 7c.174 1.46 1.23 2.21 2.869 2.014 1.638-.196 2.488-1.173 2.314-2.633Z"/><path fill="#fff" d="M66.32 158.493c-.708.085-1.344.055-1.907-.089a4.489 4.489 0 0 1-1.444-.639 4.234 4.234 0 0 1-.977-.926l1.466-1.303c.138.218.323.429.554.631.231.203.525.358.88.466.357.108.79.132 1.3.071.481-.058.86-.173 1.135-.347.28-.175.472-.379.576-.612.108-.234.148-.471.12-.712-.04-.32-.163-.554-.374-.703a1.527 1.527 0 0 0-.765-.268 4.723 4.723 0 0 0-.953-.006l-.697.062c-.14.012-.235.021-.286.027l-.132.016-.212-1.779.264-.032.361-.043c.125-.02.226-.036.304-.051.484-.081.877-.236 1.178-.465.307-.229.436-.545.388-.948a1.052 1.052 0 0 0-.544-.831c-.313-.183-.713-.246-1.2-.188a2.53 2.53 0 0 0-1.194.446c-.334.237-.57.484-.708.74l-1.459-1.235c.304-.403.733-.769 1.286-1.099.553-.329 1.193-.537 1.92-.624.44-.052.878-.046 1.314.02.435.061.836.189 1.202.385.366.191.67.458.913.8.248.342.402.768.463 1.277.052.431.024.848-.083 1.251-.108.398-.29.744-.546 1.038.44.136.794.366 1.063.691.269.325.435.752.498 1.28.079.662-.038 1.257-.351 1.783-.31.521-.759.948-1.349 1.282-.585.333-1.253.544-2.004.634Zm7.702-.92c-.538.065-1.007.017-1.406-.142a2.185 2.185 0 0 1-.947-.726 2.37 2.37 0 0 1-.422-1.113 2.739 2.739 0 0 1 .046-.971c.072-.3.214-.573.424-.819.215-.251.514-.475.9-.671.266-.136.586-.265.961-.39.376-.125.802-.251 1.28-.379l1.577-.435-.636.457c-.053-.445-.199-.759-.437-.942-.238-.183-.607-.245-1.108-.185-.278.033-.56.135-.845.306-.285.17-.467.434-.547.791l-1.774-.338a2.92 2.92 0 0 1 .89-1.643c.476-.452 1.167-.732 2.07-.84.663-.079 1.264-.047 1.802.095.539.143.97.449 1.294.917.182.261.303.528.364.803.06.275.112.583.153.926l.548 4.588-1.654.197-.185-1.543.275.292c-.306.549-.658.962-1.058 1.24-.395.273-.917.448-1.565.525Zm.225-1.535c.348-.042.632-.137.854-.286.226-.153.4-.317.52-.492.124-.174.206-.318.244-.431.073-.215.1-.458.082-.729a10.49 10.49 0 0 0-.053-.684l.572.073c-.55.159-.994.292-1.334.399-.34.101-.614.19-.82.267a4.793 4.793 0 0 0-.544.234 1.94 1.94 0 0 0-.423.297.883.883 0 0 0-.217.308.758.758 0 0 0-.035.35.79.79 0 0 0 .178.43c.102.11.236.188.401.234.166.046.357.056.575.03Zm10.19.08-.286-2.391-1.21.144c-.157.019-.373.043-.647.071-.27.022-.525.027-.766.014-.61-.036-1.133-.236-1.567-.603-.43-.367-.686-.905-.77-1.614-.083-.69.034-1.268.35-1.734.315-.465.772-.792 1.37-.981.244-.081.497-.139.761-.176.268-.041.487-.072.659-.092l3.1-.371.896 7.507-1.89.226Zm-4.838.578 1.364-2.983 1.946-.233-1.336 2.98-1.974.236Zm2.96-4.259 1.418-.17-.263-2.196-1.418.169c-.083.01-.175.026-.276.047a1.927 1.927 0 0 0-.3.093.899.899 0 0 0-.336.251c-.1.111-.175.242-.228.394-.052.147-.069.304-.049.471.032.264.137.48.317.646.179.162.37.259.57.292.101.016.2.023.299.02.103-.003.192-.008.266-.017Zm5.697 3.225-.897-7.507 3.517-.42a4.8 4.8 0 0 1 .736-.038c.212.002.39.016.534.042.355.061.691.222 1.01.485.318.263.51.677.578 1.242.04.334.019.611-.063.833a1.529 1.529 0 0 1-.363.558c-.076.07-.154.131-.232.183a1.438 1.438 0 0 1-.239.127c.198.004.38.034.547.09.263.081.502.231.716.45.214.214.349.555.404 1.023.06.501-.012.941-.215 1.323-.2.381-.534.67-1.004.867a3.618 3.618 0 0 1-.578.175c-.22.05-.452.089-.698.118l-3.753.449Zm1.747-1.661 1.696-.203c.098-.011.196-.033.296-.063.104-.036.195-.075.275-.118a.509.509 0 0 0 .25-.319 1 1 0 0 0 .042-.421c-.023-.194-.085-.342-.187-.443a.743.743 0 0 0-.613-.236 2.495 2.495 0 0 0-.252.016l-1.696.202.19 1.585Zm-.363-3.045 1.153-.137c.149-.018.287-.042.415-.071.132-.035.24-.078.323-.13a.56.56 0 0 0 .24-.297.957.957 0 0 0 .04-.428.917.917 0 0 0-.157-.425.51.51 0 0 0-.359-.232 1.276 1.276 0 0 0-.396-.016l-.293.028-1.154.138.188 1.57Zm9.92 3.567c-.755.09-1.438 0-2.048-.27a3.577 3.577 0 0 1-1.502-1.238c-.386-.56-.626-1.227-.718-2-.094-.784-.014-1.491.24-2.123a3.57 3.57 0 0 1 1.175-1.557c.53-.402 1.165-.647 1.907-.736.755-.09 1.438 0 2.048.27.615.27 1.118.685 1.509 1.244.391.555.632 1.22.725 1.993.093.779.013 1.486-.24 2.123a3.567 3.567 0 0 1-1.175 1.557c-.53.402-1.17.647-1.92.737Zm-.21-1.765c.606-.073 1.034-.331 1.282-.774.251-.448.339-.994.262-1.639-.08-.667-.296-1.181-.65-1.543-.348-.363-.822-.508-1.42-.437-.412.049-.739.182-.981.399a1.672 1.672 0 0 0-.499.842 3.24 3.24 0 0 0-.05 1.169c.08.672.294 1.19.643 1.552.353.357.824.501 1.412.431Zm5.509.921-.883-7.508 1.918-.23.432 3.615 2.112-3.918 2.336-.279-2.263 4.077 3.34 3.408-2.461.294-3.031-3.304.432 3.614-1.932.231Zm13.87-1.445c-.756.09-1.439 0-2.049-.27a3.574 3.574 0 0 1-1.501-1.238c-.387-.56-.626-1.227-.719-2.001-.093-.783-.013-1.49.24-2.122a3.568 3.568 0 0 1 1.175-1.558c.53-.401 1.166-.646 1.907-.735.755-.09 1.438 0 2.049.27a3.55 3.55 0 0 1 1.509 1.244c.39.555.632 1.219.724 1.993.093.778.013 1.486-.24 2.122a3.562 3.562 0 0 1-1.174 1.558c-.53.401-1.171.647-1.921.737Zm-.211-1.766c.607-.072 1.034-.33 1.282-.773.252-.449.339-.995.262-1.639-.079-.667-.296-1.182-.649-1.544-.349-.362-.822-.508-1.42-.436-.412.049-.74.182-.982.399a1.663 1.663 0 0 0-.498.842 3.235 3.235 0 0 0-.051 1.169c.08.672.295 1.189.644 1.552.353.357.823.501 1.412.43Zm8.712.764c-.724.078-1.355-.009-1.892-.26a3.33 3.33 0 0 1-1.337-1.159c-.349-.522-.602-1.145-.759-1.869a10.247 10.247 0 0 1-.186-1.324 11.797 11.797 0 0 1-.015-1.479c.027-.487.096-.911.208-1.272.11-.338.265-.652.465-.944.204-.297.427-.554.669-.771.285-.255.599-.462.942-.62a7.085 7.085 0 0 1 1.092-.412c.386-.112.787-.219 1.203-.32.42-.102.843-.221 1.269-.356l.366 1.648a5.774 5.774 0 0 1-.886.261l-1.03.228a8.04 8.04 0 0 0-1.002.282 2.742 2.742 0 0 0-.802.434 1.973 1.973 0 0 0-.637.923c-.125.372-.179.74-.164 1.105.238-.452.553-.781.947-.987a3.475 3.475 0 0 1 1.202-.384c.662-.079 1.249.013 1.76.277.515.258.932.64 1.251 1.147a4.1 4.1 0 0 1 .594 1.727c.088.737.005 1.402-.248 1.997a3.385 3.385 0 0 1-1.152 1.455c-.519.373-1.139.597-1.858.673Zm-.127-1.775c.537-.064.923-.279 1.156-.646.234-.366.317-.827.251-1.383-.068-.57-.263-1-.584-1.291-.318-.296-.738-.412-1.262-.35-.533.064-.918.277-1.157.639-.235.357-.318.82-.25 1.39.07.589.266 1.026.587 1.312.32.281.74.391 1.259.329Zm9.036.697c-.746.089-1.39-.01-1.932-.298a3.235 3.235 0 0 1-1.302-1.282c-.322-.568-.527-1.227-.617-1.978-.089-.751-.045-1.44.134-2.068.179-.627.491-1.144.936-1.549.445-.406 1.024-.652 1.738-.737.718-.086 1.364.011 1.938.29.574.28 1.042.701 1.405 1.264.368.557.597 1.218.689 1.983.089.751.024 1.442-.197 2.075a3.499 3.499 0 0 1-1.04 1.562c-.477.41-1.061.656-1.752.738Zm-3.324 3.57-1.295-10.843 1.668-.199.615 5.143.236-.028.681 5.699-1.905.228Zm2.818-5.215c.407-.049.729-.191.964-.426.235-.234.395-.531.479-.889.084-.362.1-.754.05-1.176a3.225 3.225 0 0 0-.331-1.117 1.791 1.791 0 0 0-.703-.754c-.294-.177-.652-.24-1.073-.19-.394.048-.703.181-.926.4-.218.219-.362.506-.432.862a3.867 3.867 0 0 0-.024 1.216c.054.454.157.846.309 1.175.152.33.365.575.638.735.277.16.627.214 1.049.164Zm7.582.8c-.537.064-1.006.017-1.405-.142a2.181 2.181 0 0 1-.947-.726 2.366 2.366 0 0 1-.422-1.113 2.732 2.732 0 0 1 .046-.971c.072-.3.214-.573.424-.819.214-.251.514-.475.9-.672.265-.135.586-.265.961-.389.375-.125.802-.251 1.28-.379l1.577-.435-.636.457c-.054-.445-.199-.759-.437-.942-.238-.183-.608-.245-1.108-.185-.278.033-.56.135-.845.305-.285.171-.467.435-.547.792l-1.774-.338a2.916 2.916 0 0 1 .889-1.643c.477-.452 1.168-.732 2.071-.84.663-.079 1.263-.047 1.802.095.539.143.97.448 1.294.917.181.261.303.528.364.803.061.274.112.583.153.926l.548 4.588-1.655.197-.184-1.543.275.292c-.306.548-.659.962-1.058 1.24-.395.273-.917.448-1.566.525Zm.226-1.535c.347-.042.632-.137.854-.286.226-.154.399-.318.519-.492.125-.174.207-.318.245-.431.073-.215.1-.458.082-.729a10.905 10.905 0 0 0-.053-.684l.572.072c-.549.16-.994.293-1.334.399-.34.102-.614.191-.821.268a4.793 4.793 0 0 0-.543.234 1.945 1.945 0 0 0-.423.297.893.893 0 0 0-.217.308.753.753 0 0 0-.036.35c.021.171.08.314.179.429a.85.85 0 0 0 .401.235c.166.046.357.056.575.03Zm8.958.452c-.724.077-1.355-.009-1.892-.26a3.33 3.33 0 0 1-1.337-1.159c-.349-.522-.602-1.145-.759-1.869a10.413 10.413 0 0 1-.187-1.324c-.036-.499-.04-.992-.014-1.479.026-.487.096-.911.208-1.272.11-.338.265-.652.465-.944.204-.297.427-.554.669-.771a3.77 3.77 0 0 1 .941-.62 7.244 7.244 0 0 1 1.093-.413c.386-.111.787-.218 1.203-.319.42-.102.843-.221 1.268-.356l.366 1.648a5.76 5.76 0 0 1-.885.261c-.334.073-.678.149-1.03.228a7.772 7.772 0 0 0-1.003.282 2.75 2.75 0 0 0-.801.434 1.975 1.975 0 0 0-.637.922 3.06 3.06 0 0 0-.164 1.106c.237-.452.553-.781.947-.987a3.468 3.468 0 0 1 1.202-.384c.662-.079 1.249.013 1.76.276.515.259.932.641 1.251 1.148a4.1 4.1 0 0 1 .594 1.727c.088.737.005 1.402-.248 1.996a3.382 3.382 0 0 1-1.152 1.456c-.519.373-1.139.597-1.858.673Zm-.128-1.775c.538-.064.923-.279 1.157-.646.234-.366.317-.827.251-1.383-.068-.57-.263-1-.584-1.291-.318-.296-.738-.412-1.262-.35-.533.064-.919.277-1.157.639-.235.357-.318.82-.25 1.39.07.589.266 1.026.587 1.312.32.281.739.391 1.258.329Zm8.731.734c-.755.09-1.438 0-2.048-.27a3.577 3.577 0 0 1-1.502-1.238c-.386-.56-.625-1.227-.718-2.001-.093-.783-.013-1.49.24-2.122a3.568 3.568 0 0 1 1.175-1.558c.53-.401 1.166-.646 1.907-.735.755-.09 1.438 0 2.048.27.615.27 1.118.684 1.51 1.244.39.555.632 1.219.724 1.993.093.778.013 1.486-.24 2.122a3.557 3.557 0 0 1-1.175 1.558c-.53.401-1.17.647-1.921.737Zm-.211-1.766c.607-.072 1.035-.33 1.283-.773.252-.449.339-.995.262-1.639-.079-.667-.296-1.182-.649-1.544-.349-.362-.822-.508-1.42-.436-.413.049-.74.182-.982.399a1.663 1.663 0 0 0-.498.842 3.235 3.235 0 0 0-.051 1.169c.08.672.295 1.189.643 1.552.353.357.824.501 1.412.43Zm7.223.717-.697-5.839-2.461.294-.199-1.668 6.812-.813.199 1.668-2.461.294.698 5.838-1.891.226Zm7.633-.7c-.538.064-1.006.016-1.406-.143a2.198 2.198 0 0 1-.947-.725 2.377 2.377 0 0 1-.422-1.113 2.736 2.736 0 0 1 .047-.972c.072-.3.213-.573.423-.819.215-.251.515-.475.9-.671.266-.135.587-.265.962-.39s.802-.251 1.28-.378c.478-.133 1.003-.278 1.576-.435l-.636.456c-.053-.445-.199-.758-.437-.942-.238-.183-.607-.244-1.107-.184a2.13 2.13 0 0 0-.845.305c-.285.17-.468.434-.547.791l-1.775-.338a2.926 2.926 0 0 1 .89-1.643c.477-.451 1.167-.731 2.071-.839.662-.079 1.263-.048 1.802.095.538.142.97.448 1.294.917.181.26.302.528.363.802.061.275.112.584.153.927l.548 4.587-1.654.198-.184-1.543.274.291c-.306.549-.658.962-1.057 1.24-.395.273-.917.448-1.566.526Zm.225-1.536c.348-.041.633-.137.855-.285.226-.154.399-.318.519-.492.125-.175.206-.319.245-.431.073-.216.1-.459.082-.729a10.088 10.088 0 0 0-.054-.685l.573.073c-.55.16-.994.293-1.334.399a14.66 14.66 0 0 0-.821.267 5.185 5.185 0 0 0-.543.234 1.99 1.99 0 0 0-.423.297.888.888 0 0 0-.217.308.754.754 0 0 0-.036.35c.021.172.08.315.178.43.103.11.237.188.402.234.165.046.357.056.574.03Zm5.756.61-.897-7.507 1.891-.226.342 2.864 3.086-.368-.342-2.864 1.89-.226.897 7.507-1.891.226-.344-2.878-3.086.369.344 2.877-1.89.226Zm12.213-1.247c-.755.09-1.438 0-2.048-.27a3.584 3.584 0 0 1-1.502-1.238c-.386-.56-.626-1.227-.718-2.001-.094-.783-.014-1.491.24-2.122a3.56 3.56 0 0 1 1.175-1.558c.53-.401 1.165-.646 1.907-.735.755-.09 1.438 0 2.048.27a3.55 3.55 0 0 1 1.509 1.244c.391.555.632 1.219.725 1.993.093.778.013 1.486-.24 2.122a3.557 3.557 0 0 1-1.175 1.558c-.53.401-1.17.647-1.921.737Zm-.211-1.766c.607-.072 1.035-.33 1.283-.773.252-.449.339-.995.262-1.639-.08-.667-.296-1.182-.65-1.544-.348-.362-.822-.508-1.419-.437-.413.05-.74.183-.982.4a1.672 1.672 0 0 0-.499.842 3.258 3.258 0 0 0-.05 1.169c.08.672.295 1.189.643 1.552.353.357.824.5 1.412.43Z" opacity=".7"/><rect width="245.281" height="91.638" x="8.141" y="168.643" fill="#BB64D0" rx="45.819" transform="rotate(3.75 8.14 168.643)"/><path fill="#fff" d="m102.321 199.157 1.796.118c.958.062 1.236.411 1.175 1.339l-1.227 18.74c-.061.928-.382 1.238-1.34 1.175l-3.383-.221c-.958-.063-1.266-.414-1.205-1.342l.818-12.483-2.08 1.006c-.9.422-1.517.201-1.913-.636l-1.24-2.637c-.333-.894-.16-1.243.712-1.697l6.057-2.971c.591-.292 1.201-.432 1.83-.391Zm5.623 14.318.429-6.556c.314-4.79 3.653-7.577 9.041-7.225 5.389.353 8.336 3.553 8.022 8.342l-.429 6.556c-.319 4.88-3.655 7.608-9.043 7.255-5.389-.353-8.34-3.492-8.02-8.372Zm11.12.969.461-7.035c.096-1.467-.807-2.368-2.454-2.476-1.646-.108-2.659.668-2.755 2.135l-.461 7.035c-.096 1.466.805 2.397 2.452 2.505 1.646.108 2.661-.697 2.757-2.164Zm8.89.341.429-6.556c.314-4.789 3.653-7.577 9.042-7.224 5.388.353 8.335 3.552 8.022 8.342l-.43 6.556c-.319 4.879-3.655 7.607-9.043 7.254-5.389-.353-8.34-3.492-8.02-8.372Zm11.12.969.461-7.035c.096-1.467-.807-2.368-2.453-2.475-1.647-.108-2.66.667-2.756 2.134l-.461 7.035c-.096 1.467.806 2.398 2.452 2.506 1.646.107 2.661-.698 2.757-2.165Zm18.761-3.942 3.772.247c.958.062 1.236.411 1.173 1.369l-.155 2.365c-.062.958-.383 1.268-1.341 1.205l-3.772-.247-.247 3.772c-.063.958-.412 1.236-1.37 1.173l-2.365-.155c-.958-.063-1.267-.384-1.205-1.342l.247-3.771-3.742-.245c-.958-.063-1.235-.412-1.173-1.37l.155-2.365c.063-.958.384-1.268 1.342-1.205l3.742.245.245-3.742c.063-.958.411-1.236 1.369-1.173l2.365.155c.958.063 1.268.384 1.205 1.342l-.245 3.742Z"/><path fill="#fff" d="m88.478 240.089.659-10.058 8.298.543-.659 10.058-1.9-.124.543-8.284-4.499-.295-.542 8.284-1.9-.124Zm12.341 1.019c-.54-.036-.992-.168-1.356-.398a2.186 2.186 0 0 1-.798-.887 2.369 2.369 0 0 1-.21-1.171c.022-.349.097-.665.223-.947.126-.281.315-.524.566-.727.257-.208.593-.373 1.008-.495a7.078 7.078 0 0 1 1.017-.207c.391-.054.834-.1 1.327-.138l1.63-.139-.709.333c.029-.447-.057-.783-.257-1.006-.201-.224-.552-.352-1.055-.385-.28-.018-.575.03-.887.145-.311.116-.539.342-.682.678l-1.683-.657a2.917 2.917 0 0 1 1.175-1.452c.552-.357 1.282-.506 2.19-.446.666.043 1.251.185 1.754.423.504.239.872.619 1.104 1.139.131.289.201.574.211.855.009.282.003.595-.02.939l-.301 4.61-1.663-.109.102-1.55.216.337c-.401.483-.823.825-1.267 1.025-.438.196-.983.272-1.635.23Zm.503-1.469c.349.023.646-.018.892-.124a1.95 1.95 0 0 0 .601-.388 1.81 1.81 0 0 0 .319-.379c.111-.199.183-.432.214-.702.037-.273.061-.501.073-.682l.55.176c-.57.056-1.031.106-1.385.148-.353.038-.638.075-.856.112-.218.037-.41.081-.577.131a1.972 1.972 0 0 0-.47.214.906.906 0 0 0-.27.263.758.758 0 0 0-.099.338.787.787 0 0 0 .097.455c.08.127.197.228.352.304.154.075.34.12.559.134Zm9.248 2.107c-.75-.049-1.365-.265-1.845-.647a3.243 3.243 0 0 1-1.045-1.499c-.212-.617-.293-1.303-.244-2.058.05-.754.22-1.423.51-2.007a3.261 3.261 0 0 1 1.204-1.353c.512-.317 1.127-.452 1.844-.405.722.047 1.339.261 1.852.64.513.38.896.88 1.15 1.5.259.615.364 1.307.313 2.076-.049.754-.24 1.422-.573 2.003a3.507 3.507 0 0 1-1.308 1.346c-.545.315-1.164.45-1.858.404Zm-3.922 2.9.714-10.897 1.676.11-.338 5.169.237.016-.375 5.727-1.914-.125Zm3.725-4.61c.41.027.752-.054 1.026-.242.275-.188.486-.45.634-.786.149-.341.237-.723.265-1.147a3.233 3.233 0 0 0-.121-1.159 1.795 1.795 0 0 0-.553-.871c-.257-.227-.597-.354-1.02-.382-.396-.026-.724.048-.983.223-.255.175-.449.431-.583.769a3.888 3.888 0 0 0-.247 1.19c-.03.457 0 .861.089 1.213.089.352.253.631.492.839.244.207.578.325 1.001.353Zm7.07 1.95.385-5.868-2.473-.161.11-1.677 6.845.448-.11 1.677-2.472-.162-.385 5.867-1.9-.124Zm5.687.372.494-7.544 1.9.125-.189 2.878 3.102.203.188-2.878 1.9.124-.494 7.544-1.9-.124.189-2.892-3.101-.203-.189 2.892-1.9-.125Zm13.455-7.761.11-1.677 1.676.11-.109 1.677-1.677-.11Zm-2.962-.194.11-1.676 1.677.109-.11 1.677-1.677-.11Zm1.854 8.974c-.773-.05-1.444-.26-2.014-.63a3.666 3.666 0 0 1-1.293-1.466c-.292-.609-.414-1.29-.364-2.044.054-.825.264-1.531.63-2.12a3.535 3.535 0 0 1 1.441-1.33c.595-.302 1.265-.429 2.01-.38.791.052 1.452.282 1.982.691s.905.96 1.126 1.652c.221.693.263 1.493.124 2.4l-1.879-.123.045-.698c.051-.769-.037-1.328-.261-1.68-.22-.356-.607-.552-1.161-.588-.648-.042-1.138.124-1.471.5-.329.371-.518.941-.568 1.709-.046.704.069 1.258.347 1.665.282.402.719.622 1.31.661.373.024.697-.036.973-.182a1.57 1.57 0 0 0 .654-.666l1.865.669a3.35 3.35 0 0 1-1.454 1.519 3.708 3.708 0 0 1-2.042.441Zm-2.275-3.614.093-1.411 5.001.327-.092 1.411-5.002-.327Zm10.97 4.184c-.75-.049-1.365-.265-1.845-.647a3.241 3.241 0 0 1-1.045-1.5c-.212-.617-.293-1.303-.244-2.057.049-.755.219-1.424.51-2.008.291-.584.692-1.035 1.204-1.352.512-.318 1.126-.453 1.844-.406.721.048 1.339.261 1.852.641.513.379.896.879 1.15 1.499.259.616.364 1.308.313 2.076-.049.754-.24 1.422-.573 2.004a3.5 3.5 0 0 1-1.309 1.345c-.544.315-1.163.45-1.857.405Zm-3.922 2.9.714-10.897 1.676.11-.338 5.169.237.015-.375 5.728-1.914-.125Zm3.725-4.611c.41.027.752-.054 1.026-.241.274-.188.486-.45.634-.787.149-.341.237-.723.265-1.147a3.225 3.225 0 0 0-.121-1.158 1.798 1.798 0 0 0-.553-.871c-.257-.227-.597-.355-1.02-.383-.396-.026-.724.049-.983.224-.255.175-.449.431-.584.768a3.919 3.919 0 0 0-.246 1.191c-.03.456 0 .86.089 1.212s.253.632.492.839c.244.208.578.325 1.001.353Zm8.607 2.261c-.759-.049-1.414-.263-1.964-.64a3.576 3.576 0 0 1-1.249-1.492c-.278-.622-.391-1.321-.34-2.099.052-.787.26-1.468.625-2.042a3.56 3.56 0 0 1 1.44-1.316c.595-.298 1.265-.422 2.01-.374.759.05 1.414.264 1.964.641.555.378.974.878 1.256 1.499.282.618.398 1.315.347 2.093-.051.782-.26 1.463-.625 2.042a3.558 3.558 0 0 1-1.44 1.316c-.595.298-1.269.422-2.024.372Zm.116-1.774c.61.04 1.078-.135 1.403-.525.33-.395.516-.916.558-1.563.044-.671-.075-1.216-.356-1.637-.276-.42-.715-.65-1.315-.689-.415-.027-.761.043-1.039.212a1.675 1.675 0 0 0-.644.737 3.25 3.25 0 0 0-.264 1.14c-.044.675.072 1.223.348 1.643.282.416.718.643 1.309.682Zm5.248 1.915.494-7.544 3.534.232c.28.018.523.05.731.097.207.041.38.088.517.139.337.125.639.346.903.662.265.317.378.759.341 1.327-.022.336-.093.605-.214.807-.12.198-.274.359-.459.482a1.782 1.782 0 0 1-.262.137 1.375 1.375 0 0 1-.258.082c.194.04.368.103.521.188.244.128.451.32.622.574.171.25.24.61.21 1.08-.033.503-.185.923-.455 1.261-.265.338-.647.561-1.145.669a3.658 3.658 0 0 1-.6.065 6.78 6.78 0 0 1-.708-.011l-3.772-.247Zm2.022-1.312 1.704.111c.098.007.199.004.303-.008.108-.016.205-.038.291-.065a.51.51 0 0 0 .306-.268 1 1 0 0 0 .117-.406c.013-.196-.021-.352-.102-.47a.73.73 0 0 0-.56-.345 2.78 2.78 0 0 0-.25-.03l-1.705-.112-.104 1.593Zm.2-3.06 1.16.076c.149.01.289.012.42.006.137-.009.25-.032.342-.068a.56.56 0 0 0 .289-.248.951.951 0 0 0 .119-.413.93.93 0 0 0-.076-.447.515.515 0 0 0-.311-.294 1.273 1.273 0 0 0-.387-.088 15.037 15.037 0 0 0-.293-.027l-1.159-.076-.104 1.579Z" opacity=".7"/></svg>