<svg xmlns="http://www.w3.org/2000/svg" width="320" height="751" fill="none"><g clip-path="url(#a)"><path stroke="url(#b)" d="M-81.99 796.867c-56.516-18.677-92.17-67.88-125.396-111.375-30.026-39.306-42.627-82.178-55.807-125.833-14.489-47.995-54.42-104.232-25.025-141.911 30.075-38.549 94.695-61.58 144.665-81.948 48.181-19.638 81.66-46.1 138.388-33.424 60.476 13.515 55.113 97.376 105.001 132.202 44.751 31.239 128.415 7.914 156.121 50.08 26.809 40.802-29.767 77.412-46.464 116.812-12.985 30.64-21.468 61.348-40.759 89.011-23.839 34.182-42.495 73.227-84.945 91.239-48.6 20.622-109.388 33.783-165.78 15.147Z" clip-rule="evenodd"/><path stroke="url(#c)" d="M11.162 780.127c-59.352-4.482-105.83-43.623-148.572-77.812-38.626-30.897-61.203-69.459-84.53-108.642-25.647-43.078-77.972-88.013-58.541-131.674 19.88-44.669 77.03-82.617 120.607-114.444 42.015-30.688 68.118-64.449 126.227-65.84 61.95-1.484 76.989 81.193 133.808 102.946 50.968 19.514 126.528-23.317 163.593 10.914 35.865 33.125-10.201 82.308-16.894 124.573-5.204 32.869-6.024 64.717-18.068 96.218-14.882 38.926-23.562 81.319-60.408 109.045-42.186 31.744-98 59.19-157.222 54.716Z" clip-rule="evenodd"/><g filter="url(#d)" opacity=".9"><path fill="url(#e)" fill-rule="evenodd" d="M461.193 654.866c-39.952.004-72.966-26.874-103.239-50.23-27.358-21.106-44.343-48.911-61.861-77.142-19.26-31.038-56.47-61.954-45.58-96.003 11.141-34.835 47.56-66.726 75.188-93.226 26.639-25.55 42.476-52.511 81.31-56.876 41.402-4.654 55.481 56.864 94.575 70.034 35.068 11.814 83.574-24.812 110.049-1.1 25.617 22.944-2.836 62.68-5.266 94.949-1.889 25.095-.893 49.17-7.427 73.624-8.074 30.217-11.828 62.697-35.15 85.717-26.702 26.357-62.735 50.248-102.599 50.253Z" clip-rule="evenodd"/></g><g filter="url(#f)" opacity=".6"><path fill="url(#g)" fill-rule="evenodd" d="M-.3 322.222c-15.04.117-27.391-15.801-38.72-29.627-10.24-12.495-16.554-29.011-23.068-45.778-7.161-18.435-21.08-36.746-16.884-57.061 4.294-20.784 18.096-39.886 28.572-55.752 10.102-15.297 16.14-31.403 30.773-34.115 15.599-2.891 20.723 33.716 35.402 41.45 13.168 6.937 31.533-15.021 41.431-.971 9.579 13.595-1.246 37.348-2.254 56.579-.783 14.955-.477 29.294-3.006 43.88-3.127 18.024-4.633 37.384-13.478 51.164C28.34 307.769 14.708 322.105-.3 322.222Z" clip-rule="evenodd"/></g></g><defs><linearGradient id="b" x1="-424.055" x2="164.38" y1="327.597" y2="399.518" gradientUnits="userSpaceOnUse"><stop stop-color="#270F69"/><stop offset="1" stop-color="#270F69" stop-opacity="0"/></linearGradient><linearGradient id="c" x1="-434.062" x2="154.333" y1="407.303" y2="335.058" gradientUnits="userSpaceOnUse"><stop stop-color="#270F69"/><stop offset="1" stop-color="#270F69" stop-opacity="0"/></linearGradient><linearGradient id="e" x1="141.2" x2="273.235" y1="487.57" y2="231.724" gradientUnits="userSpaceOnUse"><stop stop-color="#EE86FF"/><stop offset="1" stop-color="#270F69"/></linearGradient><linearGradient id="g" x1="-120.284" x2="-25.462" y1="223.477" y2="106.737" gradientUnits="userSpaceOnUse"><stop stop-color="#EE86FF"/><stop offset="1" stop-color="#270F69"/></linearGradient><filter id="d" width="773.703" height="773.727" x="48.555" y="81.138" color-interpolation-filters="sRGB" filterUnits="userSpaceOnUse"><feFlood flood-opacity="0" result="BackgroundImageFix"/><feBlend in="SourceGraphic" in2="BackgroundImageFix" result="shape"/><feGaussianBlur result="effect1_foregroundBlur_37_479" stdDeviation="100"/></filter><filter id="f" width="540.879" height="622.496" x="-279.744" y="-100.273" color-interpolation-filters="sRGB" filterUnits="userSpaceOnUse"><feFlood flood-opacity="0" result="BackgroundImageFix"/><feBlend in="SourceGraphic" in2="BackgroundImageFix" result="shape"/><feGaussianBlur result="effect1_foregroundBlur_37_479" stdDeviation="100"/></filter><clipPath id="a"><path fill="#fff" d="M0 0h320v751H0z"/></clipPath></defs></svg>