<svg width="71" height="71" viewBox="0 0 71 71" fill="none" xmlns="http://www.w3.org/2000/svg">
<circle cx="35.5" cy="35.1704" r="35" transform="rotate(90 35.5 35.1704)" fill="#3C1C79"/>
<circle cx="35.5" cy="35.1704" r="35" transform="rotate(90 35.5 35.1704)" fill="url(#paint0_linear_107_33)"/>
<g clip-path="url(#clip0_107_33)">
<path d="M28.8856 53.0286C29.342 53.0286 29.7124 52.6582 29.7124 52.2018C29.7124 51.7454 29.342 51.375 28.8856 51.375C28.4292 51.375 28.0588 51.7454 28.0588 52.2018C28.0588 52.6582 28.4292 53.0286 28.8856 53.0286Z" fill="white"/>
<path d="M19.7913 53.8555C19.7913 55.2231 20.9039 56.3358 22.2716 56.3358H48.7284C50.0961 56.3358 51.2087 55.2231 51.2087 53.8555V32.3593C51.2087 30.9916 50.0961 29.879 48.7284 29.879H47.9016V26.4065C47.9016 19.5683 42.3383 14.0049 35.5 14.0049C28.6617 14.0049 23.0984 19.5683 23.0984 26.4065V29.879H22.2716C20.9039 29.879 19.7913 30.9916 19.7913 32.3593V53.8555ZM24.7519 44.7609H21.4448V41.4538H24.7519V44.7609ZM21.4448 46.4145H24.7519V49.7216H21.4448V46.4145ZM24.7519 39.8003H21.4448V36.4932H24.7519V39.8003ZM46.2481 41.4538H49.5552V44.7609H46.2481V41.4538ZM49.5552 39.8003H46.2481V36.4932H49.5552V39.8003ZM46.2481 46.4145H49.5552V49.7216H46.2481V46.4145ZM24.7519 26.4065C24.7519 20.48 29.5735 15.6584 35.5 15.6584C41.4265 15.6584 46.2481 20.48 46.2481 26.4065V29.879H42.941V26.4065C42.941 22.3036 39.6029 18.9655 35.5 18.9655C31.397 18.9655 28.059 22.3036 28.059 26.4065V29.879H24.7519V26.4065ZM29.7126 29.879V26.4065C29.7126 23.2153 32.3088 20.6191 35.5 20.6191C38.6912 20.6191 41.2874 23.2153 41.2874 26.4065V29.879H29.7126ZM22.2716 31.5325H48.7284C49.1843 31.5325 49.5552 31.9034 49.5552 32.3593V34.8396H45.4213C44.9647 34.8396 44.5945 35.2098 44.5945 35.6664V50.5484C44.5945 51.005 44.9647 51.3751 45.4213 51.3751H49.5552V53.8555C49.5552 54.3113 49.1843 54.6822 48.7284 54.6822H22.2716C21.8157 54.6822 21.4448 54.3113 21.4448 53.8555V51.3751H25.5787C26.0353 51.3751 26.4055 51.005 26.4055 50.5484V35.6664C26.4055 35.2098 26.0353 34.8396 25.5787 34.8396H21.4448V32.3593C21.4448 31.9034 21.8157 31.5325 22.2716 31.5325Z" fill="white"/>
<path d="M32.192 52.946H42.1141C42.5708 52.946 42.9409 52.5759 42.9409 52.1193C42.9409 51.6626 42.5708 51.2925 42.1141 51.2925H32.192C31.7354 51.2925 31.3652 51.6626 31.3652 52.1193C31.3652 52.5759 31.7354 52.946 32.192 52.946Z" fill="white"/>
<path d="M32.7798 42.8988L35.1749 45.3117L39.4651 40.9897" stroke="white" stroke-width="2" stroke-linecap="round"/>
</g>
<defs>
<linearGradient id="paint0_linear_107_33" x1="-5.79165" y1="11.1104" x2="20.7557" y2="61.1842" gradientUnits="userSpaceOnUse">
<stop stop-color="#EE86FF"/>
<stop offset="1" stop-color="#270F69"/>
</linearGradient>
<clipPath id="clip0_107_33">
<rect width="42.3309" height="42.3309" fill="white" transform="translate(14.3345 14.0049)"/>
</clipPath>
</defs>
</svg>
