<svg width="71" height="71" viewBox="0 0 71 71" fill="none" xmlns="http://www.w3.org/2000/svg">
<circle cx="35.5" cy="35.1704" r="35" fill="#3C1C79"/>
<circle cx="35.5" cy="35.1704" r="35" fill="url(#paint0_linear_107_34)"/>
<g clip-path="url(#clip0_107_34)">
<path d="M43.7071 17.32V15.9521C43.215 15.9521 42.7236 15.9889 42.2371 16.0622L42.4418 17.4149C42.8606 17.3518 43.2835 17.3201 43.7071 17.32Z" fill="white"/>
<path d="M21.3964 19.7623C22.1707 18.988 23.0899 18.3738 24.1016 17.9547C25.1133 17.5356 26.1977 17.3199 27.2927 17.3199C28.3878 17.3199 29.4721 17.5356 30.4839 17.9547C31.4956 18.3738 32.4148 18.988 33.1891 19.7623L35.0162 21.5895C35.0797 21.653 35.1551 21.7033 35.2381 21.7377C35.3211 21.7721 35.41 21.7898 35.4999 21.7898C35.5897 21.7898 35.6786 21.7721 35.7616 21.7377C35.8446 21.7033 35.92 21.653 35.9835 21.5895L37.8106 19.7623C38.7502 18.815 39.9057 18.1101 41.1778 17.708L40.7647 16.4039C39.2855 16.8766 37.941 17.6965 36.8434 18.795L35.4999 20.1387L34.1564 18.7952C33.255 17.8938 32.185 17.1788 31.0073 16.691C29.8297 16.2032 28.5675 15.9521 27.2928 15.9521C26.0181 15.9521 24.7559 16.2032 23.5782 16.691C22.4006 17.1788 21.3305 17.8938 20.4292 18.7952C20.1212 19.1031 19.834 19.4311 19.5693 19.777L20.656 20.6076C20.8839 20.3098 21.1312 20.0275 21.3964 19.7623Z" fill="white"/>
<path d="M31.3928 49.6011H30.0249V50.9689H31.3928V49.6011Z" fill="white"/>
<path d="M40.9748 49.6011H39.6069V50.9689H40.9748V49.6011Z" fill="white"/>
<path d="M54.8643 42.1437C55.607 41.3994 56.0241 40.3907 56.0241 39.3392C56.0241 38.2877 55.607 37.2791 54.8643 36.5347L48.7735 30.4439C50.0303 29.1124 50.7126 27.3399 50.6732 25.5093C50.6337 23.6788 49.8755 21.9374 48.5624 20.6613C47.2494 19.3853 45.487 18.6772 43.6561 18.69C41.8252 18.7028 40.0729 19.4355 38.7778 20.7298L35.4999 24.0079L32.2219 20.7298C30.9272 19.4337 29.1743 18.6994 27.3424 18.6857C25.5105 18.6721 23.7469 19.3803 22.4331 20.6571C21.1194 21.9338 20.3611 23.6765 20.3224 25.508C20.2836 27.3396 20.9676 29.1128 22.2262 30.4439L16.1354 36.5347C15.3927 37.2791 14.9756 38.2877 14.9756 39.3392C14.9756 40.3907 15.3927 41.3994 16.1354 42.1437L20.4501 46.4583V46.8658H19.7661C19.5847 46.8658 19.4108 46.9379 19.2825 47.0661C19.1543 47.1944 19.0822 47.3683 19.0822 47.5497V54.389H20.4501V48.2337H32.7607V54.389H34.1286V47.5497C34.1286 47.3683 34.0565 47.1944 33.9283 47.0661C33.8 46.9379 33.626 46.8658 33.4447 46.8658H32.7607V44.1301C32.7595 43.1606 32.4156 42.2228 31.7899 41.4824C31.1641 40.7419 30.2968 40.2465 29.3411 40.0836V37.5656L31.4726 39.6972C32.5416 40.7636 33.9899 41.3624 35.4999 41.3624C37.0098 41.3624 38.4581 40.7636 39.5271 39.6972L41.6586 37.5656V40.0836C40.7029 40.2465 39.8356 40.7419 39.2098 41.4824C38.5841 42.2228 38.2402 43.1606 38.239 44.1301V46.8658H37.5551C37.3737 46.8658 37.1997 46.9379 37.0714 47.0661C36.9432 47.1944 36.8711 47.3683 36.8711 47.5497V54.389H38.239V48.2337H50.5496V54.389H51.9175V47.5497C51.9175 47.3683 51.8454 47.1944 51.7172 47.0661C51.5889 46.9379 51.415 46.8658 51.2336 46.8658H50.5496V46.4583L54.8643 42.1437ZM31.3929 44.1301V46.8658H21.8179V46.175C21.8179 46.0852 21.8002 45.9963 21.7659 45.9133C21.7315 45.8303 21.6811 45.7549 21.6176 45.6914L17.1022 41.1764C16.6157 40.6888 16.3425 40.028 16.3425 39.3392C16.3425 38.6504 16.6157 37.9897 17.1022 37.502L23.1897 31.4146L24.2459 32.4707C23.9926 32.8939 23.8591 33.378 23.8596 33.8712V35.915L21.2023 38.5724L22.1695 39.5397L23.8596 37.8495V40.7105H25.2275V33.8712C25.2281 33.5079 25.3724 33.1595 25.6291 32.9023C25.8857 32.645 26.2337 32.4998 26.597 32.4983H26.6006C26.9647 32.4984 27.3138 32.6431 27.5712 32.9005C27.8286 33.158 27.9733 33.5071 27.9733 33.8712V40.7105C27.9733 40.8919 28.0453 41.0658 28.1736 41.1941C28.3018 41.3223 28.4758 41.3944 28.6572 41.3944C29.3825 41.3952 30.0778 41.6837 30.5907 42.1966C31.1036 42.7094 31.3921 43.4048 31.3929 44.1301ZM38.5598 38.7299C37.7476 39.5403 36.6472 39.9953 35.4999 39.9953C34.3525 39.9953 33.2521 39.5403 32.4399 38.7299L29.3411 35.6311V33.8712C29.3411 33.1444 29.0524 32.4473 28.5385 31.9333C28.0246 31.4194 27.3275 31.1306 26.6007 31.1305H26.5937C26.1096 31.1314 25.6344 31.2614 25.2173 31.5071L23.331 29.6209C22.8043 29.102 22.3854 28.4841 22.0986 27.8026C21.8118 27.1211 21.6628 26.3897 21.66 25.6503C21.6572 24.911 21.8008 24.1784 22.0824 23.4948C22.3641 22.8112 22.7782 22.1901 23.301 21.6673C23.8238 21.1445 24.4449 20.7303 25.1285 20.4487C25.8122 20.167 26.5447 20.0235 27.2841 20.0262C28.0234 20.029 28.7549 20.1781 29.4364 20.4649C30.1178 20.7518 30.7358 21.1706 31.2546 21.6973L35.0162 25.4589C35.0797 25.5224 35.1551 25.5728 35.2381 25.6072C35.3211 25.6416 35.41 25.6593 35.4999 25.6593C35.5897 25.6593 35.6786 25.6416 35.7616 25.6072C35.8446 25.5728 35.92 25.5224 35.9835 25.4589L39.7451 21.6973C40.2646 21.1739 40.8825 20.7581 41.5631 20.474C42.2437 20.1898 42.9737 20.0428 43.7113 20.0415C44.4488 20.0401 45.1794 20.1843 45.861 20.466C46.5427 20.7476 47.1621 21.161 47.6836 21.6825C48.2051 22.204 48.6186 22.8234 48.9002 23.5051C49.1818 24.1867 49.3261 24.9173 49.3247 25.6548C49.3233 26.3924 49.1763 27.1224 48.8922 27.803C48.6081 28.4836 48.1923 29.1015 47.6689 29.621L45.7826 31.5073C45.3655 31.2616 44.8903 31.1316 44.4062 31.1306H44.3994C43.6726 31.1306 42.9755 31.4193 42.4614 31.9333C41.9474 32.4473 41.6587 33.1443 41.6586 33.8712V35.6311L38.5598 38.7299ZM39.6068 46.8658V44.1301C39.6076 43.4048 39.8961 42.7094 40.409 42.1966C40.9219 41.6837 41.6172 41.3952 42.3425 41.3944C42.5239 41.3944 42.6979 41.3223 42.8261 41.1941C42.9544 41.0658 43.0265 40.8919 43.0265 40.7105V33.8712C43.0265 33.6909 43.062 33.5124 43.131 33.3458C43.2 33.1792 43.3011 33.0279 43.4286 32.9004C43.5561 32.7729 43.7075 32.6718 43.874 32.6028C44.0406 32.5338 44.2191 32.4983 44.3994 32.4983H44.4029C44.7663 32.4999 45.1142 32.6451 45.3707 32.9024C45.6273 33.1596 45.7716 33.5079 45.7723 33.8712V40.7105H47.1401V37.8495L48.8303 39.5397L49.7974 38.5724L47.1401 35.915V33.8712C47.1405 33.378 47.0069 32.8939 46.7535 32.4707L47.8097 31.4146L53.8975 37.502C54.384 37.9897 54.6572 38.6504 54.6572 39.3392C54.6572 40.028 54.384 40.6888 53.8975 41.1764L49.3824 45.6914C49.3189 45.7549 49.2686 45.8303 49.2342 45.9133C49.1998 45.9963 49.1821 46.0852 49.1821 46.175V46.8658H39.6068Z" fill="white"/>
</g>
<defs>
<linearGradient id="paint0_linear_107_34" x1="-5.79165" y1="11.1104" x2="20.7557" y2="61.1842" gradientUnits="userSpaceOnUse">
<stop stop-color="#EE86FF"/>
<stop offset="1" stop-color="#270F69"/>
</linearGradient>
<clipPath id="clip0_107_34">
<rect width="42.3309" height="42.3309" fill="white" transform="translate(14.3345 14.0049)"/>
</clipPath>
</defs>
</svg>
