<svg width="71" height="71" viewBox="0 0 71 71" fill="none" xmlns="http://www.w3.org/2000/svg">
<circle cx="35.5" cy="35.1704" r="35" transform="rotate(-180 35.5 35.1704)" fill="#3C1C79"/>
<circle cx="35.5" cy="35.1704" r="35" transform="rotate(-180 35.5 35.1704)" fill="url(#paint0_linear_107_32)"/>
<g clip-path="url(#clip0_107_32)">
<path d="M51.5793 28.189H45.8669C45.5244 28.189 45.2468 28.4666 45.2468 28.809C45.2468 29.1515 45.5244 29.4291 45.8669 29.4291H51.5793C51.9218 29.4291 52.1994 29.1515 52.1994 28.809C52.1994 28.4666 51.9217 28.189 51.5793 28.189Z" fill="white"/>
<path d="M51.5793 32.4287H45.8669C45.5244 32.4287 45.2468 32.7063 45.2468 33.0488C45.2468 33.3912 45.5244 33.6689 45.8669 33.6689H51.5793C51.9218 33.6689 52.1994 33.3912 52.1994 33.0488C52.1994 32.7063 51.9217 32.4287 51.5793 32.4287Z" fill="white"/>
<path d="M51.5793 23.9409H45.8669C45.5244 23.9409 45.2468 24.2185 45.2468 24.561C45.2468 24.9035 45.5244 25.1811 45.8669 25.1811H51.5793C51.9218 25.1811 52.1994 24.9035 52.1994 24.561C52.1994 24.2185 51.9217 23.9409 51.5793 23.9409Z" fill="white"/>
<path d="M51.5795 36.6689H36.4519C36.1093 36.6689 35.8318 36.9466 35.8318 37.289C35.8318 37.6315 36.1093 37.9091 36.4519 37.9091H51.5795C51.922 37.9091 52.1996 37.6315 52.1996 37.289C52.1996 36.9466 51.9219 36.6689 51.5795 36.6689Z" fill="white"/>
<path d="M52.1994 41.5293C52.1994 41.1868 51.9218 40.9092 51.5793 40.9092H40.063C39.7204 40.9092 39.4429 41.1868 39.4429 41.5293C39.4429 41.8717 39.7204 42.1493 40.063 42.1493H51.5793C51.9217 42.1493 52.1994 41.8717 52.1994 41.5293Z" fill="white"/>
<path d="M43.8679 45.1494C43.5254 45.1494 43.2478 45.427 43.2478 45.7695C43.2478 46.1119 43.5254 46.3896 43.8679 46.3896H44.7062C45.0488 46.3896 45.3263 46.1119 45.3263 45.7695C45.3263 45.427 45.0488 45.1494 44.7062 45.1494H43.8679Z" fill="white"/>
<path d="M56.6634 47.0698V34.6126C56.6634 34.2701 56.3858 33.9925 56.0433 33.9925C55.7008 33.9925 55.4232 34.2701 55.4232 34.6126V46.4496H48.1941C47.5418 46.4496 47.0111 46.9803 47.0111 47.6326V54.8617H41.6618C41.7062 54.6346 41.6904 54.9306 41.6904 48.4946C41.6904 48.3844 41.6874 48.2764 41.6817 48.1706C41.533 45.4189 39.5129 44.1276 38.7916 43.7525C38.6529 43.6804 38.5623 43.6422 38.5422 43.6339C38.5392 43.6327 38.5361 43.6314 38.5331 43.6303L31.4565 40.8515L31.4541 39.5601C32.7686 38.6156 33.6213 37.1786 33.8257 35.6003C34.9245 35.5054 35.8243 34.7121 36.0814 33.6692H41.5863C42.3728 33.6692 43.0126 33.0294 43.0126 32.243V25.3672C43.0126 24.5808 42.3728 23.941 41.5863 23.941H34.0118C33.769 23.941 33.5372 24.002 33.333 24.1125C32.0853 22.8118 30.4089 22.0105 28.6325 21.8639V15.4648H55.4232V31.7189C55.4232 32.0613 55.7008 32.339 56.0433 32.339C56.3858 32.339 56.6634 32.0613 56.6634 31.7189V15.4076C56.6634 14.7553 56.1327 14.2246 55.4804 14.2246H28.5753C27.923 14.2246 27.3923 14.7553 27.3923 15.4076V21.8634C23.6099 22.1775 20.6281 25.3558 20.6281 29.2179V31.2432C19.0766 32.7642 20.0287 35.4152 22.1925 35.5996C22.4028 37.2272 23.2905 38.6445 24.5634 39.5595V40.8531L17.4917 43.63C17.4886 43.6312 17.4856 43.6324 17.4826 43.6336C17.3541 43.6866 14.3345 44.9686 14.3345 48.4945V54.8495C14.3345 55.5401 14.8963 56.1018 15.5868 56.1018H26.5616C26.9041 56.1018 27.1817 55.8241 27.1817 55.4817C27.1817 55.1392 26.9041 54.8616 26.5616 54.8616H21.1392V51.6001C21.1392 51.2577 20.8616 50.9801 20.5191 50.9801C20.1766 50.9801 19.899 51.2577 19.899 51.6001V54.8616C19.8801 54.8616 15.5746 54.8683 15.5746 54.8495V48.4945C15.5746 45.8355 17.8232 44.8366 17.9515 44.782L24.5725 42.182C24.6205 42.4752 24.5015 42.3077 27.5985 45.0351C27.7157 45.1383 27.8621 45.1899 28.0084 45.1899C28.0091 45.1899 28.0098 45.1898 28.0105 45.1898C28.1574 45.1902 28.3044 45.1387 28.4221 45.0352L31.2469 42.5476C31.3556 42.4519 31.4265 42.322 31.4493 42.181L38.0725 44.7818C38.0764 44.7835 38.0826 44.7862 38.0896 44.7893C38.314 44.8901 40.4501 45.9194 40.4501 48.4947C40.4501 54.9798 40.4619 54.5984 40.4269 54.681C40.3819 54.7871 40.2767 54.8618 40.1544 54.8618H36.1258V51.6003C36.1258 51.2578 35.8482 50.9802 35.5057 50.9802C35.1631 50.9802 34.8856 51.2578 34.8856 51.6003V54.8618H29.4554C29.1129 54.8618 28.8353 55.1394 28.8353 55.4819C28.8353 55.8243 29.1129 56.1019 29.4554 56.1019C48.8381 56.1019 47.7989 56.1911 48.0698 55.9203C57.0249 46.9652 56.6634 47.4226 56.6634 47.0698ZM33.8743 34.3417V31.7817C35.2339 32.0536 35.2709 34.0502 33.8743 34.3417ZM41.5863 25.1808C41.6889 25.1809 41.7724 25.2644 41.7724 25.367V32.2427C41.7724 32.3453 41.6889 32.4288 41.5863 32.4288H36.0751C35.9578 31.9715 35.7162 31.5637 35.3889 31.2429C35.3889 29.1684 35.6173 27.356 34.187 25.1808H41.5863ZM22.1429 34.3418C21.5498 34.2179 21.1028 33.691 21.1028 33.0616C21.1028 32.3942 21.591 31.8933 22.1429 31.7823V34.3418ZM22.4211 29.6884C22.1077 29.9665 22.143 30.2999 22.143 30.5276C22.0618 30.5361 21.9704 30.5502 21.8684 30.5718V29.2177C21.8684 25.8353 24.6223 23.0676 28.0285 23.078C31.2202 23.0883 33.8247 25.5435 34.1188 28.6161C34.157 29.0066 34.1487 29.1778 34.1487 30.5719C34.0491 30.5507 33.9562 30.5363 33.8743 30.5277C33.8743 29.7925 33.9688 30.0836 31.6728 27.6156C31.3826 27.3035 30.9075 27.2621 30.5698 27.5175C30.5424 27.538 27.7954 29.555 24.2174 29.555C23.8331 29.555 23.4471 29.5317 23.068 29.4857C22.8336 29.4579 22.5984 29.5316 22.4211 29.6884ZM28.0104 43.7418L25.8077 41.8019C25.8077 41.6375 25.8038 41.0961 25.8038 40.2391C27.1579 40.7769 28.8032 40.8007 30.2132 40.2391V41.8019H30.2133L28.0104 43.7418ZM25.5146 38.7062C25.5135 38.7055 25.5122 38.705 25.5111 38.7043C24.2174 37.8866 23.3831 36.4498 23.3831 34.8534C23.3831 34.3461 23.3831 31.2832 23.3831 30.7631C26.0573 30.9698 28.8462 30.1256 31.0065 28.7203L32.634 30.4698C32.6341 35.1183 32.6317 34.9438 32.6317 34.9438C32.55 38.5376 28.5217 40.6041 25.5146 38.7062ZM48.2514 53.9846V47.6897H54.5464L48.2514 53.9846Z" fill="white"/>
</g>
<defs>
<linearGradient id="paint0_linear_107_32" x1="-5.79163" y1="11.1104" x2="20.7557" y2="61.1842" gradientUnits="userSpaceOnUse">
<stop stop-color="#EE86FF"/>
<stop offset="1" stop-color="#270F69"/>
</linearGradient>
<clipPath id="clip0_107_32">
<rect width="42.3309" height="42.3309" fill="white" transform="translate(14.3345 14.0049)"/>
</clipPath>
</defs>
</svg>
