<svg width="184" height="125" viewBox="0 0 184 125" fill="none" xmlns="http://www.w3.org/2000/svg">
<rect opacity="0.7" x="1.43101" y="1.04148" width="181.61" height="123.098" rx="22.8528" stroke="white" stroke-width="1.02217"/>
<g clip-path="url(#clip0_1_2097)">
<path fill-rule="evenodd" clip-rule="evenodd" d="M62.7924 78.2244C66.4299 78.2244 70.3762 79.4511 74.7456 83.2584C75.1833 83.6395 75.766 83.1657 75.3834 82.692C71.0906 77.3602 67.1201 76.3452 63.1603 75.4877C58.3156 74.437 55.8248 71.7559 54.0887 68.8128C53.7436 68.2278 53.5878 68.3311 53.5569 69.084C53.518 70.0038 53.5838 71.2226 53.7933 72.4215C53.5972 72.4295 53.4012 72.4281 53.2024 72.4281C46.2739 72.4281 40.6558 66.9018 40.6558 60.0853C40.6558 53.2701 46.2739 47.7451 53.2038 47.7451C60.1324 47.7451 65.7505 53.2701 65.7505 60.0853C65.7505 60.571 65.7263 61.0513 65.6699 61.5211C64.7541 61.3584 62.9508 61.3398 61.686 61.447C61.2106 61.488 61.2778 61.7064 61.6376 61.7699C65.7854 62.507 68.6334 65.0359 69.2859 69.624C69.2994 69.7298 69.4417 69.7603 69.4967 69.669C71.2604 66.7748 72.1894 63.4613 72.1836 60.0853C72.1836 49.7764 63.6853 41.4169 53.2038 41.4169C42.7209 41.4169 34.2227 49.7751 34.2227 60.0853C34.2227 70.3968 42.7209 78.7564 53.2038 78.7564C55.9833 78.7564 58.744 78.2244 62.7924 78.2244ZM64.205 71.4462C65.0495 72.1476 65.306 72.9826 64.8602 73.5715C64.6118 73.8944 64.209 74.073 63.7256 74.073C63.254 74.0731 62.7974 73.9102 62.4352 73.6125C61.6672 72.9522 61.4416 71.8829 61.9424 71.2755C62.1385 71.0373 62.4567 70.9063 62.838 70.9063C63.3013 70.9063 63.7874 71.0982 64.205 71.4462ZM68.1016 69.6623C68.2252 70.4802 67.9633 70.8189 67.6988 70.8189C67.4101 70.8189 67.0489 70.4881 66.6233 69.833C66.2016 69.1873 66.0472 68.4462 66.2567 68.0717C66.3936 67.8242 66.6823 67.7157 67.0462 67.852C67.7512 68.1127 68.0264 69.174 68.1016 69.6623ZM94.4115 65.3879L92.2228 62.7981C92.1715 62.7371 92.1389 62.6629 92.1288 62.5842C92.1188 62.5055 92.1317 62.4256 92.1661 62.354C92.2005 62.2823 92.2549 62.2217 92.323 62.1795C92.3911 62.1372 92.47 62.1149 92.5504 62.1153H97.1279C97.3454 61.4775 97.4689 60.7959 97.4689 60.0866C97.4689 56.8444 95.0144 54.0482 91.6468 54.0482C88.2792 54.0482 85.8246 56.8444 85.8246 60.0866C85.8246 63.3288 88.2792 66.0867 91.6468 66.0867C92.6673 66.0867 93.6018 65.8299 94.4128 65.3866L94.4115 65.3879ZM104.313 69.7616C104.551 70.021 104.356 70.4365 103.997 70.4365H99.0024C98.902 70.4366 98.8028 70.415 98.7118 70.3731C98.6209 70.3313 98.5404 70.2702 98.476 70.1943L97.6301 69.1926C95.8486 70.3312 93.7701 70.9362 91.6468 70.9341C85.5655 70.9341 80.6188 66.0681 80.6188 60.0866C80.6188 54.1051 85.5655 49.2392 91.6468 49.2392C97.7281 49.2392 102.675 54.1051 102.675 60.0866C102.675 62.2437 102.03 64.2525 100.923 65.9437L104.313 69.7616ZM150.462 49.7407H146.384C146.241 49.7411 146.103 49.7974 146.002 49.8973C145.9 49.9972 145.843 50.1327 145.843 50.274V69.9032C145.843 70.1983 146.085 70.4365 146.384 70.4365H150.462C150.761 70.4365 151.004 70.1983 151.004 69.9032V50.2727C151.004 50.1309 150.947 49.9949 150.846 49.8947C150.744 49.7944 150.606 49.7381 150.462 49.7381V49.7407ZM143.601 49.7407H139.041C138.925 49.7403 138.812 49.7764 138.718 49.8438C138.625 49.9112 138.556 50.0063 138.521 50.1152L134.912 61.7157L130.944 50.102C130.907 49.996 130.838 49.904 130.746 49.839C130.654 49.7739 130.543 49.7391 130.429 49.7394H127.247C127.133 49.739 127.023 49.7738 126.93 49.8388C126.838 49.9039 126.768 49.9959 126.732 50.102L122.765 61.7157L119.156 50.1152C119.121 50.006 119.052 49.9106 118.959 49.843C118.865 49.7753 118.752 49.739 118.636 49.7394H114.075C113.989 49.7395 113.905 49.7596 113.828 49.798C113.752 49.8364 113.686 49.8921 113.636 49.9604C113.585 50.0281 113.552 50.1067 113.539 50.1896C113.526 50.2725 113.533 50.3572 113.56 50.4368L120.261 70.0765C120.335 70.2936 120.543 70.4391 120.775 70.4391H124.395C124.629 70.4391 124.836 70.2936 124.909 70.0779L128.838 58.6031L132.766 70.0765C132.84 70.2936 133.048 70.4391 133.28 70.4391H136.902C137.135 70.4391 137.342 70.2936 137.416 70.0765L144.116 50.4368C144.143 50.3573 144.151 50.2726 144.138 50.1898C144.125 50.1069 144.092 50.0283 144.042 49.9604C143.992 49.892 143.925 49.8363 143.849 49.7979C143.772 49.7595 143.688 49.7394 143.602 49.7394L143.601 49.7407ZM111.834 50.274V69.9032C111.834 70.1983 111.592 70.4365 111.291 70.4365H107.215C107.071 70.4365 106.933 70.3804 106.832 70.2804C106.73 70.1804 106.673 70.0448 106.672 69.9032V50.2727C106.672 49.9776 106.914 49.7381 107.215 49.7381H111.291C111.591 49.7381 111.834 49.9776 111.834 50.274Z" fill="white"/>
</g>
<defs>
<clipPath id="clip0_1_2097">
<rect width="116.819" height="42.347" fill="white" transform="translate(33.8281 41.4171)"/>
</clipPath>
</defs>
</svg>
