<svg width="184" height="125" viewBox="0 0 184 125" fill="none" xmlns="http://www.w3.org/2000/svg">
<path d="M84.8716 78.9704H76.348L81.6752 46.2317H90.1996L84.8716 78.9704ZM69.1775 46.2317L61.0514 68.7497L60.0899 63.9007L60.0908 63.9024L57.2227 49.1795C57.2227 49.1795 56.8759 46.2317 53.1794 46.2317H39.7455L39.5879 46.7861C39.5879 46.7861 43.696 47.6408 48.5038 50.5281L55.9091 78.9713H64.79L78.3508 46.2317H69.1775ZM136.22 78.9704H144.046L137.223 46.2308H130.371C127.207 46.2308 126.436 48.6707 126.436 48.6707L113.724 78.9704H122.609L124.386 74.1075H135.222L136.22 78.9704ZM126.841 67.3896L131.319 55.138L133.839 67.3896H126.841ZM114.39 54.1046L115.607 47.0742C115.607 47.0742 111.853 45.6467 107.94 45.6467C103.711 45.6467 93.6658 47.4954 93.6658 56.4849C93.6658 64.9428 105.455 65.0479 105.455 69.4905C105.455 73.9332 94.8805 73.1371 91.3906 70.3356L90.1234 77.6866C90.1234 77.6866 93.9294 79.5353 99.7443 79.5353C105.561 79.5353 114.336 76.5236 114.336 68.3267C114.336 59.8145 102.441 59.0219 102.441 55.321C102.442 51.6193 110.743 52.0948 114.39 54.1046Z" fill="white"/>
<path d="M60.0908 63.9015L57.2227 49.1786C57.2227 49.1786 56.8759 46.2308 53.1794 46.2308H39.7455L39.5879 46.7852C39.5879 46.7852 46.0447 48.1233 52.238 53.1369C58.1597 57.929 60.0908 63.9015 60.0908 63.9015Z" fill="#EE86FF"/>
<rect opacity="0.7" x="1.01108" y="1.0416" width="181.61" height="123.098" rx="22.8528" stroke="white" stroke-width="1.02217"/>
</svg>
