<svg width="184" height="125" viewBox="0 0 184 125" fill="none" xmlns="http://www.w3.org/2000/svg">
<rect opacity="0.7" x="0.905616" y="1.0416" width="181.61" height="123.098" rx="22.8528" stroke="white" stroke-width="1.02217"/>
<path d="M59.5935 101.827V96.5934C59.5935 94.5916 58.3834 93.2808 56.3062 93.2808C55.2675 93.2808 54.1382 93.6263 53.3617 94.7643C52.7567 93.8092 51.8895 93.2808 50.5887 93.2808C49.7215 93.2808 48.8543 93.545 48.1686 94.5001V93.4535H46.3535V101.827H48.1686V97.2031C48.1686 95.7195 48.945 95.0184 50.1551 95.0184C51.3651 95.0184 51.9702 95.8008 51.9702 97.2031V101.827H53.7852V97.2031C53.7852 95.7195 54.6524 95.0184 55.7717 95.0184C56.9818 95.0184 57.5868 95.8008 57.5868 97.2031V101.827H59.5935ZM86.5171 93.4535H83.5726V90.9233H81.7575V93.4535H80.1139V95.1098H81.7575V98.9509C81.7575 100.871 82.534 101.999 84.6112 101.999C85.3877 101.999 86.2549 101.735 86.8599 101.39L86.3355 99.8146C85.8112 100.16 85.2062 100.252 84.7726 100.252C83.9054 100.252 83.5625 99.7231 83.5625 98.8594V95.1098H86.507V93.4535H86.5171ZM101.925 93.2706C100.886 93.2706 100.191 93.799 99.757 94.49V93.4434H97.9419V101.816H99.757V97.1015C99.757 95.7094 100.362 94.9168 101.491 94.9168C101.834 94.9168 102.268 95.0082 102.621 95.0895L103.145 93.3417C102.782 93.2706 102.268 93.2706 101.925 93.2706ZM78.6417 94.1445C77.7744 93.5348 76.5644 93.2706 75.2636 93.2706C73.1863 93.2706 71.8049 94.3172 71.8049 95.9736C71.8049 97.3657 72.8435 98.1583 74.6586 98.4123L75.5258 98.5038C76.4736 98.6765 76.998 98.9407 76.998 99.3777C76.998 99.9873 76.3022 100.424 75.0922 100.424C73.8821 100.424 72.9242 99.9873 72.3191 99.5504L71.4519 100.943C72.3998 101.644 73.7006 101.989 75.0014 101.989C77.4215 101.989 78.8131 100.851 78.8131 99.2862C78.8131 97.8026 77.6837 97.0202 75.9594 96.756L75.0922 96.6645C74.3157 96.5731 73.7107 96.4003 73.7107 95.8821C73.7107 95.2724 74.3157 94.9269 75.2737 94.9269C76.3123 94.9269 77.3509 95.3639 77.8753 95.6281L78.6417 94.1445ZM126.933 93.2706C125.894 93.2706 125.198 93.799 124.765 94.49V93.4434H122.95V101.816H124.765V97.1015C124.765 95.7094 125.37 94.9168 126.499 94.9168C126.842 94.9168 127.276 95.0082 127.628 95.0895L128.153 93.3621C127.8 93.2706 127.286 93.2706 126.933 93.2706ZM103.74 97.64C103.74 100.17 105.474 101.999 108.157 101.999C109.367 101.999 110.234 101.735 111.101 101.044L110.234 99.5606C109.538 100.089 108.853 100.343 108.066 100.343C106.594 100.343 105.555 99.2964 105.555 97.64C105.555 96.065 106.594 95.0184 108.066 94.9371C108.842 94.9371 109.538 95.2013 110.234 95.7195L111.101 94.2359C110.234 93.5348 109.367 93.2808 108.157 93.2808C105.474 93.2706 103.74 95.1098 103.74 97.64ZM120.53 97.64V93.4535H118.714V94.5001C118.109 93.7177 117.242 93.2808 116.113 93.2808C113.773 93.2808 111.958 95.1098 111.958 97.64C111.958 100.17 113.773 101.999 116.113 101.999C117.323 101.999 118.19 101.562 118.714 100.78V101.827H120.53V97.64ZM113.864 97.64C113.864 96.1565 114.812 94.9371 116.375 94.9371C117.847 94.9371 118.886 96.0752 118.886 97.64C118.886 99.1236 117.847 100.343 116.375 100.343C114.822 100.252 113.864 99.1135 113.864 97.64ZM92.1438 93.2706C89.7237 93.2706 87.9893 95.0184 87.9893 97.6299C87.9893 100.252 89.7237 101.989 92.2345 101.989C93.4446 101.989 94.6546 101.644 95.6126 100.851L94.7454 99.5402C94.0496 100.069 93.1824 100.414 92.3253 100.414C91.1959 100.414 90.0766 99.8857 89.8144 98.4123H95.9554C95.9554 98.1481 95.9554 97.9754 95.9554 97.7112C96.0361 95.0184 94.4731 93.2706 92.1438 93.2706ZM92.1438 94.8456C93.2732 94.8456 94.0496 95.5468 94.221 96.8474H89.8951C90.0665 95.7195 90.843 94.8456 92.1438 94.8456ZM137.238 97.64V90.1409H135.423V94.5001C134.818 93.7177 133.951 93.2808 132.822 93.2808C130.482 93.2808 128.667 95.1098 128.667 97.64C128.667 100.17 130.482 101.999 132.822 101.999C134.032 101.999 134.899 101.562 135.423 100.78V101.827H137.238V97.64ZM130.573 97.64C130.573 96.1565 131.521 94.9371 133.084 94.9371C134.556 94.9371 135.595 96.0752 135.595 97.64C135.595 99.1236 134.556 100.343 133.084 100.343C131.521 100.252 130.573 99.1135 130.573 97.64ZM69.8083 97.64V93.4535H67.9932V94.5001C67.3882 93.7177 66.521 93.2808 65.3916 93.2808C63.0522 93.2808 61.2371 95.1098 61.2371 97.64C61.2371 100.17 63.0522 101.999 65.3916 101.999C66.6017 101.999 67.4689 101.562 67.9932 100.78V101.827H69.8083V97.64ZM63.0623 97.64C63.0623 96.1565 64.0101 94.9371 65.5731 94.9371C67.0453 94.9371 68.084 96.0752 68.084 97.64C68.084 99.1236 67.0453 100.343 65.5731 100.343C64.0101 100.252 63.0623 99.1135 63.0623 97.64Z" fill="white"/>
<circle cx="72.2787" cy="54.6003" r="31.4193" fill="#8468B9"/>
<circle cx="111.142" cy="54.6004" r="31.4193" fill="#EE86FF" fill-opacity="0.54"/>
</svg>
