<svg width="184" height="125" viewBox="0 0 184 125" fill="none" xmlns="http://www.w3.org/2000/svg">
<path fill-rule="evenodd" clip-rule="evenodd" d="M67.5183 57.2292C67.5183 53.6176 67.825 51.3255 75.4003 45.7423C81.6718 41.1198 101.774 25.3236 101.774 25.3236V51.6924H117.062V89.6438H72.2931C69.667 89.6438 67.5176 87.5215 67.5176 84.9284L67.5183 57.2292Z" fill="white"/>
<path fill-rule="evenodd" clip-rule="evenodd" d="M101.773 51.6919V66.9707L73.6816 85.8666L109.198 74.4564V51.6919H101.773Z" fill="#EE86FF"/>
<path fill-rule="evenodd" clip-rule="evenodd" d="M88.9367 50.9019C90.5796 48.9691 92.9788 48.287 94.2962 49.3783C95.6135 50.4699 95.3502 52.9217 93.7073 54.8545C92.0657 56.787 89.6655 57.4684 88.3482 56.3768C87.0308 55.2854 87.2949 52.8344 88.9367 50.9019Z" fill="#231F20"/>
<rect opacity="0.7" x="1.48374" y="1.0416" width="181.61" height="123.098" rx="22.8528" stroke="white" stroke-width="1.02217"/>
</svg>
