<svg width="184" height="125" viewBox="0 0 184 125" fill="none" xmlns="http://www.w3.org/2000/svg">
<rect opacity="0.7" x="1.37827" y="1.0416" width="181.61" height="123.098" rx="22.8528" stroke="white" stroke-width="1.02217"/>
<path d="M71.8943 101.778V96.5369C71.9247 96.0974 71.8617 95.6564 71.7098 95.2433C71.5578 94.8302 71.3203 94.4546 71.013 94.1415C70.7058 93.8284 70.3359 93.585 69.9281 93.4276C69.5202 93.2701 69.0838 93.2022 68.6479 93.2284C68.0772 93.1911 67.5069 93.3087 66.9965 93.5691C66.4861 93.8295 66.0541 94.2232 65.7456 94.7091C65.4648 94.2378 65.0634 93.8516 64.5835 93.591C64.1037 93.3304 63.563 93.2052 63.0186 93.2284C62.544 93.2053 62.0717 93.3073 61.6482 93.5244C61.2246 93.7415 60.8645 94.0663 60.6032 94.4667V93.4381H58.8047V101.772H60.6422V97.1855C60.6059 96.9012 60.6317 96.6122 60.7178 96.3389C60.804 96.0657 60.9483 95.8148 61.1407 95.6038C61.3331 95.3928 61.5689 95.2268 61.8316 95.1175C62.0944 95.0082 62.3776 94.9583 62.6614 94.9711C63.8561 94.9711 64.46 95.7573 64.46 97.1659V101.804H66.2715V97.2183C66.2352 96.9339 66.2611 96.645 66.3472 96.3717C66.4333 96.0985 66.5776 95.8475 66.77 95.6365C66.9624 95.4255 67.1983 95.2596 67.461 95.1503C67.7237 95.041 68.0069 94.991 68.2908 95.0039C69.518 95.0039 70.1023 95.7901 70.1023 97.1986V101.837L71.8943 101.778ZM82.0168 97.6114V93.4447H80.2182V94.4536C79.9127 94.0565 79.5177 93.7388 79.0659 93.5269C78.6142 93.315 78.1189 93.2149 77.6211 93.235C76.5118 93.2963 75.468 93.7841 74.7042 94.5981C73.9404 95.4121 73.5148 96.4904 73.5148 97.6114C73.5148 98.7323 73.9404 99.8107 74.7042 100.625C75.468 101.439 76.5118 101.926 77.6211 101.988C78.1189 102.008 78.6142 101.908 79.0659 101.696C79.5177 101.484 79.9127 101.166 80.2182 100.769V101.778H82.0168V97.6114ZM75.3291 97.6114C75.3554 96.9587 75.6343 96.3425 76.1058 95.8949C76.5773 95.4473 77.2039 95.2041 77.8512 95.2173C78.4984 95.2306 79.1147 95.4994 79.5678 95.9659C80.0209 96.4325 80.2746 97.0597 80.2746 97.7129C80.2746 98.3661 80.0209 98.9933 79.5678 99.4599C79.1147 99.9264 78.4984 100.195 77.8512 100.208C77.2039 100.222 76.5773 99.9785 76.1058 99.531C75.6343 99.0834 75.3554 98.4671 75.3291 97.8144C75.3248 97.7446 75.3248 97.6769 75.3291 97.6114ZM120.455 93.2284C121.062 93.2222 121.664 93.3357 122.227 93.5626C122.752 93.7746 123.231 94.0884 123.636 94.4863C124.035 94.882 124.35 95.3543 124.565 95.8752C125.013 96.9907 125.013 98.2386 124.565 99.3541C124.35 99.875 124.035 100.347 123.636 100.743C123.231 101.141 122.752 101.455 122.227 101.667C121.087 102.114 119.822 102.114 118.682 101.667C118.159 101.455 117.682 101.141 117.28 100.743C116.882 100.347 116.566 99.8745 116.351 99.3541C115.903 98.2385 115.903 96.9908 116.351 95.8752C116.567 95.3549 116.882 94.8828 117.28 94.4863C117.682 94.0882 118.159 93.7743 118.682 93.5626C119.245 93.3335 119.847 93.2177 120.455 93.2219V93.2284ZM120.455 94.9449C120.103 94.942 119.755 95.0087 119.429 95.1415C119.122 95.2667 118.843 95.454 118.611 95.6918C118.375 95.9341 118.19 96.2214 118.065 96.5369C117.801 97.2351 117.801 98.0073 118.065 98.7054C118.19 99.021 118.375 99.3084 118.611 99.5506C118.843 99.7884 119.122 99.9757 119.429 100.101C120.088 100.362 120.821 100.362 121.481 100.101C121.789 99.9753 122.07 99.7882 122.305 99.5506C122.541 99.3087 122.727 99.0212 122.851 98.7054C123.115 98.0073 123.115 97.2351 122.851 96.5369C122.727 96.2211 122.541 95.9337 122.305 95.6918C122.07 95.4542 121.789 95.267 121.481 95.1415C121.155 95.0065 120.807 94.9375 120.455 94.9384V94.9449ZM91.8081 97.6114C91.8081 94.9908 90.2043 93.235 87.9123 93.235C87.3428 93.2432 86.7803 93.3645 86.2572 93.592C85.7341 93.8194 85.2605 94.1486 84.8635 94.5608C84.4665 94.973 84.1538 95.46 83.9433 95.9941C83.7328 96.5282 83.6287 97.0989 83.6368 97.6736C83.6449 98.2483 83.7651 98.8158 83.9905 99.3436C84.216 99.8715 84.5422 100.349 84.9507 100.75C85.3592 101.151 85.8419 101.466 86.3712 101.678C86.9005 101.891 87.4661 101.996 88.0357 101.988C89.2669 102.031 90.4709 101.616 91.4185 100.822L90.5355 99.5113C89.8529 100.063 89.0076 100.37 88.1331 100.383C87.5402 100.433 86.9512 100.248 86.4908 99.8677C86.0304 99.4874 85.7345 98.9414 85.6658 98.3451H91.7951C91.7691 98.0831 91.8081 97.8538 91.8081 97.6114ZM85.6593 96.8776C85.6896 96.3174 85.9364 95.7916 86.3467 95.413C86.7571 95.0345 87.2982 94.8335 87.8539 94.8532C88.397 94.8427 88.922 95.0499 89.314 95.4294C89.7059 95.8088 89.9327 96.3296 89.9446 96.8776H85.6593ZM99.3723 95.5673C98.5815 95.1087 97.6872 94.8629 96.7751 94.8532C95.7882 94.8532 95.2038 95.2201 95.2038 95.8294C95.2038 96.4387 95.8531 96.5435 96.5998 96.6483L97.4439 96.7728C99.2424 97.0348 100.327 97.8014 100.327 99.2623C100.327 100.848 98.9438 101.981 96.5609 101.981C95.2843 102.017 94.03 101.638 92.9833 100.9L93.8273 99.4916C94.6202 100.084 95.5875 100.391 96.5739 100.363C97.801 100.363 98.4568 99.9961 98.4568 99.3541C98.4568 98.8824 97.9893 98.6203 97.0089 98.4827L96.1648 98.3582C94.3143 98.0962 93.3144 97.2576 93.3144 95.9014C93.3144 94.2439 94.6584 93.235 96.7491 93.235C97.932 93.1936 99.1017 93.496 100.119 94.1064L99.3723 95.5673ZM108.001 95.0956H105.067V98.8627C105.067 99.7013 105.359 100.258 106.261 100.258C106.823 100.239 107.37 100.077 107.852 99.7864L108.371 101.339C107.699 101.767 106.92 101.994 106.125 101.994C104.002 101.994 103.255 100.841 103.255 98.9085V95.1087H101.547V93.4512H103.223V90.9224H105.034V93.4512H107.969L108.001 95.0956ZM114.222 93.2284C114.664 93.2287 115.104 93.3063 115.52 93.4578L114.968 95.1677C114.611 95.0241 114.229 94.9528 113.845 94.958C112.67 94.958 112.085 95.7246 112.085 97.1004V101.772H110.248V93.4447H112.027V94.4536C112.247 94.0719 112.566 93.7573 112.949 93.5428C113.331 93.3284 113.764 93.222 114.202 93.235L114.222 93.2284Z" fill="white"/>
<circle cx="72.7533" cy="54.5966" r="31.4193" fill="white" fill-opacity="0.71"/>
<circle cx="111.617" cy="54.5965" r="31.4193" fill="white" fill-opacity="0.33"/>
</svg>
