<svg width="184" height="125" viewBox="0 0 184 125" fill="none" xmlns="http://www.w3.org/2000/svg">
<rect opacity="0.7" x="0.95835" y="1.0416" width="181.61" height="123.098" rx="22.8528" stroke="white" stroke-width="1.02217"/>
<path d="M131.166 33.9556H52.6503C50.0556 33.9556 47.9551 36.1368 47.9551 38.8204V86.3612C47.9551 89.0449 50.0556 91.2261 52.6391 91.2261H131.155C133.739 91.2261 135.839 89.0449 135.839 86.3612V38.8204C135.85 36.1368 133.75 33.9556 131.166 33.9556ZM80.6533 73.6395H73.9137V60.6209C73.9137 60.3697 73.7115 60.1641 73.4644 60.1641C73.2397 60.1641 73.06 60.324 73.0263 60.541L69.0837 73.6395H64.2424L60.311 60.5295C60.2773 60.324 60.0976 60.1641 59.8729 60.1641C59.6258 60.1641 59.4236 60.3697 59.4236 60.6209V73.6395H52.684V51.2566H58.4688H60.1987C61.4342 51.2566 62.7372 52.2387 63.0967 53.4378L66.3766 64.3438C66.5451 64.8919 66.8034 64.8805 66.9719 64.3438L70.2519 53.4378C70.6113 52.2273 71.9143 51.2566 73.1499 51.2566H74.8685H80.6533V73.6395ZM105.702 73.6395H98.9625V60.3354C98.9512 60.1184 98.7828 59.9357 98.5581 59.9357C98.4008 59.9357 98.2773 60.0157 98.2099 60.1527V60.1641C98.2099 60.1755 98.1987 60.187 98.1987 60.1984L92.6947 72.2006C92.3465 72.9772 91.4029 73.6053 90.5492 73.651H83.8097V51.2681H90.5492V64.2867C90.5492 64.5379 90.7514 64.7435 90.9985 64.7435C91.1558 64.7435 91.2906 64.6635 91.3692 64.5493C91.3917 64.5037 91.4141 64.4694 91.4254 64.4123L96.7833 52.7184C97.1428 51.9304 98.1088 51.3023 98.9625 51.2681H105.702V73.6395ZM123.45 66.445H115.811V73.7537H109.072V61.4203H130.425C129.392 64.3324 126.662 66.4222 123.45 66.445ZM130.706 60.2783C130.706 60.2783 119.002 60.2783 118.99 60.2783C113.262 60.2783 108.566 56.2928 108.173 51.2566H123.427C127.527 51.2909 130.841 54.6712 130.841 58.8508C130.841 59.3419 130.796 59.8215 130.706 60.2783Z" fill="white"/>
</svg>
