<?xml version="1.0" encoding="utf-8"?><svg xmlns="http://www.w3.org/2000/svg" xmlns:xlink="http://www.w3.org/1999/xlink"><symbol viewBox="0 0 21 15" id="arrow" xmlns="http://www.w3.org/2000/svg"><path d="M1.17571 6.89494C0.785181 7.28547 0.785181 7.91863 1.1757 8.30916L7.53967 14.6731C7.93019 15.0636 8.56336 15.0636 8.95388 14.6731C9.3444 14.2826 9.3444 13.6494 8.95388 13.2589L3.29703 7.60205L8.95388 1.9452C9.3444 1.55467 9.3444 0.921506 8.95388 0.530982C8.56336 0.140458 7.93019 0.140457 7.53967 0.530982L1.17571 6.89494ZM20.9199 6.60205L1.88281 6.60205L1.88281 8.60205L20.9199 8.60205L20.9199 6.60205Z"/></symbol><symbol viewBox="0 0 22 22" id="arrow-circle" xmlns="http://www.w3.org/2000/svg"><path d="M16.8434 12.7131L18.8835 8.99217L14.641 9.08585L16.8434 12.7131ZM9.71263 16.53C6.76128 15.7392 5.00981 12.7056 5.80062 9.7542L5.09067 9.56397C4.19479 12.9074 6.17895 16.3441 9.5224 17.24L9.71263 16.53ZM5.80062 9.7542C6.59144 6.80285 9.62507 5.05138 12.5764 5.84219L12.7667 5.13224C9.4232 4.23636 5.98654 6.22052 5.09067 9.56397L5.80062 9.7542ZM12.5764 5.84219C14.4686 6.34921 15.868 7.77795 16.4201 9.51758L17.1207 9.29524C16.4959 7.32678 14.9111 5.70683 12.7667 5.13224L12.5764 5.84219ZM14.9016 15.2482C13.5526 16.4933 11.6154 17.0398 9.71263 16.53L9.5224 17.24C11.6788 17.8178 13.8737 17.1972 15.4001 15.7883L14.9016 15.2482Z"/></symbol><symbol viewBox="0 0 19 18" id="arrow-more" xmlns="http://www.w3.org/2000/svg"><path d="M2 5L9.72589 12.7257L17.4516 5"/></symbol><symbol viewBox="0 0 27 26" id="arrow-select" xmlns="http://www.w3.org/2000/svg"><circle cx="13.3605" cy="13.1154" r="11.7045"/><path d="M8.40039 11.6953L13.3608 16.6556L18.3211 11.6953"/></symbol><symbol viewBox="0 0 512 512" style="enable-background:new 0 0 512 512" xml:space="preserve" id="attentions" xmlns="http://www.w3.org/2000/svg"><g><path d="M505.403 406.394 295.389 58.102c-8.274-13.721-23.367-22.245-39.39-22.245s-31.116 8.524-39.391 22.246L6.595 406.394c-8.551 14.182-8.804 31.95-.661 46.37 8.145 14.42 23.491 23.378 40.051 23.378h420.028c16.56 0 31.907-8.958 40.052-23.379 8.143-14.421 7.89-32.189-.662-46.369zm-28.364 29.978a12.684 12.684 0 0 1-11.026 6.436H45.985a12.68 12.68 0 0 1-11.025-6.435 12.683 12.683 0 0 1 .181-12.765L245.156 75.316A12.732 12.732 0 0 1 256 69.192c4.41 0 8.565 2.347 10.843 6.124l210.013 348.292a12.677 12.677 0 0 1 .183 12.764z" opacity="1" data-original="#000000"/><path d="M256.154 173.005c-12.68 0-22.576 6.804-22.576 18.866 0 36.802 4.329 89.686 4.329 126.489.001 9.587 8.352 13.607 18.248 13.607 7.422 0 17.937-4.02 17.937-13.607 0-36.802 4.329-89.686 4.329-126.489 0-12.061-10.205-18.866-22.267-18.866zM256.465 353.306c-13.607 0-23.814 10.824-23.814 23.814 0 12.68 10.206 23.814 23.814 23.814 12.68 0 23.505-11.134 23.505-23.814 0-12.99-10.826-23.814-23.505-23.814z" opacity="1" data-original="#000000"/></g></symbol><symbol viewBox="0 0 25 25" id="calendar" xmlns="http://www.w3.org/2000/svg"><path d="M18.7016 4.05591H4.9627C3.87873 4.05591 3 4.97648 3 6.11207V20.5052C3 21.6407 3.87873 22.5613 4.9627 22.5613H18.7016C19.7855 22.5613 20.6643 21.6407 20.6643 20.5052V6.11207C20.6643 4.97648 19.7855 4.05591 18.7016 4.05591Z"/><path d="M15.7575 2V6.11231M7.90674 2V6.11231M3 10.2246H20.6643"/></symbol><symbol viewBox="0 0 25 20" id="card" xmlns="http://www.w3.org/2000/svg"><path d="M1.41895 9.61283C1.41895 5.47838 1.41895 3.41061 2.7039 2.12675C3.98776 0.841797 6.05553 0.841797 10.19 0.841797H14.5755C18.7099 0.841797 20.7777 0.841797 22.0616 2.12675C23.3465 3.41061 23.3465 5.47838 23.3465 9.61283C23.3465 13.7473 23.3465 15.815 22.0616 17.0989C20.7777 18.3839 18.7099 18.3839 14.5755 18.3839H10.19C6.05553 18.3839 3.98776 18.3839 2.7039 17.0989C1.41895 15.815 1.41895 13.7473 1.41895 9.61283Z"/><path d="M10.19 13.9984H5.80446M14.5755 13.9984H12.9309M1.41895 7.42017H23.3465"/></symbol><symbol viewBox="0 0 14 14" id="check" xmlns="http://www.w3.org/2000/svg"><path d="M2 5.7472L6.47843 10.2256L12.7041 4"/></symbol><symbol viewBox="0 0 16 16" id="pen" xmlns="http://www.w3.org/2000/svg"><g clip-path="url(#iclip0_1_2963)"><path d="M9.10187 2.75379C9.10187 2.75379 9.17375 3.98504 10.26 5.07067C11.3462 6.15692 12.5769 6.22942 12.5769 6.22942L13.1562 5.65004C13.6171 5.18914 13.8761 4.56403 13.8761 3.91223C13.8761 3.26042 13.6171 2.63531 13.1562 2.17442C12.6954 1.71352 12.0702 1.45459 11.4184 1.45459C10.7666 1.45459 10.1415 1.71352 9.68062 2.17442L9.10125 2.75379L7.62625 4.22879M12.5769 6.22879L9.28937 9.51754L7.35125 11.4544L7.25125 11.555C6.89 11.9157 6.70937 12.0963 6.51062 12.2513C6.27608 12.4344 6.02229 12.5913 5.75375 12.7194C5.52625 12.8275 5.28437 12.9082 4.8 13.0694L2.74937 13.7532M2.74937 13.7532L2.24812 13.9207C2.13128 13.9598 2.00583 13.9657 1.88586 13.9375C1.7659 13.9092 1.65618 13.8481 1.56904 13.761C1.4819 13.6739 1.42079 13.5641 1.39259 13.4442C1.36438 13.3242 1.37019 13.1988 1.40937 13.0819L1.57687 12.5807M2.74937 13.7532L1.57687 12.5807M1.57687 12.5807L2.26062 10.53C2.42187 10.0457 2.5025 9.80379 2.61062 9.57629C2.73875 9.30754 2.89562 9.05379 3.07875 8.81942C3.23375 8.62067 3.41437 8.44004 3.775 8.07942L5.43875 6.41629"/></g><defs><clipPath id="iclip0_1_2963"><rect width="15" height="15" transform="translate(0.125 0.20459)"/></clipPath></defs></symbol><symbol viewBox="0 0 19 19" id="plus" xmlns="http://www.w3.org/2000/svg"><path d="M18.1738 9.8681L0.178867 9.8681"/><path d="M9.17578 18.8641L9.17578 0.869175"/></symbol><symbol viewBox="0 0 31 31" id="signin" xmlns="http://www.w3.org/2000/svg"><path d="M30.5 15.6549C30.5 7.37001 23.7699 0.647461 15.4775 0.647461C7.18514 0.647461 0.455078 7.37001 0.455078 15.6549C0.455078 20.218 2.52818 24.3304 5.77303 27.0907C5.80307 27.1208 5.83312 27.1208 5.83312 27.1508C6.10352 27.3612 6.37393 27.5715 6.67438 27.7818C6.8246 27.8719 6.94478 27.9902 7.09501 28.1104C9.57759 29.7936 12.5082 30.6931 15.5076 30.6924C18.507 30.6931 21.4376 29.7936 23.9202 28.1104C24.0704 28.0203 24.1906 27.902 24.3408 27.8099C24.6112 27.6015 24.9116 27.3912 25.182 27.1809C25.2121 27.1508 25.2421 27.1508 25.2421 27.1208C28.4269 24.3285 30.5 20.218 30.5 15.6549ZM15.4775 28.8014C12.6533 28.8014 10.0695 27.9001 7.93626 26.3997C7.96631 26.1594 8.0264 25.9209 8.08649 25.6805C8.26551 25.0291 8.52808 24.4036 8.86766 23.8196C9.19815 23.2488 9.58873 22.738 10.0695 22.2873C10.5201 21.8366 11.0609 21.4179 11.6017 21.0874C12.1726 20.7569 12.7735 20.5165 13.4345 20.3363C14.1006 20.1567 14.7876 20.0664 15.4775 20.0677C17.5256 20.0532 19.4984 20.8389 20.9758 22.2573C21.6668 22.9483 22.2076 23.7595 22.5982 24.689C22.8085 25.2298 22.9587 25.8007 23.0489 26.3997C20.8315 27.9586 18.188 28.7971 15.4775 28.8014ZM10.8807 14.9057C10.6159 14.2995 10.4828 13.6441 10.4901 12.9828C10.4901 12.3237 10.6103 11.6627 10.8807 11.0618C11.1511 10.4609 11.5116 9.92195 11.9623 9.47128C12.413 9.02061 12.9538 8.66194 13.5547 8.39154C14.1556 8.12114 14.8166 8.00096 15.4775 8.00096C16.1686 8.00096 16.7995 8.12114 17.4004 8.39154C18.0013 8.66194 18.5421 9.02248 18.9928 9.47128C19.4435 9.92195 19.804 10.4628 20.0744 11.0618C20.3448 11.6627 20.465 12.3237 20.465 12.9828C20.465 13.6738 20.3448 14.3048 20.0744 14.9038C19.8134 15.4958 19.4469 16.0354 18.9928 16.4962C18.5318 16.9496 17.9923 17.3155 17.4004 17.5759C16.1589 18.0861 14.7662 18.0861 13.5246 17.5759C12.9328 17.3155 12.3932 16.9496 11.9322 16.4962C11.4775 16.0421 11.1197 15.5022 10.8807 14.9057ZM24.8215 24.8693C24.8215 24.8092 24.7915 24.7792 24.7915 24.7191C24.496 23.7791 24.0604 22.889 23.4995 22.0789C22.9381 21.2627 22.2482 20.543 21.4565 19.9476C20.8519 19.4927 20.1965 19.1096 19.5036 18.8059C19.8188 18.5979 20.1109 18.3568 20.3749 18.0867C20.8228 17.6444 21.2162 17.1502 21.5466 16.6145C22.212 15.5212 22.5557 14.2625 22.5381 12.9828C22.5474 12.0355 22.3634 11.0962 21.9973 10.2224C21.6358 9.38047 21.1156 8.61604 20.465 7.97091C19.8153 7.33251 19.0508 6.8228 18.2116 6.46866C17.3364 6.10323 16.3959 5.91986 15.4475 5.92973C14.499 5.92046 13.5585 6.10447 12.6834 6.47054C11.8369 6.82392 11.0705 7.34445 10.43 8.00096C9.79162 8.6499 9.28189 9.41385 8.92775 10.2524C8.56166 11.1262 8.37765 12.0655 8.38694 13.0128C8.38694 13.6738 8.47707 14.3048 8.65734 14.9038C8.83761 15.5347 9.07797 16.1056 9.40847 16.6445C9.70891 17.1853 10.1295 17.666 10.5802 18.1167C10.8506 18.3871 11.1511 18.6256 11.4816 18.8359C10.7865 19.1477 10.1309 19.5411 9.52864 20.0077C8.74748 20.6086 8.05644 21.3278 7.48559 22.1089C6.91898 22.9157 6.48299 23.8067 6.19366 24.7491C6.16361 24.8092 6.16361 24.8693 6.16361 24.8993C3.79006 22.4976 2.31786 19.2565 2.31786 15.6549C2.31786 8.42158 8.23671 2.50837 15.4775 2.50837C22.7184 2.50837 28.6372 8.42158 28.6372 15.6549C28.6333 19.11 27.2614 22.4229 24.8215 24.8693Z"/></symbol><symbol viewBox="0 0 16 16" id="trash" xmlns="http://www.w3.org/2000/svg"><path d="M4.02734 2.45312C4.02734 2.0553 4.18538 1.67377 4.46668 1.39246C4.74799 1.11116 5.12952 0.953125 5.52734 0.953125H10.0273C10.4252 0.953125 10.8067 1.11116 11.088 1.39246C11.3693 1.67377 11.5273 2.0553 11.5273 2.45312V3.95312H14.5273C14.7263 3.95312 14.917 4.03214 15.0577 4.1728C15.1983 4.31345 15.2773 4.50421 15.2773 4.70312C15.2773 4.90204 15.1983 5.0928 15.0577 5.23345C14.917 5.37411 14.7263 5.45312 14.5273 5.45312H13.7256L13.0753 14.5596C13.0484 14.9381 12.8791 15.2922 12.6014 15.5508C12.3238 15.8094 11.9585 15.9531 11.5791 15.9531H3.97484C3.59545 15.9531 3.23014 15.8094 2.95251 15.5508C2.67487 15.2922 2.50553 14.9381 2.47859 14.5596L1.82984 5.45312H1.02734C0.828431 5.45312 0.637666 5.37411 0.497014 5.23345C0.356361 5.0928 0.277344 4.90204 0.277344 4.70312C0.277344 4.50421 0.356361 4.31345 0.497014 4.1728C0.637666 4.03214 0.828431 3.95312 1.02734 3.95312H4.02734V2.45312ZM5.52734 3.95312H10.0273V2.45312H5.52734V3.95312ZM3.33284 5.45312L3.97559 14.4531H11.5798L12.2226 5.45312H3.33284ZM6.27734 6.95312C6.47626 6.95312 6.66702 7.03214 6.80767 7.1728C6.94833 7.31345 7.02734 7.50421 7.02734 7.70312V12.2031C7.02734 12.402 6.94833 12.5928 6.80767 12.7335C6.66702 12.8741 6.47626 12.9531 6.27734 12.9531C6.07843 12.9531 5.88767 12.8741 5.74701 12.7335C5.60636 12.5928 5.52734 12.402 5.52734 12.2031V7.70312C5.52734 7.50421 5.60636 7.31345 5.74701 7.1728C5.88767 7.03214 6.07843 6.95312 6.27734 6.95312ZM9.27734 6.95312C9.47626 6.95312 9.66702 7.03214 9.80767 7.1728C9.94833 7.31345 10.0273 7.50421 10.0273 7.70312V12.2031C10.0273 12.402 9.94833 12.5928 9.80767 12.7335C9.66702 12.8741 9.47626 12.9531 9.27734 12.9531C9.07843 12.9531 8.88767 12.8741 8.74701 12.7335C8.60636 12.5928 8.52734 12.402 8.52734 12.2031V7.70312C8.52734 7.50421 8.60636 7.31345 8.74701 7.1728C8.88767 7.03214 9.07843 6.95312 9.27734 6.95312Z"/></symbol></svg>